{
.appVersion = "1286";
DisplayStrings = (
ABCDEFGHIJKLMNOPQRSTUVWXYZabcdefghijklmnopqrstuvwxyz0123456789,

glyphs = (
{
glyphname = A;
lastChange = "2020-03-26 11:01:55 +0000";
layers = (
{
layerId = "CFFEBDE4-599A-46B2-9328-D96E42CD9C81";
paths = (
{
closed = 1;
nodes = (
"638 0 LINE",
"360 717 LINE",
"279 717 LINE",
"0 0 LINE",
"91 0 LINE",
"176 221 LINE",
"459 221 LINE",
"545 0 LINE",
"545 0 LINE"
);
},
{
closed = 1;
nodes = (
"206 301 LINE",
"287 517 LINE SMOOTH",
"293 534 OFFCURVE",
"311 593 OFFCURVE",
"318 624 QCURVE",
"322 612 OFFCURVE",
"335 567 OFFCURVE",
"349 525 OFFCURVE",
"352 517 QCURVE SMOOTH",
"432 301 LINE",
"432 301 LINE"
);
}
);
width = 639;
}
);
leftKerningGroup = A;
note = A;
rightKerningGroup = A;
unicode = 0041;
},
{
glyphname = B;
lastChange = "2020-03-26 11:01:55 +0000";
layers = (
{
layerId = "CFFEBDE4-599A-46B2-9328-D96E42CD9C81";
paths = (
{
closed = 1;
nodes = (
"97 0 LINE",
"348 0 LINE SMOOTH",
"463 0 OFFCURVE",
"596 106 OFFCURVE",
"596 203 QCURVE SMOOTH",
"596 259 OFFCURVE",
"554 329 OFFCURVE",
"481 367 OFFCURVE",
"436 374 QCURVE",
"436 379 LINE",
"502 391 OFFCURVE",
"572 474 OFFCURVE",
"572 537 QCURVE SMOOTH",
"572 635 OFFCURVE",
"435 714 OFFCURVE",
"301 714 QCURVE SMOOTH",
"97 714 LINE",
"97 714 LINE"
);
},
{
closed = 1;
nodes = (
"187 637 LINE",
"305 637 LINE SMOOTH",
"396 637 OFFCURVE",
"479 586 OFFCURVE",
"479 527 QCURVE SMOOTH",
"479 469 OFFCURVE",
"411 410 OFFCURVE",
"319 410 QCURVE SMOOTH",
"187 410 LINE",
"187 410 LINE"
);
},
{
closed = 1;
nodes = (
"324 335 LINE SMOOTH",
"423 335 OFFCURVE",
"500 266 OFFCURVE",
"500 210 QCURVE SMOOTH",
"500 150 OFFCURVE",
"426 76 OFFCURVE",
"331 76 QCURVE SMOOTH",
"187 76 LINE",
"187 335 LINE",
"187 335 LINE"
);
}
);
width = 650;
}
);
note = B;
unicode = 0042;
},
{
glyphname = C;
lastChange = "2020-03-26 11:01:55 +0000";
layers = (
{
layerId = "CFFEBDE4-599A-46B2-9328-D96E42CD9C81";
paths = (
{
closed = 1;
nodes = (
"451 645 OFFCURVE",
"532 621 OFFCURVE",
"565 606 QCURVE",
"601 682 LINE",
"517 724 OFFCURVE",
"404 724 QCURVE SMOOTH",
"294 724 OFFCURVE",
"140 631 OFFCURVE",
"61 466 OFFCURVE",
"61 358 QCURVE SMOOTH",
"61 246 OFFCURVE",
"134 80 OFFCURVE",
"280 -10 OFFCURVE",
"389 -10 QCURVE SMOOTH",
"448 -10 OFFCURVE",
"533 4 OFFCURVE",
"573 19 QCURVE",
"573 97 LINE",
"533 85 OFFCURVE",
"449 69 OFFCURVE",
"402 69 QCURVE SMOOTH",
"279 69 OFFCURVE",
"156 224 OFFCURVE",
"156 357 QCURVE SMOOTH",
"156 491 OFFCURVE",
"288 645 OFFCURVE",
"403 645 QCURVE",
"403 645 LINE"
);
}
);
width = 632;
}
);
leftKerningGroup = C;
note = C;
rightKerningGroup = C;
unicode = 0043;
},
{
glyphname = D;
lastChange = "2020-03-26 11:01:55 +0000";
layers = (
{
layerId = "CFFEBDE4-599A-46B2-9328-D96E42CD9C81";
paths = (
{
closed = 1;
nodes = (
"669 479 OFFCURVE",
"583 634 OFFCURVE",
"425 714 OFFCURVE",
"317 714 QCURVE SMOOTH",
"97 714 LINE",
"97 0 LINE",
"296 0 LINE SMOOTH",
"472 0 OFFCURVE",
"669 183 OFFCURVE",
"669 364 QCURVE",
"669 364 LINE"
);
},
{
closed = 1;
nodes = (
"574 77 OFFCURVE",
"284 77 QCURVE SMOOTH",
"187 77 LINE",
"187 637 LINE",
"304 637 LINE SMOOTH",
"433 637 OFFCURVE",
"574 504 OFFCURVE",
"574 361 QCURVE",
"574 361 LINE"
);
}
);
width = 730;
}
);
note = D;
rightKerningGroup = D;
unicode = 0044;
},
{
glyphname = E;
lastChange = "2020-03-26 11:01:55 +0000";
layers = (
{
layerId = "CFFEBDE4-599A-46B2-9328-D96E42CD9C81";
paths = (
{
closed = 1;
nodes = (
"496 79 LINE",
"187 79 LINE",
"187 334 LINE",
"478 334 LINE",
"478 412 LINE",
"187 412 LINE",
"187 635 LINE",
"496 635 LINE",
"496 714 LINE",
"97 714 LINE",
"97 0 LINE",
"496 0 LINE",
"496 0 LINE"
);
}
);
width = 556;
}
);
note = E;
rightKerningGroup = E;
unicode = 0045;
},
{
glyphname = F;
lastChange = "2020-03-26 11:01:55 +0000";
layers = (
{
layerId = "CFFEBDE4-599A-46B2-9328-D96E42CD9C81";
paths = (
{
closed = 1;
nodes = (
"187 303 LINE",
"477 303 LINE",
"477 382 LINE",
"187 382 LINE",
"187 635 LINE",
"496 635 LINE",
"496 714 LINE",
"97 714 LINE",
"97 0 LINE",
"187 0 LINE",
"187 0 LINE"
);
}
);
width = 519;
}
);
note = F;
unicode = 0046;
},
{
glyphname = G;
lastChange = "2020-03-26 11:01:55 +0000";
layers = (
{
layerId = "CFFEBDE4-599A-46B2-9328-D96E42CD9C81";
paths = (
{
closed = 1;
nodes = (
"407 297 LINE",
"564 297 LINE",
"564 85 LINE",
"537 78 OFFCURVE",
"471 68 OFFCURVE",
"424 68 QCURVE SMOOTH",
"328 68 OFFCURVE",
"210 141 OFFCURVE",
"155 272 OFFCURVE",
"155 357 QCURVE SMOOTH",
"155 491 OFFCURVE",
"298 645 OFFCURVE",
"426 645 QCURVE SMOOTH",
"477 645 OFFCURVE",
"572 621 OFFCURVE",
"610 604 QCURVE",
"644 682 LINE",
"598 702 OFFCURVE",
"491 724 OFFCURVE",
"431 724 QCURVE SMOOTH",
"314 724 OFFCURVE",
"149 633 OFFCURVE",
"61 469 OFFCURVE",
"61 357 QCURVE SMOOTH",
"61 244 OFFCURVE",
"140 79 OFFCURVE",
"292 -10 OFFCURVE",
"403 -10 QCURVE SMOOTH",
"478 -10 OFFCURVE",
"596 8 OFFCURVE",
"654 27 QCURVE",
"654 377 LINE",
"407 377 LINE",
"407 377 LINE"
);
}
);
width = 728;
}
);
leftKerningGroup = C;
note = G;
unicode = 0047;
},
{
glyphname = H;
lastChange = "2020-04-09 16:22:34 +0000";
layers = (
{
layerId = "CFFEBDE4-599A-46B2-9328-D96E42CD9C81";
paths = (
{
closed = 1;
nodes = (
"643 714 LINE",
"553 714 LINE",
"553 412 LINE",
"187 412 LINE",
"187 714 LINE",
"97 714 LINE",
"97 0 LINE",
"187 0 LINE",
"187 333 LINE",
"553 333 LINE",
"553 0 LINE",
"643 0 LINE",
"643 0 LINE"
);
}
);
width = 741;
}
);
note = H;
unicode = 0048;
},
{
glyphname = I;
lastChange = "2020-03-26 11:01:55 +0000";
layers = (
{
layerId = "CFFEBDE4-599A-46B2-9328-D96E42CD9C81";
paths = (
{
closed = 1;
nodes = (
"298 52 LINE",
"214 71 LINE",
"214 642 LINE",
"298 662 LINE",
"298 714 LINE",
"40 714 LINE",
"40 662 LINE",
"124 642 LINE",
"124 71 LINE",
"40 52 LINE",
"40 0 LINE",
"298 0 LINE",
"298 0 LINE"
);
}
);
width = 339;
}
);
note = I;
unicode = 0049;
},
{
glyphname = J;
lastChange = "2020-03-26 11:01:55 +0000";
layers = (
{
layerId = "CFFEBDE4-599A-46B2-9328-D96E42CD9C81";
paths = (
{
closed = 1;
nodes = (
"80 -190 OFFCURVE",
"182 -92 OFFCURVE",
"182 11 QCURVE SMOOTH",
"182 714 LINE",
"92 714 LINE",
"92 4 LINE SMOOTH",
"92 -41 OFFCURVE",
"64 -91 OFFCURVE",
"19 -111 OFFCURVE",
"-6 -111 QCURVE SMOOTH",
"-26 -111 OFFCURVE",
"-62 -105 OFFCURVE",
"-78 -101 QCURVE",
"-78 -177 LINE",
"-64 -183 OFFCURVE",
"-28 -190 OFFCURVE",
"-4 -190 QCURVE",
"-4 -190 LINE"
);
}
);
width = 273;
}
);
note = J;
unicode = 004A;
},
{
glyphname = K;
lastChange = "2020-03-26 11:01:55 +0000";
layers = (
{
layerId = "CFFEBDE4-599A-46B2-9328-D96E42CD9C81";
paths = (
{
closed = 1;
nodes = (
"325 403 LINE",
"608 714 LINE",
"503 714 LINE",
"310 498 LINE SMOOTH",
"279 464 OFFCURVE",
"217 396 OFFCURVE",
"187 362 QCURVE",
"187 714 LINE",
"97 714 LINE",
"97 0 LINE",
"187 0 LINE",
"187 277 LINE",
"260 341 LINE",
"513 0 LINE",
"619 0 LINE",
"619 0 LINE"
);
}
);
width = 600;
}
);
note = K;
rightKerningGroup = K;
unicode = 004B;
},
{
glyphname = L;
lastChange = "2020-03-26 11:01:55 +0000";
layers = (
{
layerId = "CFFEBDE4-599A-46B2-9328-D96E42CD9C81";
paths = (
{
closed = 1;
nodes = (
"499 0 LINE",
"499 80 LINE",
"187 80 LINE",
"187 714 LINE",
"97 714 LINE",
"97 0 LINE",
"97 0 LINE"
);
}
);
width = 524;
}
);
note = L;
rightKerningGroup = L;
unicode = 004C;
},
{
glyphname = M;
lastChange = "2020-03-26 11:01:55 +0000";
layers = (
{
layerId = "CFFEBDE4-599A-46B2-9328-D96E42CD9C81";
paths = (
{
closed = 1;
nodes = (
"486 0 LINE",
"724 625 LINE",
"728 625 LINE",
"726 593 OFFCURVE",
"721 491 OFFCURVE",
"721 439 QCURVE SMOOTH",
"721 0 LINE",
"810 0 LINE",
"810 714 LINE",
"678 714 LINE",
"454 129 LINE",
"450 129 LINE",
"230 714 LINE",
"97 714 LINE",
"97 0 LINE",
"180 0 LINE",
"180 433 LINE SMOOTH",
"180 490 OFFCURVE",
"176 595 OFFCURVE",
"173 626 QCURVE",
"177 626 LINE",
"412 0 LINE",
"412 0 LINE"
);
}
);
width = 907;
}
);
note = M;
unicode = 004D;
},
{
glyphname = N;
lastChange = "2020-03-26 11:01:55 +0000";
layers = (
{
layerId = "CFFEBDE4-599A-46B2-9328-D96E42CD9C81";
paths = (
{
closed = 1;
nodes = (
"663 714 LINE",
"579 714 LINE",
"579 311 LINE SMOOTH",
"579 279 OFFCURVE",
"582 203 OFFCURVE",
"585 139 OFFCURVE",
"586 123 QCURVE",
"582 123 LINE",
"201 714 LINE",
"97 714 LINE",
"97 0 LINE",
"180 0 LINE",
"180 399 LINE SMOOTH",
"180 454 OFFCURVE",
"174 558 OFFCURVE",
"172 593 QCURVE",
"176 593 LINE",
"558 0 LINE",
"663 0 LINE",
"663 0 LINE"
);
}
);
width = 760;
}
);
note = N;
unicode = 004E;
},
{
glyphname = O;
lastChange = "2020-03-26 11:01:55 +0000";
layers = (
{
layerId = "CFFEBDE4-599A-46B2-9328-D96E42CD9C81";
paths = (
{
closed = 1;
nodes = (
"720 469 OFFCURVE",
"645 634 OFFCURVE",
"499 725 OFFCURVE",
"392 725 QCURVE SMOOTH",
"280 725 OFFCURVE",
"133 633 OFFCURVE",
"61 469 OFFCURVE",
"61 359 QCURVE SMOOTH",
"61 248 OFFCURVE",
"133 82 OFFCURVE",
"280 -10 OFFCURVE",
"391 -10 QCURVE SMOOTH",
"499 -10 OFFCURVE",
"645 82 OFFCURVE",
"720 247 OFFCURVE",
"720 358 QCURVE",
"720 358 LINE"
);
},
{
closed = 1;
nodes = (
"156 493 OFFCURVE",
"271 646 OFFCURVE",
"392 646 QCURVE SMOOTH",
"513 646 OFFCURVE",
"625 493 OFFCURVE",
"625 358 QCURVE SMOOTH",
"625 223 OFFCURVE",
"513 68 OFFCURVE",
"391 68 QCURVE SMOOTH",
"270 68 OFFCURVE",
"156 223 OFFCURVE",
"156 358 QCURVE",
"156 358 LINE"
);
}
);
userData = {
assembly = "NPUSHB[ ]	/* 28 values pushed */\0120 3 3 1 97 0 1 1 112 77 0 2 2 0 97 0 0 0 113 0 78 36 37 38 35 4 13 26 \012CALL[ ]	/* CallFunction */";
};
width = 781;
}
);
leftKerningGroup = C;
note = O;
rightKerningGroup = D;
unicode = 004F;
},
{
glyphname = P;
lastChange = "2020-03-26 11:01:55 +0000";
layers = (
{
layerId = "CFFEBDE4-599A-46B2-9328-D96E42CD9C81";
paths = (
{
closed = 1;
nodes = (
"97 714 LINE",
"97 0 LINE",
"187 0 LINE",
"187 278 LINE",
"269 278 LINE SMOOTH",
"376 278 OFFCURVE",
"501 342 OFFCURVE",
"554 445 OFFCURVE",
"554 504 QCURVE SMOOTH",
"554 604 OFFCURVE",
"426 714 OFFCURVE",
"286 714 QCURVE",
"286 714 LINE"
);
},
{
closed = 1;
nodes = (
"373 637 OFFCURVE",
"461 569 OFFCURVE",
"461 500 QCURVE SMOOTH",
"461 421 OFFCURVE",
"361 355 OFFCURVE",
"259 355 QCURVE SMOOTH",
"187 355 LINE",
"187 637 LINE",
"278 637 LINE",
"278 637 LINE"
);
}
);
width = 605;
}
);
note = P;
rightKerningGroup = P;
unicode = 0050;
},
{
glyphname = Q;
lastChange = "2020-03-26 11:01:55 +0000";
layers = (
{
layerId = "CFFEBDE4-599A-46B2-9328-D96E42CD9C81";
paths = (
{
closed = 1;
nodes = (
"720 469 OFFCURVE",
"645 634 OFFCURVE",
"499 725 OFFCURVE",
"392 725 QCURVE SMOOTH",
"280 725 OFFCURVE",
"133 633 OFFCURVE",
"61 469 OFFCURVE",
"61 359 QCURVE SMOOTH",
"61 248 OFFCURVE",
"133 82 OFFCURVE",
"280 -10 OFFCURVE",
"391 -10 QCURVE SMOOTH",
"397 -10 OFFCURVE",
"410 -9 OFFCURVE",
"416 -9 QCURVE",
"554 -170 LINE",
"683 -170 LINE",
"512 8 LINE",
"615 43 OFFCURVE",
"720 227 OFFCURVE",
"720 358 QCURVE",
"720 358 LINE"
);
},
{
closed = 1;
nodes = (
"156 493 OFFCURVE",
"271 646 OFFCURVE",
"392 646 QCURVE SMOOTH",
"513 646 OFFCURVE",
"625 493 OFFCURVE",
"625 358 QCURVE SMOOTH",
"625 223 OFFCURVE",
"513 68 OFFCURVE",
"391 68 QCURVE SMOOTH",
"270 68 OFFCURVE",
"156 223 OFFCURVE",
"156 358 QCURVE",
"156 358 LINE"
);
}
);
width = 781;
}
);
leftKerningGroup = C;
note = Q;
rightKerningGroup = D;
unicode = 0051;
},
{
glyphname = R;
lastChange = "2020-03-26 11:01:55 +0000";
layers = (
{
layerId = "CFFEBDE4-599A-46B2-9328-D96E42CD9C81";
paths = (
{
closed = 1;
nodes = (
"97 714 LINE",
"97 0 LINE",
"187 0 LINE",
"187 295 LINE",
"329 295 LINE",
"502 0 LINE",
"607 0 LINE",
"411 320 LINE",
"447 333 OFFCURVE",
"512 378 OFFCURVE",
"554 454 OFFCURVE",
"554 511 QCURVE SMOOTH",
"554 613 OFFCURVE",
"427 714 OFFCURVE",
"294 714 QCURVE",
"294 714 LINE"
);
},
{
closed = 1;
nodes = (
"377 636 OFFCURVE",
"461 577 OFFCURVE",
"461 507 QCURVE SMOOTH",
"461 440 OFFCURVE",
"381 371 OFFCURVE",
"294 371 QCURVE SMOOTH",
"187 371 LINE",
"187 636 LINE",
"289 636 LINE",
"289 636 LINE"
);
}
);
width = 622;
}
);
note = R;
unicode = 0052;
},
{
glyphname = S;
lastChange = "2020-03-26 11:01:55 +0000";
layers = (
{
layerId = "CFFEBDE4-599A-46B2-9328-D96E42CD9C81";
paths = (
{
closed = 1;
nodes = (
"502 247 OFFCURVE",
"457 321 OFFCURVE",
"370 374 OFFCURVE",
"307 397 QCURVE SMOOTH",
"249 419 OFFCURVE",
"181 457 OFFCURVE",
"151 505 OFFCURVE",
"151 541 QCURVE SMOOTH",
"151 588 OFFCURVE",
"219 645 OFFCURVE",
"286 645 QCURVE SMOOTH",
"333 645 OFFCURVE",
"420 623 OFFCURVE",
"457 607 QCURVE",
"485 684 LINE",
"445 702 OFFCURVE",
"347 724 OFFCURVE",
"288 724 QCURVE SMOOTH",
"221 724 OFFCURVE",
"118 680 OFFCURVE",
"60 599 OFFCURVE",
"60 542 QCURVE SMOOTH",
"60 459 OFFCURVE",
"153 363 OFFCURVE",
"244 330 QCURVE SMOOTH",
"309 307 OFFCURVE",
"382 266 OFFCURVE",
"412 218 OFFCURVE",
"412 183 QCURVE SMOOTH",
"412 130 OFFCURVE",
"331 68 OFFCURVE",
"251 68 QCURVE SMOOTH",
"194 68 OFFCURVE",
"87 94 OFFCURVE",
"51 110 QCURVE",
"51 24 LINE",
"85 8 OFFCURVE",
"187 -10 OFFCURVE",
"247 -10 QCURVE SMOOTH",
"364 -10 OFFCURVE",
"502 96 OFFCURVE",
"502 191 QCURVE",
"502 191 LINE"
);
}
);
width = 549;
}
);
note = S;
unicode = 0053;
},
{
glyphname = T;
lastChange = "2020-03-26 11:01:55 +0000";
layers = (
{
layerId = "CFFEBDE4-599A-46B2-9328-D96E42CD9C81";
paths = (
{
closed = 1;
nodes = (
"323 635 LINE",
"545 635 LINE",
"545 714 LINE",
"10 714 LINE",
"10 635 LINE",
"233 635 LINE",
"233 0 LINE",
"323 0 LINE",
"323 0 LINE"
);
}
);
width = 556;
}
);
leftKerningGroup = T;
note = T;
rightKerningGroup = T;
unicode = 0054;
},
{
glyphname = U;
lastChange = "2020-03-26 11:01:55 +0000";
layers = (
{
layerId = "CFFEBDE4-599A-46B2-9328-D96E42CD9C81";
paths = (
{
closed = 1;
nodes = (
"551 714 LINE",
"551 252 LINE SMOOTH",
"551 171 OFFCURVE",
"464 68 OFFCURVE",
"367 68 QCURVE SMOOTH",
"273 68 OFFCURVE",
"180 164 OFFCURVE",
"180 251 QCURVE SMOOTH",
"180 714 LINE",
"90 714 LINE",
"90 254 LINE SMOOTH",
"90 135 OFFCURVE",
"229 -10 OFFCURVE",
"362 -10 QCURVE SMOOTH",
"457 -10 OFFCURVE",
"580 59 OFFCURVE",
"640 178 OFFCURVE",
"640 252 QCURVE SMOOTH",
"640 714 LINE",
"640 714 LINE"
);
}
);
width = 731;
}
);
leftKerningGroup = U;
note = U;
rightKerningGroup = U;
unicode = 0055;
},
{
glyphname = V;
lastChange = "2020-03-26 11:01:55 +0000";
layers = (
{
layerId = "CFFEBDE4-599A-46B2-9328-D96E42CD9C81";
paths = (
{
closed = 1;
nodes = (
"505 714 LINE",
"345 258 LINE SMOOTH",
"329 213 OFFCURVE",
"307 135 OFFCURVE",
"300 100 QCURVE",
"293 135 OFFCURVE",
"271 212 OFFCURVE",
"255 256 QCURVE SMOOTH",
"94 714 LINE",
"0 714 LINE",
"255 0 LINE",
"345 0 LINE",
"600 714 LINE",
"600 714 LINE"
);
}
);
width = 600;
}
);
leftKerningGroup = V;
note = V;
rightKerningGroup = V;
unicode = 0056;
},
{
glyphname = W;
lastChange = "2020-03-26 11:01:55 +0000";
layers = (
{
layerId = "CFFEBDE4-599A-46B2-9328-D96E42CD9C81";
paths = (
{
closed = 1;
nodes = (
"823 714 LINE",
"713 279 LINE SMOOTH",
"701 232 OFFCURVE",
"683 145 OFFCURVE",
"678 108 QCURVE",
"673 143 OFFCURVE",
"653 234 OFFCURVE",
"639 280 QCURVE SMOOTH",
"508 714 LINE",
"415 714 LINE",
"289 283 LINE SMOOTH",
"276 239 OFFCURVE",
"256 147 OFFCURVE",
"251 108 QCURVE",
"246 146 OFFCURVE",
"229 232 OFFCURVE",
"217 278 QCURVE SMOOTH",
"106 714 LINE",
"12 714 LINE",
"201 0 LINE",
"292 0 LINE",
"427 465 LINE SMOOTH",
"441 511 OFFCURVE",
"460 596 OFFCURVE",
"461 609 QCURVE",
"463 600 OFFCURVE",
"473 555 OFFCURVE",
"489 497 OFFCURVE",
"497 468 QCURVE SMOOTH",
"636 0 LINE",
"727 0 LINE",
"917 714 LINE",
"917 714 LINE"
);
}
);
width = 930;
}
);
leftKerningGroup = V;
note = W;
rightKerningGroup = V;
unicode = 0057;
},
{
glyphname = X;
lastChange = "2020-03-26 11:01:55 +0000";
layers = (
{
layerId = "CFFEBDE4-599A-46B2-9328-D96E42CD9C81";
paths = (
{
closed = 1;
nodes = (
"344 374 LINE",
"565 714 LINE",
"470 714 LINE",
"294 434 LINE",
"119 714 LINE",
"19 714 LINE",
"241 372 LINE",
"4 0 LINE",
"99 0 LINE",
"291 310 LINE",
"480 0 LINE",
"582 0 LINE",
"582 0 LINE"
);
}
);
width = 586;
}
);
note = X;
rightKerningGroup = K;
unicode = 0058;
},
{
glyphname = Y;
lastChange = "2020-03-26 11:01:55 +0000";
layers = (
{
layerId = "CFFEBDE4-599A-46B2-9328-D96E42CD9C81";
paths = (
{
closed = 1;
nodes = (
"98 714 LINE",
"0 714 LINE",
"238 273 LINE",
"238 0 LINE",
"328 0 LINE",
"328 277 LINE",
"566 714 LINE",
"469 714 LINE",
"283 363 LINE",
"283 363 LINE"
);
}
);
width = 566;
}
);
leftKerningGroup = Y;
note = Y;
rightKerningGroup = Y;
unicode = 0059;
},
{
glyphname = Z;
lastChange = "2020-03-26 11:01:55 +0000";
layers = (
{
layerId = "CFFEBDE4-599A-46B2-9328-D96E42CD9C81";
paths = (
{
closed = 1;
nodes = (
"533 80 LINE",
"147 80 LINE",
"523 646 LINE",
"523 714 LINE",
"50 714 LINE",
"50 634 LINE",
"414 634 LINE",
"38 68 LINE",
"38 0 LINE",
"533 0 LINE",
"533 0 LINE"
);
}
);
width = 572;
}
);
leftKerningGroup = Z;
note = Z;
rightKerningGroup = Z;
unicode = 005A;
},
{
glyphname = a;
lastChange = "2020-03-26 11:01:55 +0000";
layers = (
{
layerId = "CFFEBDE4-599A-46B2-9328-D96E42CD9C81";
paths = (
{
closed = 1;
nodes = (
"236 545 OFFCURVE",
"140 518 OFFCURVE",
"105 499 QCURVE",
"132 433 LINE",
"165 449 OFFCURVE",
"241 474 OFFCURVE",
"283 474 QCURVE SMOOTH",
"336 474 OFFCURVE",
"394 422 OFFCURVE",
"394 355 QCURVE SMOOTH",
"394 323 LINE",
"303 320 LINE SMOOTH",
"172 316 OFFCURVE",
"46 229 OFFCURVE",
"46 149 QCURVE SMOOTH",
"46 67 OFFCURVE",
"142 -10 OFFCURVE",
"215 -10 QCURVE SMOOTH",
"283 -10 OFFCURVE",
"360 32 OFFCURVE",
"395 76 QCURVE",
"399 76 LINE",
"416 0 LINE",
"480 0 LINE",
"480 365 LINE SMOOTH",
"480 459 OFFCURVE",
"386 545 OFFCURVE",
"288 545 QCURVE",
"288 545 LINE"
);
},
{
closed = 1;
nodes = (
"393 214 LINE SMOOTH",
"393 136 OFFCURVE",
"303 61 OFFCURVE",
"235 61 QCURVE SMOOTH",
"192 61 OFFCURVE",
"137 103 OFFCURVE",
"137 148 QCURVE SMOOTH",
"137 199 OFFCURVE",
"214 255 OFFCURVE",
"314 259 QCURVE SMOOTH",
"393 262 LINE",
"393 262 LINE"
);
}
);
width = 561;
}
);
leftKerningGroup = a;
note = a;
rightKerningGroup = a;
unicode = 0061;
},
{
glyphname = b;
lastChange = "2020-03-26 11:01:55 +0000";
layers = (
{
layerId = "CFFEBDE4-599A-46B2-9328-D96E42CD9C81";
paths = (
{
closed = 1;
nodes = (
"85 760 LINE",
"85 0 LINE",
"148 0 LINE",
"166 68 LINE",
"173 68 LINE",
"196 36 OFFCURVE",
"276 -10 OFFCURVE",
"339 -10 QCURVE SMOOTH",
"438 -10 OFFCURVE",
"560 130 OFFCURVE",
"560 268 QCURVE SMOOTH",
"560 406 OFFCURVE",
"439 545 OFFCURVE",
"339 545 QCURVE SMOOTH",
"276 545 OFFCURVE",
"196 499 OFFCURVE",
"173 465 QCURVE",
"168 465 LINE",
"170 482 OFFCURVE",
"173 541 OFFCURVE",
"173 575 QCURVE SMOOTH",
"173 760 LINE",
"173 760 LINE"
);
},
{
closed = 1;
nodes = (
"469 472 OFFCURVE",
"469 269 QCURVE SMOOTH",
"469 169 OFFCURVE",
"398 63 OFFCURVE",
"326 63 QCURVE SMOOTH",
"238 63 OFFCURVE",
"173 168 OFFCURVE",
"173 267 QCURVE SMOOTH",
"173 271 LINE SMOOTH",
"173 374 OFFCURVE",
"239 472 OFFCURVE",
"324 472 QCURVE",
"324 472 LINE"
);
}
);
width = 615;
}
);
leftKerningGroup = b;
note = b;
rightKerningGroup = b;
unicode = 0062;
},
{
glyphname = c;
lastChange = "2020-03-26 11:01:55 +0000";
layers = (
{
layerId = "CFFEBDE4-599A-46B2-9328-D96E42CD9C81";
paths = (
{
closed = 1;
nodes = (
"346 -10 OFFCURVE",
"411 5 OFFCURVE",
"438 19 QCURVE",
"438 97 LINE",
"410 84 OFFCURVE",
"343 66 OFFCURVE",
"299 66 QCURVE SMOOTH",
"223 66 OFFCURVE",
"146 169 OFFCURVE",
"146 266 QCURVE SMOOTH",
"146 469 OFFCURVE",
"304 469 QCURVE SMOOTH",
"332 469 OFFCURVE",
"396 453 OFFCURVE",
"420 444 QCURVE",
"447 517 LINE",
"423 529 OFFCURVE",
"347 546 OFFCURVE",
"306 546 QCURVE SMOOTH",
"234 546 OFFCURVE",
"121 488 OFFCURVE",
"55 364 OFFCURVE",
"55 265 QCURVE SMOOTH",
"55 170 OFFCURVE",
"118 48 OFFCURVE",
"229 -10 OFFCURVE",
"300 -10 QCURVE",
"300 -10 LINE"
);
}
);
width = 480;
}
);
leftKerningGroup = c;
note = c;
unicode = 0063;
},
{
glyphname = d;
lastChange = "2020-03-26 11:01:55 +0000";
layers = (
{
layerId = "CFFEBDE4-599A-46B2-9328-D96E42CD9C81";
paths = (
{
closed = 1;
nodes = (
"338 -10 OFFCURVE",
"418 38 OFFCURVE",
"442 72 QCURVE",
"446 72 LINE",
"459 0 LINE",
"530 0 LINE",
"530 760 LINE",
"442 760 LINE",
"442 546 LINE SMOOTH",
"442 531 OFFCURVE",
"447 480 OFFCURVE",
"448 467 QCURVE",
"442 467 LINE",
"417 500 OFFCURVE",
"338 546 OFFCURVE",
"276 546 QCURVE SMOOTH",
"176 546 OFFCURVE",
"55 405 OFFCURVE",
"55 267 QCURVE SMOOTH",
"55 129 OFFCURVE",
"175 -10 OFFCURVE",
"275 -10 QCURVE",
"275 -10 LINE"
);
},
{
closed = 1;
nodes = (
"217 63 OFFCURVE",
"146 169 OFFCURVE",
"146 265 QCURVE SMOOTH",
"146 360 OFFCURVE",
"217 473 OFFCURVE",
"288 473 QCURVE SMOOTH",
"377 473 OFFCURVE",
"443 366 OFFCURVE",
"443 266 QCURVE SMOOTH",
"443 250 LINE SMOOTH",
"443 156 OFFCURVE",
"374 63 OFFCURVE",
"289 63 QCURVE",
"289 63 LINE"
);
}
);
width = 615;
}
);
leftKerningGroup = c;
note = d;
unicode = 0064;
},
{
glyphname = e;
lastChange = "2020-03-26 11:01:55 +0000";
layers = (
{
layerId = "CFFEBDE4-599A-46B2-9328-D96E42CD9C81";
paths = (
{
closed = 1;
nodes = (
"221 546 OFFCURVE",
"114 478 OFFCURVE",
"55 352 OFFCURVE",
"55 264 QCURVE SMOOTH",
"55 175 OFFCURVE",
"120 52 OFFCURVE",
"237 -10 OFFCURVE",
"313 -10 QCURVE SMOOTH",
"368 -10 OFFCURVE",
"448 7 OFFCURVE",
"489 25 QCURVE",
"489 102 LINE",
"447 84 OFFCURVE",
"368 65 OFFCURVE",
"317 65 QCURVE SMOOTH",
"237 65 OFFCURVE",
"148 160 OFFCURVE",
"146 251 QCURVE",
"513 251 LINE",
"513 304 LINE SMOOTH",
"513 377 OFFCURVE",
"460 486 OFFCURVE",
"361 546 OFFCURVE",
"292 546 QCURVE",
"292 546 LINE"
);
},
{
closed = 1;
nodes = (
"358 474 OFFCURVE",
"420 389 OFFCURVE",
"421 321 QCURVE",
"148 321 LINE",
"155 393 OFFCURVE",
"228 474 OFFCURVE",
"291 474 QCURVE",
"291 474 LINE"
);
}
);
width = 564;
}
);
leftKerningGroup = c;
note = e;
rightKerningGroup = b;
unicode = 0065;
},
{
glyphname = f;
lastChange = "2020-03-26 11:01:55 +0000";
layers = (
{
layerId = "CFFEBDE4-599A-46B2-9328-D96E42CD9C81";
paths = (
{
closed = 1;
nodes = (
"332 536 LINE",
"197 536 LINE",
"197 571 LINE SMOOTH",
"197 634 OFFCURVE",
"240 693 OFFCURVE",
"284 693 QCURVE SMOOTH",
"306 693 OFFCURVE",
"348 683 OFFCURVE",
"364 678 QCURVE",
"387 747 LINE",
"368 754 OFFCURVE",
"315 765 OFFCURVE",
"283 765 QCURVE SMOOTH",
"201 765 OFFCURVE",
"109 674 OFFCURVE",
"109 570 QCURVE SMOOTH",
"109 539 LINE",
"15 509 LINE",
"15 468 LINE",
"109 468 LINE",
"109 0 LINE",
"197 0 LINE",
"197 468 LINE",
"332 468 LINE",
"332 468 LINE"
);
}
);
width = 344;
}
);
leftKerningGroup = f;
note = f;
rightKerningGroup = f;
unicode = 0066;
},
{
glyphname = g;
lastChange = "2020-03-26 11:01:55 +0000";
layers = (
{
layerId = "CFFEBDE4-599A-46B2-9328-D96E42CD9C81";
paths = (
{
closed = 1;
nodes = (
"172 546 OFFCURVE",
"55 395 OFFCURVE",
"55 267 QCURVE SMOOTH",
"55 136 OFFCURVE",
"172 -10 OFFCURVE",
"276 -10 QCURVE SMOOTH",
"388 -10 OFFCURVE",
"442 71 QCURVE",
"446 71 LINE",
"445 62 OFFCURVE",
"443 17 OFFCURVE",
"443 5 QCURVE SMOOTH",
"443 -16 LINE SMOOTH",
"443 -86 OFFCURVE",
"364 -167 OFFCURVE",
"295 -167 QCURVE SMOOTH",
"176 -167 OFFCURVE",
"97 -125 QCURVE",
"97 -206 LINE",
"172 -240 OFFCURVE",
"290 -240 QCURVE SMOOTH",
"413 -240 OFFCURVE",
"530 -124 OFFCURVE",
"530 -9 QCURVE SMOOTH",
"530 536 LINE",
"460 536 LINE",
"448 465 LINE",
"443 465 LINE",
"413 506 OFFCURVE",
"328 546 OFFCURVE",
"275 546 QCURVE",
"275 546 LINE"
);
},
{
closed = 1;
nodes = (
"368 472 OFFCURVE",
"444 377 OFFCURVE",
"444 267 QCURVE SMOOTH",
"444 246 LINE SMOOTH",
"444 149 OFFCURVE",
"370 62 OFFCURVE",
"289 62 QCURVE SMOOTH",
"219 62 OFFCURVE",
"146 167 OFFCURVE",
"146 266 QCURVE SMOOTH",
"146 365 OFFCURVE",
"220 472 OFFCURVE",
"287 472 QCURVE",
"287 472 LINE"
);
}
);
width = 615;
}
);
leftKerningGroup = g;
note = g;
unicode = 0067;
},
{
glyphname = h;
lastChange = "2020-03-26 11:01:55 +0000";
layers = (
{
layerId = "CFFEBDE4-599A-46B2-9328-D96E42CD9C81";
paths = (
{
closed = 1;
nodes = (
"85 760 LINE",
"85 0 LINE",
"173 0 LINE",
"173 277 LINE SMOOTH",
"173 371 OFFCURVE",
"240 472 OFFCURVE",
"330 472 QCURVE SMOOTH",
"450 472 OFFCURVE",
"450 343 QCURVE SMOOTH",
"450 0 LINE",
"537 0 LINE",
"537 349 LINE SMOOTH",
"537 452 OFFCURVE",
"439 545 OFFCURVE",
"341 545 QCURVE SMOOTH",
"289 545 OFFCURVE",
"200 503 OFFCURVE",
"174 462 QCURVE",
"168 462 LINE",
"173 497 OFFCURVE",
"173 537 QCURVE SMOOTH",
"173 760 LINE",
"173 760 LINE"
);
}
);
width = 618;
}
);
leftKerningGroup = b;
note = h;
rightKerningGroup = a;
unicode = 0068;
},
{
glyphname = i;
lastChange = "2020-03-26 11:01:55 +0000";
layers = (
{
layerId = "CFFEBDE4-599A-46B2-9328-D96E42CD9C81";
paths = (
{
closed = 1;
nodes = (
"108 737 OFFCURVE",
"78 710 OFFCURVE",
"78 681 QCURVE SMOOTH",
"78 653 OFFCURVE",
"108 625 OFFCURVE",
"130 625 QCURVE SMOOTH",
"150 625 OFFCURVE",
"181 653 OFFCURVE",
"181 681 QCURVE SMOOTH",
"181 710 OFFCURVE",
"150 737 OFFCURVE",
"130 737 QCURVE",
"130 737 LINE"
);
},
{
closed = 1;
nodes = (
"85 536 LINE",
"85 0 LINE",
"173 0 LINE",
"173 536 LINE",
"173 536 LINE"
);
}
);
width = 258;
}
);
note = i;
unicode = 0069;
},
{
glyphname = j;
lastChange = "2020-03-26 11:01:55 +0000";
layers = (
{
layerId = "CFFEBDE4-599A-46B2-9328-D96E42CD9C81";
paths = (
{
closed = 1;
nodes = (
"78 653 OFFCURVE",
"108 625 OFFCURVE",
"130 625 QCURVE SMOOTH",
"150 625 OFFCURVE",
"181 653 OFFCURVE",
"181 681 QCURVE SMOOTH",
"181 710 OFFCURVE",
"150 737 OFFCURVE",
"130 737 QCURVE SMOOTH",
"108 737 OFFCURVE",
"78 710 OFFCURVE",
"78 681 QCURVE",
"78 681 LINE"
);
},
{
closed = 1;
nodes = (
"101 -240 OFFCURVE",
"173 -155 OFFCURVE",
"173 -80 QCURVE SMOOTH",
"173 536 LINE",
"85 536 LINE",
"85 -83 LINE SMOOTH",
"85 -132 OFFCURVE",
"43 -167 OFFCURVE",
"11 -167 QCURVE SMOOTH",
"-8 -167 OFFCURVE",
"-40 -161 OFFCURVE",
"-55 -157 QCURVE",
"-55 -228 LINE",
"-41 -233 OFFCURVE",
"-3 -240 OFFCURVE",
"22 -240 QCURVE",
"22 -240 LINE"
);
}
);
width = 258;
}
);
note = j;
unicode = 006A;
},
{
glyphname = k;
lastChange = "2020-03-26 11:01:55 +0000";
layers = (
{
layerId = "CFFEBDE4-599A-46B2-9328-D96E42CD9C81";
paths = (
{
closed = 1;
nodes = (
"85 760 LINE",
"85 0 LINE",
"172 0 LINE",
"172 197 LINE",
"233 250 LINE",
"419 0 LINE",
"525 0 LINE",
"293 307 LINE",
"510 536 LINE",
"407 536 LINE",
"236 355 LINE SMOOTH",
"227 345 OFFCURVE",
"202 314 OFFCURVE",
"178 284 OFFCURVE",
"172 276 QCURVE",
"168 276 LINE",
"169 295 OFFCURVE",
"172 347 OFFCURVE",
"172 363 QCURVE SMOOTH",
"172 760 LINE",
"172 760 LINE"
);
}
);
width = 534;
}
);
leftKerningGroup = b;
note = k;
unicode = 006B;
},
{
glyphname = l;
lastChange = "2020-03-26 11:01:55 +0000";
layers = (
{
layerId = "CFFEBDE4-599A-46B2-9328-D96E42CD9C81";
paths = (
{
closed = 1;
nodes = (
"173 760 LINE",
"85 760 LINE",
"85 0 LINE",
"173 0 LINE",
"173 0 LINE"
);
}
);
width = 258;
}
);
leftKerningGroup = b;
note = l;
unicode = 006C;
},
{
glyphname = m;
lastChange = "2020-03-26 11:01:55 +0000";
layers = (
{
layerId = "CFFEBDE4-599A-46B2-9328-D96E42CD9C81";
paths = (
{
closed = 1;
nodes = (
"621 546 OFFCURVE",
"528 502 OFFCURVE",
"501 456 QCURVE",
"496 456 LINE",
"458 546 OFFCURVE",
"332 546 QCURVE SMOOTH",
"284 546 OFFCURVE",
"199 505 OFFCURVE",
"174 463 QCURVE",
"169 463 LINE",
"156 536 LINE",
"85 536 LINE",
"85 0 LINE",
"173 0 LINE",
"173 278 LINE SMOOTH",
"173 372 OFFCURVE",
"235 472 OFFCURVE",
"316 472 QCURVE SMOOTH",
"426 472 OFFCURVE",
"426 345 QCURVE SMOOTH",
"426 0 LINE",
"513 0 LINE",
"513 296 LINE SMOOTH",
"513 382 OFFCURVE",
"580 472 OFFCURVE",
"658 472 QCURVE SMOOTH",
"767 472 OFFCURVE",
"767 345 QCURVE SMOOTH",
"767 0 LINE",
"854 0 LINE",
"854 349 LINE SMOOTH",
"854 453 OFFCURVE",
"764 546 OFFCURVE",
"673 546 QCURVE",
"673 546 LINE"
);
}
);
width = 935;
}
);
leftKerningGroup = m;
note = m;
rightKerningGroup = a;
unicode = 006D;
},
{
glyphname = n;
lastChange = "2020-03-26 11:01:55 +0000";
layers = (
{
layerId = "CFFEBDE4-599A-46B2-9328-D96E42CD9C81";
paths = (
{
closed = 1;
nodes = (
"292 546 OFFCURVE",
"200 505 OFFCURVE",
"174 463 QCURVE",
"169 463 LINE",
"156 536 LINE",
"85 536 LINE",
"85 0 LINE",
"173 0 LINE",
"173 278 LINE SMOOTH",
"173 372 OFFCURVE",
"241 472 OFFCURVE",
"330 472 QCURVE SMOOTH",
"450 472 OFFCURVE",
"450 343 QCURVE SMOOTH",
"450 0 LINE",
"537 0 LINE",
"537 349 LINE SMOOTH",
"537 453 OFFCURVE",
"439 546 OFFCURVE",
"343 546 QCURVE",
"343 546 LINE"
);
}
);
width = 618;
}
);
leftKerningGroup = m;
note = n;
rightKerningGroup = a;
unicode = 006E;
},
{
glyphname = o;
lastChange = "2020-03-26 11:01:55 +0000";
layers = (
{
layerId = "CFFEBDE4-599A-46B2-9328-D96E42CD9C81";
paths = (
{
closed = 1;
nodes = (
"551 358 OFFCURVE",
"488 481 OFFCURVE",
"377 546 OFFCURVE",
"304 546 QCURVE SMOOTH",
"189 546 OFFCURVE",
"55 402 OFFCURVE",
"55 269 QCURVE SMOOTH",
"55 180 OFFCURVE",
"119 55 OFFCURVE",
"230 -10 OFFCURVE",
"301 -10 QCURVE SMOOTH",
"416 -10 OFFCURVE",
"551 136 OFFCURVE",
"551 269 QCURVE",
"551 269 LINE"
);
},
{
closed = 1;
nodes = (
"146 364 OFFCURVE",
"220 472 OFFCURVE",
"302 472 QCURVE SMOOTH",
"384 472 OFFCURVE",
"460 364 OFFCURVE",
"460 269 QCURVE SMOOTH",
"460 174 OFFCURVE",
"384 63 OFFCURVE",
"303 63 QCURVE SMOOTH",
"221 63 OFFCURVE",
"146 174 OFFCURVE",
"146 269 QCURVE",
"146 269 LINE"
);
}
);
width = 605;
}
);
leftKerningGroup = c;
note = o;
rightKerningGroup = b;
unicode = 006F;
},
{
glyphname = p;
lastChange = "2020-03-26 11:01:55 +0000";
layers = (
{
layerId = "CFFEBDE4-599A-46B2-9328-D96E42CD9C81";
paths = (
{
closed = 1;
nodes = (
"275 546 OFFCURVE",
"197 498 OFFCURVE",
"173 463 QCURVE",
"169 463 LINE",
"157 536 LINE",
"85 536 LINE",
"85 -240 LINE",
"173 -240 LINE",
"173 -20 LINE SMOOTH",
"173 -1 OFFCURVE",
"169 51 OFFCURVE",
"167 68 QCURVE",
"173 68 LINE",
"196 37 OFFCURVE",
"277 -10 OFFCURVE",
"339 -10 QCURVE SMOOTH",
"439 -10 OFFCURVE",
"560 132 OFFCURVE",
"560 269 QCURVE SMOOTH",
"560 408 OFFCURVE",
"439 546 OFFCURVE",
"340 546 QCURVE",
"340 546 LINE"
);
},
{
closed = 1;
nodes = (
"398 472 OFFCURVE",
"469 362 OFFCURVE",
"469 270 QCURVE SMOOTH",
"469 210 OFFCURVE",
"438 117 OFFCURVE",
"375 63 OFFCURVE",
"326 63 QCURVE SMOOTH",
"238 63 OFFCURVE",
"173 170 OFFCURVE",
"173 269 QCURVE SMOOTH",
"173 286 LINE SMOOTH",
"175 380 OFFCURVE",
"242 472 OFFCURVE",
"324 472 QCURVE",
"324 472 LINE"
);
}
);
width = 615;
}
);
leftKerningGroup = m;
note = p;
rightKerningGroup = b;
unicode = 0070;
},
{
glyphname = q;
lastChange = "2020-03-26 11:01:55 +0000";
layers = (
{
layerId = "CFFEBDE4-599A-46B2-9328-D96E42CD9C81";
paths = (
{
closed = 1;
nodes = (
"530 -240 LINE",
"530 536 LINE",
"460 536 LINE",
"447 463 LINE",
"443 463 LINE",
"419 498 OFFCURVE",
"339 546 OFFCURVE",
"276 546 QCURVE SMOOTH",
"178 546 OFFCURVE",
"55 405 OFFCURVE",
"55 267 QCURVE SMOOTH",
"55 129 OFFCURVE",
"176 -10 OFFCURVE",
"273 -10 QCURVE SMOOTH",
"337 -10 OFFCURVE",
"418 38 OFFCURVE",
"441 72 QCURVE",
"447 72 LINE",
"444 55 OFFCURVE",
"442 7 OFFCURVE",
"442 -11 QCURVE SMOOTH",
"442 -240 LINE",
"442 -240 LINE"
);
},
{
closed = 1;
nodes = (
"217 63 OFFCURVE",
"146 170 OFFCURVE",
"146 265 QCURVE SMOOTH",
"146 360 OFFCURVE",
"216 473 OFFCURVE",
"288 473 QCURVE SMOOTH",
"375 473 OFFCURVE",
"443 368 OFFCURVE",
"443 266 QCURVE SMOOTH",
"443 248 LINE SMOOTH",
"442 154 OFFCURVE",
"373 63 OFFCURVE",
"290 63 QCURVE",
"290 63 LINE"
);
}
);
width = 615;
}
);
leftKerningGroup = c;
note = q;
unicode = 0071;
},
{
glyphname = r;
lastChange = "2020-03-26 11:01:55 +0000";
layers = (
{
layerId = "CFFEBDE4-599A-46B2-9328-D96E42CD9C81";
paths = (
{
closed = 1;
nodes = (
"279 546 OFFCURVE",
"197 482 OFFCURVE",
"171 438 QCURVE",
"167 438 LINE",
"157 536 LINE",
"85 536 LINE",
"85 0 LINE",
"173 0 LINE",
"173 286 LINE SMOOTH",
"173 340 OFFCURVE",
"216 421 OFFCURVE",
"288 466 OFFCURVE",
"329 466 QCURVE SMOOTH",
"343 466 OFFCURVE",
"374 462 OFFCURVE",
"387 459 QCURVE",
"398 540 LINE",
"385 543 OFFCURVE",
"350 546 OFFCURVE",
"335 546 QCURVE",
"335 546 LINE"
);
}
);
width = 413;
}
);
leftKerningGroup = m;
note = r;
rightKerningGroup = r;
unicode = 0072;
},
{
glyphname = s;
lastChange = "2020-03-26 11:01:55 +0000";
layers = (
{
layerId = "CFFEBDE4-599A-46B2-9328-D96E42CD9C81";
paths = (
{
closed = 1;
nodes = (
"434 191 OFFCURVE",
"396 248 OFFCURVE",
"324 288 OFFCURVE",
"273 307 QCURVE SMOOTH",
"222 327 OFFCURVE",
"161 356 OFFCURVE",
"135 387 OFFCURVE",
"135 409 QCURVE SMOOTH",
"135 439 OFFCURVE",
"192 474 OFFCURVE",
"246 474 QCURVE SMOOTH",
"285 474 OFFCURVE",
"359 454 OFFCURVE",
"393 440 QCURVE",
"423 510 LINE",
"386 527 OFFCURVE",
"301 546 OFFCURVE",
"252 546 QCURVE SMOOTH",
"162 546 OFFCURVE",
"51 472 OFFCURVE",
"51 404 QCURVE SMOOTH",
"51 360 OFFCURVE",
"91 304 OFFCURVE",
"165 264 OFFCURVE",
"217 244 QCURVE SMOOTH",
"270 224 OFFCURVE",
"327 192 OFFCURVE",
"349 160 OFFCURVE",
"349 140 QCURVE SMOOTH",
"349 104 OFFCURVE",
"289 61 OFFCURVE",
"222 61 QCURVE SMOOTH",
"175 61 OFFCURVE",
"84 88 OFFCURVE",
"52 104 QCURVE",
"52 24 LINE",
"83 8 OFFCURVE",
"164 -10 OFFCURVE",
"220 -10 QCURVE SMOOTH",
"318 -10 OFFCURVE",
"434 70 OFFCURVE",
"434 148 QCURVE",
"434 148 LINE"
);
}
);
width = 479;
}
);
leftKerningGroup = s;
note = s;
unicode = 0073;
},
{
glyphname = t;
lastChange = "2020-03-26 11:01:55 +0000";
layers = (
{
layerId = "CFFEBDE4-599A-46B2-9328-D96E42CD9C81";
paths = (
{
closed = 1;
nodes = (
"227 62 OFFCURVE",
"180 109 OFFCURVE",
"180 158 QCURVE SMOOTH",
"180 468 LINE",
"335 468 LINE",
"335 536 LINE",
"180 536 LINE",
"180 659 LINE",
"128 659 LINE",
"93 545 LINE",
"16 510 LINE",
"16 468 LINE",
"92 468 LINE",
"92 156 LINE SMOOTH",
"92 91 OFFCURVE",
"136 19 OFFCURVE",
"207 -10 OFFCURVE",
"249 -10 QCURVE SMOOTH",
"273 -10 OFFCURVE",
"325 -1 OFFCURVE",
"339 6 QCURVE",
"339 73 LINE",
"326 69 OFFCURVE",
"284 62 OFFCURVE",
"264 62 QCURVE",
"264 62 LINE"
);
}
);
width = 361;
}
);
leftKerningGroup = t;
note = t;
rightKerningGroup = t;
unicode = 0074;
},
{
glyphname = u;
lastChange = "2020-03-26 11:01:55 +0000";
layers = (
{
layerId = "CFFEBDE4-599A-46B2-9328-D96E42CD9C81";
paths = (
{
closed = 1;
nodes = (
"445 536 LINE",
"445 257 LINE SMOOTH",
"445 163 OFFCURVE",
"376 63 OFFCURVE",
"287 63 QCURVE SMOOTH",
"168 63 OFFCURVE",
"168 191 QCURVE SMOOTH",
"168 536 LINE",
"79 536 LINE",
"79 185 LINE SMOOTH",
"79 83 OFFCURVE",
"177 -10 OFFCURVE",
"274 -10 QCURVE SMOOTH",
"326 -10 OFFCURVE",
"418 29 OFFCURVE",
"444 71 QCURVE",
"448 71 LINE",
"461 0 LINE",
"533 0 LINE",
"533 536 LINE",
"533 536 LINE"
);
}
);
width = 618;
}
);
leftKerningGroup = m;
note = u;
unicode = 0075;
},
{
glyphname = v;
lastChange = "2020-03-26 11:01:55 +0000";
layers = (
{
layerId = "CFFEBDE4-599A-46B2-9328-D96E42CD9C81";
paths = (
{
closed = 1;
nodes = (
"304 0 LINE",
"508 536 LINE",
"414 536 LINE",
"300 220 LINE SMOOTH",
"293 199 OFFCURVE",
"274 145 OFFCURVE",
"259 95 OFFCURVE",
"255 78 QCURVE",
"251 78 LINE",
"248 95 OFFCURVE",
"234 144 OFFCURVE",
"216 198 OFFCURVE",
"208 220 QCURVE SMOOTH",
"94 536 LINE",
"0 536 LINE",
"203 0 LINE",
"203 0 LINE"
);
}
);
width = 508;
}
);
leftKerningGroup = v;
note = v;
rightKerningGroup = v;
unicode = 0076;
},
{
glyphname = w;
lastChange = "2020-03-26 11:01:55 +0000";
layers = (
{
layerId = "CFFEBDE4-599A-46B2-9328-D96E42CD9C81";
paths = (
{
closed = 1;
nodes = (
"626 1 LINE",
"775 537 LINE",
"685 537 LINE",
"610 251 LINE SMOOTH",
"598 205 OFFCURVE",
"577 117 OFFCURVE",
"574 92 QCURVE",
"570 92 LINE",
"566 121 OFFCURVE",
"545 201 OFFCURVE",
"534 235 QCURVE SMOOTH",
"442 537 LINE",
"346 537 LINE",
"251 235 LINE SMOOTH",
"244 213 OFFCURVE",
"230 158 OFFCURVE",
"219 108 OFFCURVE",
"215 91 QCURVE",
"211 91 LINE",
"207 120 OFFCURVE",
"187 208 OFFCURVE",
"176 251 QCURVE SMOOTH",
"102 537 LINE",
"11 537 LINE",
"158 1 LINE",
"258 1 LINE",
"354 302 LINE SMOOTH",
"368 344 OFFCURVE",
"386 423 OFFCURVE",
"390 445 QCURVE",
"394 445 LINE",
"399 423 OFFCURVE",
"418 344 OFFCURVE",
"431 303 QCURVE SMOOTH",
"523 1 LINE",
"523 1 LINE"
);
}
);
width = 786;
}
);
leftKerningGroup = v;
note = w;
rightKerningGroup = v;
unicode = 0077;
},
{
glyphname = x;
lastChange = "2020-03-26 11:01:55 +0000";
layers = (
{
layerId = "CFFEBDE4-599A-46B2-9328-D96E42CD9C81";
paths = (
{
closed = 1;
nodes = (
"18 0 LINE",
"117 0 LINE",
"265 214 LINE",
"411 0 LINE",
"511 0 LINE",
"316 274 LINE",
"501 536 LINE",
"402 536 LINE",
"265 334 LINE",
"127 536 LINE",
"27 536 LINE",
"212 274 LINE",
"212 274 LINE"
);
}
);
width = 529;
}
);
leftKerningGroup = v;
note = x;
rightKerningGroup = x;
unicode = 0078;
},
{
glyphname = y;
lastChange = "2020-03-26 11:01:55 +0000";
layers = (
{
layerId = "CFFEBDE4-599A-46B2-9328-D96E42CD9C81";
paths = (
{
closed = 1;
nodes = (
"217 -2 LINE",
"189 -73 LINE SMOOTH",
"173 -116 OFFCURVE",
"116 -168 OFFCURVE",
"70 -168 QCURVE SMOOTH",
"53 -168 OFFCURVE",
"22 -164 OFFCURVE",
"11 -162 QCURVE",
"11 -232 LINE",
"24 -235 OFFCURVE",
"60 -240 OFFCURVE",
"84 -240 QCURVE SMOOTH",
"162 -240 OFFCURVE",
"251 -150 OFFCURVE",
"279 -74 QCURVE SMOOTH",
"510 536 LINE",
"415 536 LINE",
"306 232 LINE SMOOTH",
"292 191 OFFCURVE",
"266 110 OFFCURVE",
"260 85 QCURVE",
"256 85 LINE",
"250 118 OFFCURVE",
"226 191 OFFCURVE",
"211 231 QCURVE SMOOTH",
"95 536 LINE",
"1 536 LINE",
"1 536 LINE"
);
}
);
width = 600;
}
);
leftKerningGroup = v;
note = y;
rightKerningGroup = v;
unicode = 0079;
},
{
glyphname = z;
lastChange = "2020-03-26 11:01:55 +0000";
layers = (
{
layerId = "CFFEBDE4-599A-46B2-9328-D96E42CD9C81";
paths = (
{
closed = 1;
nodes = (
"431 68 LINE",
"140 68 LINE",
"424 470 LINE",
"424 536 LINE",
"56 536 LINE",
"56 468 LINE",
"327 468 LINE",
"39 58 LINE",
"39 0 LINE",
"431 0 LINE",
"431 0 LINE"
);
}
);
width = 470;
}
);
leftKerningGroup = z;
note = z;
unicode = 007A;
},
{
glyphname = zero;
lastChange = "2020-03-26 11:01:55 +0000";
layers = (
{
layerId = "CFFEBDE4-599A-46B2-9328-D96E42CD9C81";
paths = (
{
closed = 1;
nodes = (
"523 532 OFFCURVE",
"405 725 OFFCURVE",
"285 725 QCURVE SMOOTH",
"200 725 OFFCURVE",
"96 638 OFFCURVE",
"49 474 OFFCURVE",
"49 358 QCURVE SMOOTH",
"49 185 OFFCURVE",
"164 -10 OFFCURVE",
"285 -10 QCURVE SMOOTH",
"371 -10 OFFCURVE",
"475 78 OFFCURVE",
"523 243 OFFCURVE",
"523 358 QCURVE",
"523 358 LINE"
);
},
{
closed = 1;
nodes = (
"137 504 OFFCURVE",
"204 650 OFFCURVE",
"285 650 QCURVE SMOOTH",
"365 650 OFFCURVE",
"434 504 OFFCURVE",
"434 358 QCURVE SMOOTH",
"434 210 OFFCURVE",
"365 65 OFFCURVE",
"285 65 QCURVE SMOOTH",
"204 65 OFFCURVE",
"137 211 OFFCURVE",
"137 358 QCURVE",
"137 358 LINE"
);
}
);
width = 572;
}
);
note = zero;
unicode = 0030;
},
{
glyphname = one;
lastChange = "2020-03-26 11:01:55 +0000";
layers = (
{
layerId = "CFFEBDE4-599A-46B2-9328-D96E42CD9C81";
paths = (
{
closed = 1;
nodes = (
"355 714 LINE",
"282 714 LINE",
"89 564 LINE",
"135 505 LINE",
"211 567 LINE SMOOTH",
"231 584 OFFCURVE",
"257 606 OFFCURVE",
"273 622 QCURVE",
"271 594 OFFCURVE",
"269 542 OFFCURVE",
"269 499 QCURVE SMOOTH",
"269 0 LINE",
"355 0 LINE",
"355 0 LINE"
);
}
);
width = 572;
}
);
note = one;
unicode = 0031;
},
{
glyphname = two;
lastChange = "2020-03-26 11:01:55 +0000";
layers = (
{
layerId = "CFFEBDE4-599A-46B2-9328-D96E42CD9C81";
paths = (
{
closed = 1;
nodes = (
"520 80 LINE",
"159 80 LINE",
"159 84 LINE",
"308 231 LINE SMOOTH",
"363 285 OFFCURVE",
"445 380 OFFCURVE",
"491 478 OFFCURVE",
"491 534 QCURVE SMOOTH",
"491 623 OFFCURVE",
"375 724 OFFCURVE",
"275 724 QCURVE SMOOTH",
"207 724 OFFCURVE",
"98 675 OFFCURVE",
"56 640 QCURVE",
"103 581 LINE",
"144 613 OFFCURVE",
"223 649 OFFCURVE",
"275 649 QCURVE SMOOTH",
"331 649 OFFCURVE",
"401 588 OFFCURVE",
"401 529 QCURVE SMOOTH",
"401 481 OFFCURVE",
"363 400 OFFCURVE",
"289 316 OFFCURVE",
"235 262 QCURVE SMOOTH",
"48 73 LINE",
"48 0 LINE",
"520 0 LINE",
"520 0 LINE"
);
}
);
width = 572;
}
);
note = two;
unicode = 0032;
},
{
glyphname = three;
lastChange = "2020-03-26 11:01:55 +0000";
layers = (
{
layerId = "CFFEBDE4-599A-46B2-9328-D96E42CD9C81";
paths = (
{
closed = 1;
nodes = (
"493 624 OFFCURVE",
"384 724 OFFCURVE",
"272 724 QCURVE SMOOTH",
"200 724 OFFCURVE",
"87 680 OFFCURVE",
"49 650 QCURVE",
"93 590 LINE",
"133 616 OFFCURVE",
"215 650 OFFCURVE",
"273 650 QCURVE SMOOTH",
"333 650 OFFCURVE",
"403 593 OFFCURVE",
"403 541 QCURVE SMOOTH",
"403 480 OFFCURVE",
"312 406 OFFCURVE",
"224 406 QCURVE SMOOTH",
"154 406 LINE",
"154 331 LINE",
"223 331 LINE SMOOTH",
"318 331 OFFCURVE",
"423 272 OFFCURVE",
"423 205 QCURVE SMOOTH",
"423 139 OFFCURVE",
"338 64 OFFCURVE",
"242 64 QCURVE SMOOTH",
"194 64 OFFCURVE",
"90 89 OFFCURVE",
"45 111 QCURVE",
"45 29 LINE",
"89 7 OFFCURVE",
"185 -10 OFFCURVE",
"241 -10 QCURVE SMOOTH",
"336 -10 OFFCURVE",
"457 44 OFFCURVE",
"515 141 OFFCURVE",
"515 203 QCURVE SMOOTH",
"515 274 OFFCURVE",
"431 362 OFFCURVE",
"345 372 QCURVE",
"345 376 LINE",
"413 390 OFFCURVE",
"493 475 OFFCURVE",
"493 547 QCURVE",
"493 547 LINE"
);
}
);
width = 572;
}
);
note = three;
unicode = 0033;
},
{
glyphname = four;
lastChange = "2020-03-26 11:01:55 +0000";
layers = (
{
layerId = "CFFEBDE4-599A-46B2-9328-D96E42CD9C81";
paths = (
{
closed = 1;
nodes = (
"552 241 LINE",
"448 241 LINE",
"448 718 LINE",
"357 718 LINE",
"21 237 LINE",
"21 162 LINE",
"363 162 LINE",
"363 0 LINE",
"448 0 LINE",
"448 162 LINE",
"552 162 LINE",
"552 162 LINE"
);
},
{
closed = 1;
nodes = (
"107 241 LINE",
"321 546 LINE SMOOTH",
"332 561 OFFCURVE",
"356 605 OFFCURVE",
"364 624 QCURVE",
"368 624 LINE",
"367 591 OFFCURVE",
"363 518 OFFCURVE",
"363 466 QCURVE SMOOTH",
"363 241 LINE",
"363 241 LINE"
);
}
);
width = 572;
}
);
note = four;
unicode = 0034;
},
{
glyphname = five;
lastChange = "2020-03-26 11:01:55 +0000";
layers = (
{
layerId = "CFFEBDE4-599A-46B2-9328-D96E42CD9C81";
paths = (
{
closed = 1;
nodes = (
"240 438 OFFCURVE",
"182 430 OFFCURVE",
"165 427 QCURVE",
"182 634 LINE",
"465 634 LINE",
"465 714 LINE",
"107 714 LINE",
"80 377 LINE",
"124 349 LINE",
"146 354 OFFCURVE",
"218 364 OFFCURVE",
"246 364 QCURVE SMOOTH",
"339 364 OFFCURVE",
"425 289 OFFCURVE",
"425 219 QCURVE SMOOTH",
"425 140 OFFCURVE",
"328 65 OFFCURVE",
"249 65 QCURVE SMOOTH",
"202 65 OFFCURVE",
"99 90 OFFCURVE",
"63 112 QCURVE",
"63 29 LINE",
"96 10 OFFCURVE",
"193 -10 OFFCURVE",
"248 -10 QCURVE SMOOTH",
"374 -10 OFFCURVE",
"515 117 OFFCURVE",
"515 228 QCURVE SMOOTH",
"515 328 OFFCURVE",
"385 438 OFFCURVE",
"275 438 QCURVE",
"275 438 LINE"
);
}
);
width = 572;
}
);
note = five;
unicode = 0035;
},
{
glyphname = six;
lastChange = "2020-03-26 11:01:55 +0000";
layers = (
{
layerId = "CFFEBDE4-599A-46B2-9328-D96E42CD9C81";
paths = (
{
closed = 1;
nodes = (
"55 198 OFFCURVE",
"120 58 OFFCURVE",
"230 -10 OFFCURVE",
"298 -10 QCURVE SMOOTH",
"402 -10 OFFCURVE",
"525 118 OFFCURVE",
"525 230 QCURVE SMOOTH",
"525 334 OFFCURVE",
"411 447 OFFCURVE",
"318 447 QCURVE SMOOTH",
"254 447 OFFCURVE",
"172 398 OFFCURVE",
"149 363 QCURVE",
"143 363 LINE",
"146 422 OFFCURVE",
"170 526 OFFCURVE",
"223 606 OFFCURVE",
"315 652 OFFCURVE",
"384 652 QCURVE SMOOTH",
"407 652 OFFCURVE",
"452 646 OFFCURVE",
"470 640 QCURVE",
"470 715 LINE",
"454 720 OFFCURVE",
"403 724 OFFCURVE",
"382 724 QCURVE SMOOTH",
"281 724 OFFCURVE",
"153 652 OFFCURVE",
"82 531 OFFCURVE",
"55 382 OFFCURVE",
"55 305 QCURVE",
"55 305 LINE"
);
},
{
closed = 1;
nodes = (
"246 64 OFFCURVE",
"178 119 OFFCURVE",
"144 204 OFFCURVE",
"144 247 QCURVE SMOOTH",
"144 279 OFFCURVE",
"183 339 OFFCURVE",
"253 378 OFFCURVE",
"300 378 QCURVE SMOOTH",
"369 378 OFFCURVE",
"438 298 OFFCURVE",
"438 230 QCURVE SMOOTH",
"438 145 OFFCURVE",
"360 64 OFFCURVE",
"297 64 QCURVE",
"297 64 LINE"
);
}
);
width = 572;
}
);
note = six;
unicode = 0036;
},
{
glyphname = seven;
lastChange = "2020-03-26 11:01:55 +0000";
layers = (
{
layerId = "CFFEBDE4-599A-46B2-9328-D96E42CD9C81";
paths = (
{
closed = 1;
nodes = (
"233 0 LINE",
"523 646 LINE",
"523 714 LINE",
"44 714 LINE",
"44 634 LINE",
"429 634 LINE",
"136 0 LINE",
"136 0 LINE"
);
}
);
width = 572;
}
);
note = seven;
unicode = 0037;
},
{
glyphname = eight;
lastChange = "2020-03-26 11:01:55 +0000";
layers = (
{
layerId = "CFFEBDE4-599A-46B2-9328-D96E42CD9C81";
paths = (
{
closed = 1;
nodes = (
"224 724 OFFCURVE",
"128 684 OFFCURVE",
"72 609 OFFCURVE",
"72 554 QCURVE SMOOTH",
"72 488 OFFCURVE",
"145 403 OFFCURVE",
"197 373 QCURVE",
"158 355 OFFCURVE",
"90 303 OFFCURVE",
"49 231 OFFCURVE",
"49 182 QCURVE SMOOTH",
"49 91 OFFCURVE",
"173 -10 OFFCURVE",
"288 -10 QCURVE SMOOTH",
"395 -10 OFFCURVE",
"522 95 OFFCURVE",
"522 185 QCURVE SMOOTH",
"522 234 OFFCURVE",
"479 304 OFFCURVE",
"407 357 OFFCURVE",
"363 378 QCURVE",
"400 397 OFFCURVE",
"462 446 OFFCURVE",
"499 510 OFFCURVE",
"499 553 QCURVE SMOOTH",
"499 636 OFFCURVE",
"379 724 OFFCURVE",
"285 724 QCURVE",
"285 724 LINE"
);
},
{
closed = 1;
nodes = (
"342 653 OFFCURVE",
"412 600 OFFCURVE",
"412 550 QCURVE SMOOTH",
"412 496 OFFCURVE",
"341 434 OFFCURVE",
"289 412 QCURVE",
"253 428 OFFCURVE",
"193 463 OFFCURVE",
"158 513 OFFCURVE",
"158 550 QCURVE SMOOTH",
"158 600 OFFCURVE",
"229 653 OFFCURVE",
"284 653 QCURVE",
"284 653 LINE"
);
},
{
closed = 1;
nodes = (
"135 236 OFFCURVE",
"204 309 OFFCURVE",
"270 337 QCURVE",
"286 331 LINE SMOOTH",
"354 305 OFFCURVE",
"436 236 OFFCURVE",
"436 184 QCURVE SMOOTH",
"436 129 OFFCURVE",
"359 60 OFFCURVE",
"286 60 QCURVE SMOOTH",
"209 60 OFFCURVE",
"135 129 OFFCURVE",
"135 181 QCURVE",
"135 181 LINE"
);
}
);
width = 572;
}
);
note = eight;
unicode = 0038;
},
{
glyphname = nine;
lastChange = "2020-03-26 11:01:55 +0000";
layers = (
{
layerId = "CFFEBDE4-599A-46B2-9328-D96E42CD9C81";
paths = (
{
closed = 1;
nodes = (
"520 516 OFFCURVE",
"456 655 OFFCURVE",
"346 724 OFFCURVE",
"278 724 QCURVE SMOOTH",
"209 724 OFFCURVE",
"107 666 OFFCURVE",
"50 558 OFFCURVE",
"50 483 QCURVE SMOOTH",
"50 380 OFFCURVE",
"163 267 OFFCURVE",
"255 267 QCURVE SMOOTH",
"320 267 OFFCURVE",
"403 316 OFFCURVE",
"425 350 QCURVE",
"431 350 LINE",
"429 292 OFFCURVE",
"405 187 OFFCURVE",
"351 108 OFFCURVE",
"260 62 OFFCURVE",
"190 62 QCURVE SMOOTH",
"141 62 OFFCURVE",
"102 75 QCURVE",
"102 0 LINE",
"119 -5 OFFCURVE",
"172 -10 OFFCURVE",
"192 -10 QCURVE SMOOTH",
"293 -10 OFFCURVE",
"422 62 OFFCURVE",
"493 183 OFFCURVE",
"520 332 OFFCURVE",
"520 409 QCURVE",
"520 409 LINE"
);
},
{
closed = 1;
nodes = (
"329 650 OFFCURVE",
"397 594 OFFCURVE",
"431 510 OFFCURVE",
"431 467 QCURVE SMOOTH",
"431 435 OFFCURVE",
"392 375 OFFCURVE",
"322 336 OFFCURVE",
"274 336 QCURVE SMOOTH",
"204 336 OFFCURVE",
"137 415 OFFCURVE",
"137 484 QCURVE SMOOTH",
"137 568 OFFCURVE",
"216 650 OFFCURVE",
"278 650 QCURVE",
"278 650 LINE"
);
}
);
width = 572;
}
);
note = nine;
unicode = 0039;
},
{
glyphname = period;
lastChange = "2020-03-26 11:01:55 +0000";
layers = (
{
layerId = "CFFEBDE4-599A-46B2-9328-D96E42CD9C81";
paths = (
{
closed = 1;
nodes = (
"72 18 OFFCURVE",
"108 -14 OFFCURVE",
"133 -14 QCURVE SMOOTH",
"159 -14 OFFCURVE",
"196 18 OFFCURVE",
"196 54 QCURVE SMOOTH",
"196 91 OFFCURVE",
"159 121 OFFCURVE",
"133 121 QCURVE SMOOTH",
"108 121 OFFCURVE",
"72 91 OFFCURVE",
"72 54 QCURVE",
"72 54 LINE"
);
}
);
width = 268;
}
);
leftKerningGroup = comma;
note = period;
rightKerningGroup = comma;
unicode = 002E;
},
{
glyphname = comma;
lastChange = "2020-03-26 11:01:55 +0000";
layers = (
{
layerId = "CFFEBDE4-599A-46B2-9328-D96E42CD9C81";
paths = (
{
closed = 1;
nodes = (
"91 116 LINE",
"84 64 OFFCURVE",
"55 -72 OFFCURVE",
"41 -129 QCURVE",
"106 -129 LINE",
"130 -75 OFFCURVE",
"179 52 OFFCURVE",
"192 105 QCURVE",
"185 116 LINE",
"185 116 LINE"
);
}
);
width = 268;
}
);
leftKerningGroup = comma;
note = comma;
rightKerningGroup = comma;
unicode = 002C;
},
{
glyphname = hyphen;
lastChange = "2020-03-26 11:01:55 +0000";
layers = (
{
layerId = "CFFEBDE4-599A-46B2-9328-D96E42CD9C81";
paths = (
{
closed = 1;
nodes = (
"282 229 LINE",
"282 307 LINE",
"40 307 LINE",
"40 229 LINE",
"40 229 LINE"
);
}
);
width = 322;
}
);
leftKerningGroup = hyphen;
note = hyphen;
rightKerningGroup = hyphen;
unicode = 002D;
},
{
glyphname = .notdef;
lastChange = "2020-03-26 11:01:55 +0000";
layers = (
{
associatedMasterId = "CFFEBDE4-599A-46B2-9328-D96E42CD9C81";
layerId = "0A718E2F-231D-484E-9433-16A5230D2CE8";
name = Bold;
paths = (
{
closed = 1;
nodes = (
"496 0 LINE",
"496 714 LINE",
"85 714 LINE",
"85 0 LINE"
);
},
{
closed = 1;
nodes = (
"136 663 LINE",
"445 663 LINE",
"445 51 LINE",
"136 51 LINE"
);
}
);
width = 582;
},
{
associatedMasterId = "CFFEBDE4-599A-46B2-9328-D96E42CD9C81";
layerId = "98E204A9-1C79-49C7-AB3E-40A925F56409";
name = "Bold Condensed";
paths = (
{
closed = 1;
nodes = (
"496 0 LINE",
"496 714 LINE",
"85 714 LINE",
"85 0 LINE"
);
},
{
closed = 1;
nodes = (
"136 663 LINE",
"445 663 LINE",
"445 51 LINE",
"136 51 LINE"
);
}
);
width = 582;
},
{
associatedMasterId = "CFFEBDE4-599A-46B2-9328-D96E42CD9C81";
layerId = "9FF96064-8718-4A86-A5C8-73C592101F67";
name = Regular;
paths = (
{
closed = 1;
nodes = (
"505 0 LINE",
"505 714 LINE",
"94 714 LINE",
"94 0 LINE"
);
},
{
closed = 1;
nodes = (
"145 663 LINE",
"454 663 LINE",
"454 51 LINE",
"145 51 LINE"
);
}
);
width = 600;
},
{
associatedMasterId = "CFFEBDE4-599A-46B2-9328-D96E42CD9C81";
layerId = "134B12F2-BF5D-48E3-8003-C7502B438C7E";
name = SemiBold;
paths = (
{
closed = 1;
nodes = (
"505 0 LINE",
"505 714 LINE",
"94 714 LINE",
"94 0 LINE"
);
},
{
closed = 1;
nodes = (
"145 663 LINE",
"454 663 LINE",
"454 51 LINE",
"145 51 LINE"
);
}
);
width = 600;
},
{
associatedMasterId = "CFFEBDE4-599A-46B2-9328-D96E42CD9C81";
layerId = "36F3C8CB-53EE-4548-BFDE-2C03212BACAA";
name = Condensed;
paths = (
{
closed = 1;
nodes = (
"496 0 LINE",
"496 714 LINE",
"85 714 LINE",
"85 0 LINE"
);
},
{
closed = 1;
nodes = (
"136 663 LINE",
"445 663 LINE",
"445 51 LINE",
"136 51 LINE"
);
}
);
width = 595;
},
{
associatedMasterId = "CFFEBDE4-599A-46B2-9328-D96E42CD9C81";
layerId = "43B45EC1-5522-4B1A-B0C7-88628E50A583";
name = "SemiBold Condensed";
paths = (
{
closed = 1;
nodes = (
"496 0 LINE",
"496 714 LINE",
"85 714 LINE",
"85 0 LINE"
);
},
{
closed = 1;
nodes = (
"136 663 LINE",
"445 663 LINE",
"445 51 LINE",
"136 51 LINE"
);
}
);
width = 587;
},
{
layerId = "CFFEBDE4-599A-46B2-9328-D96E42CD9C81";
paths = (
{
closed = 1;
nodes = (
"505 0 LINE",
"505 714 LINE",
"94 714 LINE",
"94 0 LINE",
"94 0 LINE"
);
},
{
closed = 1;
nodes = (
"145 663 LINE",
"454 663 LINE",
"454 51 LINE",
"145 51 LINE",
"145 51 LINE"
);
}
);
userData = {
assembly = "NPUSHB[ ]	/* 39 values pushed */\0120 0 0 3 2 0 3 103 0 2 1 1 2 87 0 2 2 1 95 4 1 1 2 1 79 0 0 7 6 5 4 0 3 0 3 17 5 6 23 \012CALL[ ]	/* CallFunction */";
};
width = 600;
},
{
associatedMasterId = "CFFEBDE4-599A-46B2-9328-D96E42CD9C81";
layerId = "029FEF0C-5FA4-4A3E-AC23-838A1147A554";
name = "Light Condensed";
paths = (
{
closed = 1;
nodes = (
"496 0 LINE",
"496 714 LINE",
"85 714 LINE",
"85 0 LINE"
);
},
{
closed = 1;
nodes = (
"136 663 LINE",
"445 663 LINE",
"445 51 LINE",
"136 51 LINE"
);
}
);
width = 600;
},
{
associatedMasterId = "CFFEBDE4-599A-46B2-9328-D96E42CD9C81";
layerId = "6CD3EE05-C8AD-47E9-A0AE-B645441B0163";
name = Regular;
paths = (
{
closed = 1;
nodes = (
"496 0 LINE",
"496 714 LINE",
"85 714 LINE",
"85 0 LINE"
);
},
{
closed = 1;
nodes = (
"136 663 LINE",
"445 663 LINE",
"445 51 LINE",
"136 51 LINE"
);
}
);
width = 582;
},
{
associatedMasterId = "CFFEBDE4-599A-46B2-9328-D96E42CD9C81";
layerId = "4BA813F0-6E24-42D1-9A84-D42DCF76A6FD";
name = Regular;
paths = (
{
closed = 1;
nodes = (
"496 0 LINE",
"496 714 LINE",
"85 714 LINE",
"85 0 LINE"
);
},
{
closed = 1;
nodes = (
"136 663 LINE",
"445 663 LINE",
"445 51 LINE",
"136 51 LINE"
);
}
);
width = 582;
},
{
associatedMasterId = "CFFEBDE4-599A-46B2-9328-D96E42CD9C81";
layerId = "11C7202F-BDE1-4540-9196-841830120CA8";
name = Regular;
paths = (
{
closed = 1;
nodes = (
"505 0 LINE",
"505 714 LINE",
"94 714 LINE",
"94 0 LINE"
);
},
{
closed = 1;
nodes = (
"145 663 LINE",
"454 663 LINE",
"454 51 LINE",
"145 51 LINE"
);
}
);
width = 600;
},
{
associatedMasterId = "CFFEBDE4-599A-46B2-9328-D96E42CD9C81";
layerId = "5D16F8A9-2BA9-47A0-99C6-C9F3EBB274A0";
name = Regular;
paths = (
{
closed = 1;
nodes = (
"505 0 LINE",
"505 714 LINE",
"94 714 LINE",
"94 0 LINE"
);
},
{
closed = 1;
nodes = (
"145 663 LINE",
"454 663 LINE",
"454 51 LINE",
"145 51 LINE"
);
}
);
width = 600;
},
{
associatedMasterId = "CFFEBDE4-599A-46B2-9328-D96E42CD9C81";
layerId = "444C4D7B-BB42-46E5-A210-3251DB2C5DF7";
name = Regular;
paths = (
{
closed = 1;
nodes = (
"496 0 LINE",
"496 714 LINE",
"85 714 LINE",
"85 0 LINE"
);
},
{
closed = 1;
nodes = (
"136 663 LINE",
"445 663 LINE",
"445 51 LINE",
"136 51 LINE"
);
}
);
width = 595;
},
{
associatedMasterId = "CFFEBDE4-599A-46B2-9328-D96E42CD9C81";
layerId = "D00C89AE-1924-40D7-BCB8-50F6B6FF00C9";
name = Regular;
paths = (
{
closed = 1;
nodes = (
"496 0 LINE",
"496 714 LINE",
"85 714 LINE",
"85 0 LINE"
);
},
{
closed = 1;
nodes = (
"136 663 LINE",
"445 663 LINE",
"445 51 LINE",
"136 51 LINE"
);
}
);
width = 587;
},
{
associatedMasterId = "CFFEBDE4-599A-46B2-9328-D96E42CD9C81";
layerId = "0C04772A-F31D-4E86-90EF-3402D1EA39CA";
name = Regular;
paths = (
{
closed = 1;
nodes = (
"505 0 LINE",
"505 714 LINE",
"94 714 LINE",
"94 0 LINE"
);
},
{
closed = 1;
nodes = (
"145 663 LINE",
"454 663 LINE",
"454 51 LINE",
"145 51 LINE"
);
}
);
width = 600;
},
{
associatedMasterId = "CFFEBDE4-599A-46B2-9328-D96E42CD9C81";
layerId = "E44A1C33-4DA7-464B-9CD1-E803182C2B8E";
name = Regular;
paths = (
{
closed = 1;
nodes = (
"496 0 LINE",
"496 714 LINE",
"85 714 LINE",
"85 0 LINE"
);
},
{
closed = 1;
nodes = (
"136 663 LINE",
"445 663 LINE",
"445 51 LINE",
"136 51 LINE"
);
}
);
width = 600;
},
{
associatedMasterId = "CFFEBDE4-599A-46B2-9328-D96E42CD9C81";
layerId = "6CD769E4-BA55-4180-AEEB-BBFB0FE71E60";
name = SemiBold;
paths = (
{
closed = 1;
nodes = (
"496 0 LINE",
"496 714 LINE",
"85 714 LINE",
"85 0 LINE"
);
},
{
closed = 1;
nodes = (
"136 663 LINE",
"445 663 LINE",
"445 51 LINE",
"136 51 LINE"
);
}
);
width = 582;
},
{
associatedMasterId = "CFFEBDE4-599A-46B2-9328-D96E42CD9C81";
layerId = "B72AC865-DCE2-4021-9F6A-E52C2F7C36C3";
name = SemiBold;
paths = (
{
closed = 1;
nodes = (
"496 0 LINE",
"496 714 LINE",
"85 714 LINE",
"85 0 LINE"
);
},
{
closed = 1;
nodes = (
"136 663 LINE",
"445 663 LINE",
"445 51 LINE",
"136 51 LINE"
);
}
);
width = 582;
},
{
associatedMasterId = "CFFEBDE4-599A-46B2-9328-D96E42CD9C81";
layerId = "73144C29-A3E1-435F-A101-12EB16795B90";
name = SemiBold;
paths = (
{
closed = 1;
nodes = (
"505 0 LINE",
"505 714 LINE",
"94 714 LINE",
"94 0 LINE"
);
},
{
closed = 1;
nodes = (
"145 663 LINE",
"454 663 LINE",
"454 51 LINE",
"145 51 LINE"
);
}
);
width = 600;
},
{
associatedMasterId = "CFFEBDE4-599A-46B2-9328-D96E42CD9C81";
layerId = "18CF4588-85AB-4745-818C-09CE36B775D2";
name = SemiBold;
paths = (
{
closed = 1;
nodes = (
"505 0 LINE",
"505 714 LINE",
"94 714 LINE",
"94 0 LINE"
);
},
{
closed = 1;
nodes = (
"145 663 LINE",
"454 663 LINE",
"454 51 LINE",
"145 51 LINE"
);
}
);
width = 600;
},
{
associatedMasterId = "CFFEBDE4-599A-46B2-9328-D96E42CD9C81";
layerId = "686EB0C4-EABE-4AD7-86BC-00ECD1BF7E9E";
name = SemiBold;
paths = (
{
closed = 1;
nodes = (
"496 0 LINE",
"496 714 LINE",
"85 714 LINE",
"85 0 LINE"
);
},
{
closed = 1;
nodes = (
"136 663 LINE",
"445 663 LINE",
"445 51 LINE",
"136 51 LINE"
);
}
);
width = 595;
},
{
associatedMasterId = "CFFEBDE4-599A-46B2-9328-D96E42CD9C81";
layerId = "E5BC6AAC-6572-4494-8CA4-C3D39E7EACEC";
name = SemiBold;
paths = (
{
closed = 1;
nodes = (
"496 0 LINE",
"496 714 LINE",
"85 714 LINE",
"85 0 LINE"
);
},
{
closed = 1;
nodes = (
"136 663 LINE",
"445 663 LINE",
"445 51 LINE",
"136 51 LINE"
);
}
);
width = 587;
},
{
associatedMasterId = "CFFEBDE4-599A-46B2-9328-D96E42CD9C81";
layerId = "206B8059-80C9-426C-870D-7DCC5D63B771";
name = SemiBold;
paths = (
{
closed = 1;
nodes = (
"505 0 LINE",
"505 714 LINE",
"94 714 LINE",
"94 0 LINE"
);
},
{
closed = 1;
nodes = (
"145 663 LINE",
"454 663 LINE",
"454 51 LINE",
"145 51 LINE"
);
}
);
width = 600;
},
{
associatedMasterId = "CFFEBDE4-599A-46B2-9328-D96E42CD9C81";
layerId = "8CA70734-D081-4BD8-AD2F-7C5E13D31257";
name = SemiBold;
paths = (
{
closed = 1;
nodes = (
"496 0 LINE",
"496 714 LINE",
"85 714 LINE",
"85 0 LINE"
);
},
{
closed = 1;
nodes = (
"136 663 LINE",
"445 663 LINE",
"445 51 LINE",
"136 51 LINE"
);
}
);
width = 600;
},
{
associatedMasterId = "CFFEBDE4-599A-46B2-9328-D96E42CD9C81";
layerId = "6D228CAF-D3D7-4333-A99C-26716E667E2A";
name = Bold;
paths = (
{
closed = 1;
nodes = (
"496 0 LINE",
"496 714 LINE",
"85 714 LINE",
"85 0 LINE"
);
},
{
closed = 1;
nodes = (
"136 663 LINE",
"445 663 LINE",
"445 51 LINE",
"136 51 LINE"
);
}
);
width = 582;
},
{
associatedMasterId = "CFFEBDE4-599A-46B2-9328-D96E42CD9C81";
layerId = "0F275DA8-301B-4F20-BD77-158CA365DF6E";
name = Bold;
paths = (
{
closed = 1;
nodes = (
"496 0 LINE",
"496 714 LINE",
"85 714 LINE",
"85 0 LINE"
);
},
{
closed = 1;
nodes = (
"136 663 LINE",
"445 663 LINE",
"445 51 LINE",
"136 51 LINE"
);
}
);
width = 582;
},
{
associatedMasterId = "CFFEBDE4-599A-46B2-9328-D96E42CD9C81";
layerId = "D46BE755-DD9E-4EEB-B458-600115B36096";
name = Bold;
paths = (
{
closed = 1;
nodes = (
"505 0 LINE",
"505 714 LINE",
"94 714 LINE",
"94 0 LINE"
);
},
{
closed = 1;
nodes = (
"145 663 LINE",
"454 663 LINE",
"454 51 LINE",
"145 51 LINE"
);
}
);
width = 600;
},
{
associatedMasterId = "CFFEBDE4-599A-46B2-9328-D96E42CD9C81";
layerId = "7FE48EA0-3A2C-4D49-ABA4-E32E78AB57C1";
name = Bold;
paths = (
{
closed = 1;
nodes = (
"505 0 LINE",
"505 714 LINE",
"94 714 LINE",
"94 0 LINE"
);
},
{
closed = 1;
nodes = (
"145 663 LINE",
"454 663 LINE",
"454 51 LINE",
"145 51 LINE"
);
}
);
width = 600;
},
{
associatedMasterId = "CFFEBDE4-599A-46B2-9328-D96E42CD9C81";
layerId = "0C5F2DE2-4894-433A-AF78-14A7760305F4";
name = Bold;
paths = (
{
closed = 1;
nodes = (
"496 0 LINE",
"496 714 LINE",
"85 714 LINE",
"85 0 LINE"
);
},
{
closed = 1;
nodes = (
"136 663 LINE",
"445 663 LINE",
"445 51 LINE",
"136 51 LINE"
);
}
);
width = 595;
},
{
associatedMasterId = "CFFEBDE4-599A-46B2-9328-D96E42CD9C81";
layerId = "218C21A7-D612-4AB3-84F9-0D3A7F75CFA6";
name = Bold;
paths = (
{
closed = 1;
nodes = (
"496 0 LINE",
"496 714 LINE",
"85 714 LINE",
"85 0 LINE"
);
},
{
closed = 1;
nodes = (
"136 663 LINE",
"445 663 LINE",
"445 51 LINE",
"136 51 LINE"
);
}
);
width = 587;
},
{
associatedMasterId = "CFFEBDE4-599A-46B2-9328-D96E42CD9C81";
layerId = "3FB868F8-5CDC-4A46-BA32-95627737ABE0";
name = Bold;
paths = (
{
closed = 1;
nodes = (
"505 0 LINE",
"505 714 LINE",
"94 714 LINE",
"94 0 LINE"
);
},
{
closed = 1;
nodes = (
"145 663 LINE",
"454 663 LINE",
"454 51 LINE",
"145 51 LINE"
);
}
);
width = 600;
},
{
associatedMasterId = "CFFEBDE4-599A-46B2-9328-D96E42CD9C81";
layerId = "5BFF9FCA-B510-42EF-B974-4F4703A3DF37";
name = Bold;
paths = (
{
closed = 1;
nodes = (
"496 0 LINE",
"496 714 LINE",
"85 714 LINE",
"85 0 LINE"
);
},
{
closed = 1;
nodes = (
"136 663 LINE",
"445 663 LINE",
"445 51 LINE",
"136 51 LINE"
);
}
);
width = 600;
},
{
associatedMasterId = "CFFEBDE4-599A-46B2-9328-D96E42CD9C81";
layerId = "10F16149-C491-4EC1-A76D-4B0D82B949A8";
name = "Light Condensed";
paths = (
{
closed = 1;
nodes = (
"496 0 LINE",
"496 714 LINE",
"85 714 LINE",
"85 0 LINE"
);
},
{
closed = 1;
nodes = (
"136 663 LINE",
"445 663 LINE",
"445 51 LINE",
"136 51 LINE"
);
}
);
width = 582;
},
{
associatedMasterId = "CFFEBDE4-599A-46B2-9328-D96E42CD9C81";
layerId = "72186310-A4A1-43C8-93EC-DE7F7E0C04DC";
name = "Light Condensed";
paths = (
{
closed = 1;
nodes = (
"496 0 LINE",
"496 714 LINE",
"85 714 LINE",
"85 0 LINE"
);
},
{
closed = 1;
nodes = (
"136 663 LINE",
"445 663 LINE",
"445 51 LINE",
"136 51 LINE"
);
}
);
width = 582;
},
{
associatedMasterId = "CFFEBDE4-599A-46B2-9328-D96E42CD9C81";
layerId = "3AA2D878-A039-41E2-8382-305C1EBDDC14";
name = "Light Condensed";
paths = (
{
closed = 1;
nodes = (
"505 0 LINE",
"505 714 LINE",
"94 714 LINE",
"94 0 LINE"
);
},
{
closed = 1;
nodes = (
"145 663 LINE",
"454 663 LINE",
"454 51 LINE",
"145 51 LINE"
);
}
);
width = 600;
},
{
associatedMasterId = "CFFEBDE4-599A-46B2-9328-D96E42CD9C81";
layerId = "910244F3-C233-4E50-A821-AC6322E08668";
name = "Light Condensed";
paths = (
{
closed = 1;
nodes = (
"505 0 LINE",
"505 714 LINE",
"94 714 LINE",
"94 0 LINE"
);
},
{
closed = 1;
nodes = (
"145 663 LINE",
"454 663 LINE",
"454 51 LINE",
"145 51 LINE"
);
}
);
width = 600;
},
{
associatedMasterId = "CFFEBDE4-599A-46B2-9328-D96E42CD9C81";
layerId = "3D21177B-E83B-427F-9FBC-21300ED8A213";
name = "Light Condensed";
paths = (
{
closed = 1;
nodes = (
"496 0 LINE",
"496 714 LINE",
"85 714 LINE",
"85 0 LINE"
);
},
{
closed = 1;
nodes = (
"136 663 LINE",
"445 663 LINE",
"445 51 LINE",
"136 51 LINE"
);
}
);
width = 595;
},
{
associatedMasterId = "CFFEBDE4-599A-46B2-9328-D96E42CD9C81";
layerId = "4355EC66-3F59-4296-9F4C-72EC0B481B5D";
name = "Light Condensed";
paths = (
{
closed = 1;
nodes = (
"496 0 LINE",
"496 714 LINE",
"85 714 LINE",
"85 0 LINE"
);
},
{
closed = 1;
nodes = (
"136 663 LINE",
"445 663 LINE",
"445 51 LINE",
"136 51 LINE"
);
}
);
width = 587;
},
{
associatedMasterId = "CFFEBDE4-599A-46B2-9328-D96E42CD9C81";
layerId = "BD31AAF9-E65B-4A30-ACC0-7018B0C27C60";
name = "Light Condensed";
paths = (
{
closed = 1;
nodes = (
"505 0 LINE",
"505 714 LINE",
"94 714 LINE",
"94 0 LINE"
);
},
{
closed = 1;
nodes = (
"145 663 LINE",
"454 663 LINE",
"454 51 LINE",
"145 51 LINE"
);
}
);
width = 600;
},
{
associatedMasterId = "CFFEBDE4-599A-46B2-9328-D96E42CD9C81";
layerId = "D77228BB-6669-4F59-82EB-EFDED494D297";
name = "Light Condensed";
paths = (
{
closed = 1;
nodes = (
"496 0 LINE",
"496 714 LINE",
"85 714 LINE",
"85 0 LINE"
);
},
{
closed = 1;
nodes = (
"136 663 LINE",
"445 663 LINE",
"445 51 LINE",
"136 51 LINE"
);
}
);
width = 600;
},
{
associatedMasterId = "CFFEBDE4-599A-46B2-9328-D96E42CD9C81";
layerId = "81F4823B-D69E-4E11-86B2-52E1D1CABD54";
name = Condensed;
paths = (
{
closed = 1;
nodes = (
"496 0 LINE",
"496 714 LINE",
"85 714 LINE",
"85 0 LINE"
);
},
{
closed = 1;
nodes = (
"136 663 LINE",
"445 663 LINE",
"445 51 LINE",
"136 51 LINE"
);
}
);
width = 582;
},
{
associatedMasterId = "CFFEBDE4-599A-46B2-9328-D96E42CD9C81";
layerId = "1ACF29D9-9C6C-45FA-8C10-238DD2AA8ADF";
name = Condensed;
paths = (
{
closed = 1;
nodes = (
"496 0 LINE",
"496 714 LINE",
"85 714 LINE",
"85 0 LINE"
);
},
{
closed = 1;
nodes = (
"136 663 LINE",
"445 663 LINE",
"445 51 LINE",
"136 51 LINE"
);
}
);
width = 582;
},
{
associatedMasterId = "CFFEBDE4-599A-46B2-9328-D96E42CD9C81";
layerId = "A823C984-E080-4BD5-A1B6-02506CC81AD1";
name = Condensed;
paths = (
{
closed = 1;
nodes = (
"505 0 LINE",
"505 714 LINE",
"94 714 LINE",
"94 0 LINE"
);
},
{
closed = 1;
nodes = (
"145 663 LINE",
"454 663 LINE",
"454 51 LINE",
"145 51 LINE"
);
}
);
width = 600;
},
{
associatedMasterId = "CFFEBDE4-599A-46B2-9328-D96E42CD9C81";
layerId = "7C505BEE-2611-4A04-ABA0-64C0BA48336F";
name = Condensed;
paths = (
{
closed = 1;
nodes = (
"505 0 LINE",
"505 714 LINE",
"94 714 LINE",
"94 0 LINE"
);
},
{
closed = 1;
nodes = (
"145 663 LINE",
"454 663 LINE",
"454 51 LINE",
"145 51 LINE"
);
}
);
width = 600;
},
{
associatedMasterId = "CFFEBDE4-599A-46B2-9328-D96E42CD9C81";
layerId = "CFFC113C-B55C-44E0-A174-84F7BF124894";
name = Condensed;
paths = (
{
closed = 1;
nodes = (
"496 0 LINE",
"496 714 LINE",
"85 714 LINE",
"85 0 LINE"
);
},
{
closed = 1;
nodes = (
"136 663 LINE",
"445 663 LINE",
"445 51 LINE",
"136 51 LINE"
);
}
);
width = 595;
},
{
associatedMasterId = "CFFEBDE4-599A-46B2-9328-D96E42CD9C81";
layerId = "43D1030E-7459-4003-8CF9-EC0A1464FBD9";
name = Condensed;
paths = (
{
closed = 1;
nodes = (
"496 0 LINE",
"496 714 LINE",
"85 714 LINE",
"85 0 LINE"
);
},
{
closed = 1;
nodes = (
"136 663 LINE",
"445 663 LINE",
"445 51 LINE",
"136 51 LINE"
);
}
);
width = 587;
},
{
associatedMasterId = "CFFEBDE4-599A-46B2-9328-D96E42CD9C81";
layerId = "E193C3F6-581C-4255-BA06-39B2C55FEA85";
name = Condensed;
paths = (
{
closed = 1;
nodes = (
"505 0 LINE",
"505 714 LINE",
"94 714 LINE",
"94 0 LINE"
);
},
{
closed = 1;
nodes = (
"145 663 LINE",
"454 663 LINE",
"454 51 LINE",
"145 51 LINE"
);
}
);
width = 600;
},
{
associatedMasterId = "CFFEBDE4-599A-46B2-9328-D96E42CD9C81";
layerId = "BC1F2A7D-5C4C-489A-B80D-F8A78AA87396";
name = Condensed;
paths = (
{
closed = 1;
nodes = (
"496 0 LINE",
"496 714 LINE",
"85 714 LINE",
"85 0 LINE"
);
},
{
closed = 1;
nodes = (
"136 663 LINE",
"445 663 LINE",
"445 51 LINE",
"136 51 LINE"
);
}
);
width = 600;
},
{
associatedMasterId = "CFFEBDE4-599A-46B2-9328-D96E42CD9C81";
layerId = "4A97D365-134C-40CE-A1F4-ACEEDAC52A69";
name = Bold;
paths = (
{
closed = 1;
nodes = (
"496 0 LINE",
"496 714 LINE",
"85 714 LINE",
"85 0 LINE"
);
},
{
closed = 1;
nodes = (
"136 663 LINE",
"445 663 LINE",
"445 51 LINE",
"136 51 LINE"
);
}
);
width = 582;
},
{
associatedMasterId = "CFFEBDE4-599A-46B2-9328-D96E42CD9C81";
layerId = "E30ED5CA-5FDA-483A-B078-9F166668F082";
name = "Bold Condensed";
paths = (
{
closed = 1;
nodes = (
"496 0 LINE",
"496 714 LINE",
"85 714 LINE",
"85 0 LINE"
);
},
{
closed = 1;
nodes = (
"136 663 LINE",
"445 663 LINE",
"445 51 LINE",
"136 51 LINE"
);
}
);
width = 582;
},
{
associatedMasterId = "CFFEBDE4-599A-46B2-9328-D96E42CD9C81";
layerId = "5E9EB60B-4C02-4C45-9028-66D331043723";
name = Regular;
paths = (
{
closed = 1;
nodes = (
"505 0 LINE",
"505 714 LINE",
"94 714 LINE",
"94 0 LINE"
);
},
{
closed = 1;
nodes = (
"145 663 LINE",
"454 663 LINE",
"454 51 LINE",
"145 51 LINE"
);
}
);
width = 600;
},
{
associatedMasterId = "CFFEBDE4-599A-46B2-9328-D96E42CD9C81";
layerId = "CF4745A3-289E-483C-9D08-2C2CDA3793CE";
name = SemiBold;
paths = (
{
closed = 1;
nodes = (
"505 0 LINE",
"505 714 LINE",
"94 714 LINE",
"94 0 LINE"
);
},
{
closed = 1;
nodes = (
"145 663 LINE",
"454 663 LINE",
"454 51 LINE",
"145 51 LINE"
);
}
);
width = 600;
},
{
associatedMasterId = "CFFEBDE4-599A-46B2-9328-D96E42CD9C81";
layerId = "0007F7B2-5B0D-4ECF-8993-9E445AE70882";
name = Condensed;
paths = (
{
closed = 1;
nodes = (
"496 0 LINE",
"496 714 LINE",
"85 714 LINE",
"85 0 LINE"
);
},
{
closed = 1;
nodes = (
"136 663 LINE",
"445 663 LINE",
"445 51 LINE",
"136 51 LINE"
);
}
);
width = 595;
},
{
associatedMasterId = "CFFEBDE4-599A-46B2-9328-D96E42CD9C81";
layerId = "A6240D38-CEDA-4780-B12F-EAC7EDB843D9";
name = "SemiBold Condensed";
paths = (
{
closed = 1;
nodes = (
"496 0 LINE",
"496 714 LINE",
"85 714 LINE",
"85 0 LINE"
);
},
{
closed = 1;
nodes = (
"136 663 LINE",
"445 663 LINE",
"445 51 LINE",
"136 51 LINE"
);
}
);
width = 587;
},
{
associatedMasterId = "CFFEBDE4-599A-46B2-9328-D96E42CD9C81";
layerId = "79A278C6-3EFA-4DDB-B984-DD1D15CE97C9";
name = "Light Condensed";
paths = (
{
closed = 1;
nodes = (
"496 0 LINE",
"496 714 LINE",
"85 714 LINE",
"85 0 LINE"
);
},
{
closed = 1;
nodes = (
"136 663 LINE",
"445 663 LINE",
"445 51 LINE",
"136 51 LINE"
);
}
);
width = 600;
},
{
associatedMasterId = "CFFEBDE4-599A-46B2-9328-D96E42CD9C81";
layerId = "0F2AC913-770D-4B71-A4B9-DFCE7D340767";
name = "SemiBold Condensed";
paths = (
{
closed = 1;
nodes = (
"496 0 LINE",
"496 714 LINE",
"85 714 LINE",
"85 0 LINE"
);
},
{
closed = 1;
nodes = (
"136 663 LINE",
"445 663 LINE",
"445 51 LINE",
"136 51 LINE"
);
}
);
width = 582;
},
{
associatedMasterId = "CFFEBDE4-599A-46B2-9328-D96E42CD9C81";
layerId = "5818F93F-12B0-43EF-AE07-DE875336F2D3";
name = "SemiBold Condensed";
paths = (
{
closed = 1;
nodes = (
"496 0 LINE",
"496 714 LINE",
"85 714 LINE",
"85 0 LINE"
);
},
{
closed = 1;
nodes = (
"136 663 LINE",
"445 663 LINE",
"445 51 LINE",
"136 51 LINE"
);
}
);
width = 582;
},
{
associatedMasterId = "CFFEBDE4-599A-46B2-9328-D96E42CD9C81";
layerId = "69A75AA9-C824-4690-AF06-368352D8C4A0";
name = "SemiBold Condensed";
paths = (
{
closed = 1;
nodes = (
"505 0 LINE",
"505 714 LINE",
"94 714 LINE",
"94 0 LINE"
);
},
{
closed = 1;
nodes = (
"145 663 LINE",
"454 663 LINE",
"454 51 LINE",
"145 51 LINE"
);
}
);
width = 600;
},
{
associatedMasterId = "CFFEBDE4-599A-46B2-9328-D96E42CD9C81";
layerId = "0659F8A8-1CA7-437A-8862-AFE6849E1BC8";
name = "SemiBold Condensed";
paths = (
{
closed = 1;
nodes = (
"505 0 LINE",
"505 714 LINE",
"94 714 LINE",
"94 0 LINE"
);
},
{
closed = 1;
nodes = (
"145 663 LINE",
"454 663 LINE",
"454 51 LINE",
"145 51 LINE"
);
}
);
width = 600;
},
{
associatedMasterId = "CFFEBDE4-599A-46B2-9328-D96E42CD9C81";
layerId = "9849390B-0D5D-419F-BBF7-4CB8DF1108F4";
name = "SemiBold Condensed";
paths = (
{
closed = 1;
nodes = (
"496 0 LINE",
"496 714 LINE",
"85 714 LINE",
"85 0 LINE"
);
},
{
closed = 1;
nodes = (
"136 663 LINE",
"445 663 LINE",
"445 51 LINE",
"136 51 LINE"
);
}
);
width = 595;
},
{
associatedMasterId = "CFFEBDE4-599A-46B2-9328-D96E42CD9C81";
layerId = "435372D3-A5C6-4F91-8D68-18D24F2DC602";
name = "SemiBold Condensed";
paths = (
{
closed = 1;
nodes = (
"496 0 LINE",
"496 714 LINE",
"85 714 LINE",
"85 0 LINE"
);
},
{
closed = 1;
nodes = (
"136 663 LINE",
"445 663 LINE",
"445 51 LINE",
"136 51 LINE"
);
}
);
width = 587;
},
{
associatedMasterId = "CFFEBDE4-599A-46B2-9328-D96E42CD9C81";
layerId = "4D9C3FAB-40EB-4CCF-A752-6D6FE9920038";
name = "SemiBold Condensed";
paths = (
{
closed = 1;
nodes = (
"505 0 LINE",
"505 714 LINE",
"94 714 LINE",
"94 0 LINE"
);
},
{
closed = 1;
nodes = (
"145 663 LINE",
"454 663 LINE",
"454 51 LINE",
"145 51 LINE"
);
}
);
width = 600;
},
{
associatedMasterId = "CFFEBDE4-599A-46B2-9328-D96E42CD9C81";
layerId = "AFC07936-CFE6-40C4-A927-1C79F0D571B9";
name = "SemiBold Condensed";
paths = (
{
closed = 1;
nodes = (
"496 0 LINE",
"496 714 LINE",
"85 714 LINE",
"85 0 LINE"
);
},
{
closed = 1;
nodes = (
"136 663 LINE",
"445 663 LINE",
"445 51 LINE",
"136 51 LINE"
);
}
);
width = 600;
},
{
associatedMasterId = "CFFEBDE4-599A-46B2-9328-D96E42CD9C81";
layerId = "3DB921F2-2B03-4BC4-8509-8FCD7A6F784E";
name = "Bold Condensed";
paths = (
{
closed = 1;
nodes = (
"496 0 LINE",
"496 714 LINE",
"85 714 LINE",
"85 0 LINE"
);
},
{
closed = 1;
nodes = (
"136 663 LINE",
"445 663 LINE",
"445 51 LINE",
"136 51 LINE"
);
}
);
width = 582;
},
{
associatedMasterId = "CFFEBDE4-599A-46B2-9328-D96E42CD9C81";
layerId = "2F2377A1-11C3-41B6-919D-D55F8AA75D07";
name = "Bold Condensed";
paths = (
{
closed = 1;
nodes = (
"496 0 LINE",
"496 714 LINE",
"85 714 LINE",
"85 0 LINE"
);
},
{
closed = 1;
nodes = (
"136 663 LINE",
"445 663 LINE",
"445 51 LINE",
"136 51 LINE"
);
}
);
width = 582;
},
{
associatedMasterId = "CFFEBDE4-599A-46B2-9328-D96E42CD9C81";
layerId = "18EFA2A5-94BA-44A1-8C61-68BF4E401414";
name = "Bold Condensed";
paths = (
{
closed = 1;
nodes = (
"505 0 LINE",
"505 714 LINE",
"94 714 LINE",
"94 0 LINE"
);
},
{
closed = 1;
nodes = (
"145 663 LINE",
"454 663 LINE",
"454 51 LINE",
"145 51 LINE"
);
}
);
width = 600;
},
{
associatedMasterId = "CFFEBDE4-599A-46B2-9328-D96E42CD9C81";
layerId = "9E2FF5C0-3F8B-4CDD-8C0B-518BB51B0C53";
name = "Bold Condensed";
paths = (
{
closed = 1;
nodes = (
"505 0 LINE",
"505 714 LINE",
"94 714 LINE",
"94 0 LINE"
);
},
{
closed = 1;
nodes = (
"145 663 LINE",
"454 663 LINE",
"454 51 LINE",
"145 51 LINE"
);
}
);
width = 600;
},
{
associatedMasterId = "CFFEBDE4-599A-46B2-9328-D96E42CD9C81";
layerId = "49C7FBBB-5D49-485A-90F5-A2972E78A97C";
name = "Bold Condensed";
paths = (
{
closed = 1;
nodes = (
"496 0 LINE",
"496 714 LINE",
"85 714 LINE",
"85 0 LINE"
);
},
{
closed = 1;
nodes = (
"136 663 LINE",
"445 663 LINE",
"445 51 LINE",
"136 51 LINE"
);
}
);
width = 595;
},
{
associatedMasterId = "CFFEBDE4-599A-46B2-9328-D96E42CD9C81";
layerId = "42E87011-FEDB-43C8-99A4-706BFF7CA79F";
name = "Bold Condensed";
paths = (
{
closed = 1;
nodes = (
"496 0 LINE",
"496 714 LINE",
"85 714 LINE",
"85 0 LINE"
);
},
{
closed = 1;
nodes = (
"136 663 LINE",
"445 663 LINE",
"445 51 LINE",
"136 51 LINE"
);
}
);
width = 587;
},
{
associatedMasterId = "CFFEBDE4-599A-46B2-9328-D96E42CD9C81";
layerId = "AD6F6DAA-2D58-4E1D-98AF-ACAAF76D7B9E";
name = "Bold Condensed";
paths = (
{
closed = 1;
nodes = (
"505 0 LINE",
"505 714 LINE",
"94 714 LINE",
"94 0 LINE"
);
},
{
closed = 1;
nodes = (
"145 663 LINE",
"454 663 LINE",
"454 51 LINE",
"145 51 LINE"
);
}
);
width = 600;
},
{
associatedMasterId = "CFFEBDE4-599A-46B2-9328-D96E42CD9C81";
layerId = "001EDBC9-3154-4441-98CE-7D8995D9200E";
name = "Bold Condensed";
paths = (
{
closed = 1;
nodes = (
"496 0 LINE",
"496 714 LINE",
"85 714 LINE",
"85 0 LINE"
);
},
{
closed = 1;
nodes = (
"136 663 LINE",
"445 663 LINE",
"445 51 LINE",
"136 51 LINE"
);
}
);
width = 600;
}
);
note = .notdef;
},
{
glyphname = u16FE1;
lastChange = "2020-04-09 16:40:31 +0000";
layers = (
{
background = {
paths = (
{
closed = 1;
nodes = (
"670 909 LINE",
"593 645 OFFCURVE",
"493 439 OFFCURVE",
"362 224 CURVE",
"406 228 LINE",
"363 363 OFFCURVE",
"310 485 OFFCURVE",
"241 598 CURVE",
"167 556 LINE",
"241 430 OFFCURVE",
"288 324 OFFCURVE",
"332 194 CURVE",
"423 179 LINE",
"573 408 OFFCURVE",
"678 621 OFFCURVE",
"753 887 CURVE"
);
},
{
closed = 1;
nodes = (
"622 180 OFFCURVE",
"526 34 OFFCURVE",
"382 -127 CURVE",
"444 -183 LINE",
"585 -24 OFFCURVE",
"697 137 OFFCURVE",
"796 368 CURVE",
"585 543 LINE",
"547 483 LINE",
"716 401 LINE"
);
},
{
closed = 1;
nodes = (
"140 223 OFFCURVE",
"163 240 OFFCURVE",
"163 279 CURVE SMOOTH",
"163 318 OFFCURVE",
"140 335 OFFCURVE",
"112 335 CURVE SMOOTH",
"83 335 OFFCURVE",
"60 318 OFFCURVE",
"60 279 CURVE SMOOTH",
"60 240 OFFCURVE",
"83 223 OFFCURVE",
"112 223 CURVE SMOOTH"
);
},
{
closed = 1;
nodes = (
"438 635 OFFCURVE",
"461 652 OFFCURVE",
"461 691 CURVE SMOOTH",
"461 730 OFFCURVE",
"438 747 OFFCURVE",
"410 747 CURVE SMOOTH",
"381 747 OFFCURVE",
"358 730 OFFCURVE",
"358 691 CURVE SMOOTH",
"358 652 OFFCURVE",
"381 635 OFFCURVE",
"410 635 CURVE SMOOTH"
);
}
);
};
layerId = "CFFEBDE4-599A-46B2-9328-D96E42CD9C81";
paths = (
{
closed = 1;
nodes = (
"670 909 LINE",
"593 645 OFFCURVE",
"493 439 OFFCURVE",
"362 224 CURVE",
"406 228 LINE",
"363 363 OFFCURVE",
"310 485 OFFCURVE",
"241 598 CURVE",
"167 556 LINE",
"241 430 OFFCURVE",
"288 324 OFFCURVE",
"332 194 CURVE",
"423 179 LINE",
"573 408 OFFCURVE",
"678 621 OFFCURVE",
"753 887 CURVE"
);
},
{
closed = 1;
nodes = (
"670 196 OFFCURVE",
"624 82 OFFCURVE",
"432 -127 CURVE",
"494 -183 LINE",
"692 33 OFFCURVE",
"756 177 OFFCURVE",
"756 308 CURVE SMOOTH",
"756 408 OFFCURVE",
"712 477 OFFCURVE",
"598 563 CURVE",
"547 493 LINE",
"642 430 OFFCURVE",
"670 369 OFFCURVE",
"670 308 CURVE SMOOTH"
);
},
{
closed = 1;
nodes = (
"140 223 OFFCURVE",
"163 240 OFFCURVE",
"163 279 CURVE SMOOTH",
"163 318 OFFCURVE",
"140 335 OFFCURVE",
"112 335 CURVE SMOOTH",
"83 335 OFFCURVE",
"60 318 OFFCURVE",
"60 279 CURVE SMOOTH",
"60 240 OFFCURVE",
"83 223 OFFCURVE",
"112 223 CURVE SMOOTH"
);
},
{
closed = 1;
nodes = (
"438 635 OFFCURVE",
"461 652 OFFCURVE",
"461 691 CURVE SMOOTH",
"461 730 OFFCURVE",
"438 747 OFFCURVE",
"410 747 CURVE SMOOTH",
"381 747 OFFCURVE",
"358 730 OFFCURVE",
"358 691 CURVE SMOOTH",
"358 652 OFFCURVE",
"381 635 OFFCURVE",
"410 635 CURVE SMOOTH"
);
}
);
width = 816;
}
);
unicode = 16FE1;
},
{
glyphname = u1B170;
lastChange = "2020-04-09 07:58:37 +0000";
layers = (
{
background = {
paths = (
{
closed = 1;
nodes = (
"284 930 LINE",
"299 806 OFFCURVE",
"303 698 OFFCURVE",
"303 578 CURVE SMOOTH",
"303 211 OFFCURVE",
"241 45 OFFCURVE",
"24 -141 CURVE",
"81 -203 LINE",
"323 3 OFFCURVE",
"389 190 OFFCURVE",
"389 582 CURVE SMOOTH",
"389 706 OFFCURVE",
"381 820 OFFCURVE",
"367 939 CURVE"
);
}
);
};
layerId = "CFFEBDE4-599A-46B2-9328-D96E42CD9C81";
paths = (
{
closed = 1;
nodes = (
"293 939 LINE",
"292 478 OFFCURVE",
"207 97 OFFCURVE",
"70 -165 CURVE",
"147 -203 LINE",
"286 61 OFFCURVE",
"376 443 OFFCURVE",
"379 938 CURVE"
);
}
);
vertOrigin = 25;
vertWidth = 1362;
width = 509;
}
);
unicode = 1B170;
},
{
glyphname = u1B171;
lastChange = "2020-04-09 07:58:46 +0000";
layers = (
{
background = {
paths = (
{
closed = 1;
nodes = (
"314 378 OFFCURVE",
"231 212 OFFCURVE",
"50 12 CURVE",
"112 -45 LINE",
"311 171 OFFCURVE",
"400 362 OFFCURVE",
"400 664 CURVE SMOOTH",
"400 766 OFFCURVE",
"394 856 OFFCURVE",
"381 949 CURVE",
"298 939 LINE",
"308 843 OFFCURVE",
"314 775 OFFCURVE",
"314 662 CURVE SMOOTH"
);
},
{
closed = 1;
nodes = (
"490 261 LINE",
"418 83 OFFCURVE",
"330 -39 OFFCURVE",
"209 -154 CURVE",
"269 -213 LINE",
"394 -94 OFFCURVE",
"488 36 OFFCURVE",
"568 229 CURVE"
);
}
);
};
guideLines = (
{
angle = 90;
locked = 1;
position = "{351, 490}";
}
);
layerId = "CFFEBDE4-599A-46B2-9328-D96E42CD9C81";
paths = (
{
closed = 1;
nodes = (
"480 271 LINE",
"408 93 OFFCURVE",
"310 -29 OFFCURVE",
"189 -144 CURVE",
"249 -203 LINE",
"374 -84 OFFCURVE",
"478 46 OFFCURVE",
"558 239 CURVE"
);
},
{
closed = 1;
nodes = (
"367 939 LINE",
"366 478 OFFCURVE",
"282 274 OFFCURVE",
"70 59 CURVE",
"132 0 LINE",
"346 217 OFFCURVE",
"450 432 OFFCURVE",
"453 938 CURVE"
);
}
);
vertOrigin = 25;
vertWidth = 1362;
width = 658;
}
);
unicode = 1B171;
},
{
glyphname = u1B172;
lastChange = "2020-04-09 07:59:51 +0000";
layers = (
{
background = {
components = (
{
name = u1B170;
transform = "{1, 0, 0, 1, -21, 0}";
}
);
};
guideLines = (
{
angle = 90;
locked = 1;
position = "{229, 490}";
}
);
layerId = "CFFEBDE4-599A-46B2-9328-D96E42CD9C81";
paths = (
{
closed = 1;
nodes = (
"455 939 LINE",
"420 757 OFFCURVE",
"382 632 OFFCURVE",
"332 509 CURVE",
"313 479 LINE",
"249 349 OFFCURVE",
"186 251 OFFCURVE",
"91 132 CURVE",
"157 79 LINE",
"243 182 OFFCURVE",
"307 283 OFFCURVE",
"367 411 CURVE",
"391 436 LINE",
"458 588 OFFCURVE",
"496 715 OFFCURVE",
"540 923 CURVE"
);
},
{
closed = 1;
nodes = (
"344 449 OFFCURVE",
"434 301 OFFCURVE",
"434 137 CURVE SMOOTH",
"434 21 OFFCURVE",
"407 -57 OFFCURVE",
"325 -150 CURVE",
"387 -203 LINE",
"476 -105 OFFCURVE",
"520 0 OFFCURVE",
"520 139 CURVE SMOOTH",
"520 315 OFFCURVE",
"426 491 OFFCURVE",
"126 768 CURVE",
"70 703 LINE"
);
}
);
vertOrigin = 25;
vertWidth = 1362;
width = 650;
}
);
unicode = 1B172;
},
{
glyphname = u1B173;
lastChange = "2020-04-09 12:26:54 +0000";
layers = (
{
guideLines = (
{
angle = 90;
locked = 1;
position = "{316, 490}";
}
);
layerId = "CFFEBDE4-599A-46B2-9328-D96E42CD9C81";
paths = (
{
closed = 1;
nodes = (
"644 -72 LINE",
"555 154 OFFCURVE",
"460 313 OFFCURVE",
"323 504 CURVE",
"300 387 LINE",
"405 238 OFFCURVE",
"491 81 OFFCURVE",
"564 -104 CURVE"
);
},
{
closed = 1;
nodes = (
"293 939 LINE",
"292 478 OFFCURVE",
"207 97 OFFCURVE",
"70 -165 CURVE",
"147 -203 LINE",
"286 61 OFFCURVE",
"376 443 OFFCURVE",
"379 938 CURVE"
);
}
);
vertOrigin = 25;
vertWidth = 1362;
width = 694;
}
);
unicode = 1B173;
},
{
glyphname = u1B174;
lastChange = "2020-04-09 12:32:59 +0000";
layers = (
{
guideLines = (
{
angle = 90;
locked = 1;
position = "{335, 490}";
}
);
layerId = "CFFEBDE4-599A-46B2-9328-D96E42CD9C81";
paths = (
{
closed = 1;
nodes = (
"179 522 OFFCURVE",
"212 371 OFFCURVE",
"212 202 CURVE SMOOTH",
"212 69 OFFCURVE",
"189 -47 OFFCURVE",
"134 -171 CURVE",
"210 -203 LINE",
"274 -65 OFFCURVE",
"298 56 OFFCURVE",
"298 202 CURVE SMOOTH",
"298 393 OFFCURVE",
"264 533 OFFCURVE",
"178 739 CURVE",
"100 707 LINE"
);
},
{
closed = 1;
nodes = (
"562 279 OFFCURVE",
"517 415 OFFCURVE",
"517 593 CURVE SMOOTH",
"517 692 OFFCURVE",
"528 792 OFFCURVE",
"559 921 CURVE",
"477 939 LINE",
"447 812 OFFCURVE",
"431 710 OFFCURVE",
"431 594 CURVE SMOOTH",
"431 405 OFFCURVE",
"481 243 OFFCURVE",
"589 92 CURVE",
"656 139 LINE"
);
}
);
vertOrigin = 25;
vertWidth = 1362;
width = 756;
}
);
unicode = 1B174;
},
{
glyphname = u1B175;
lastChange = "2020-04-09 12:31:35 +0000";
layers = (
{
background = {
paths = (
{
closed = 1;
nodes = (
"424 979 LINE",
"383 759 OFFCURVE",
"347 637 OFFCURVE",
"300 512 CURVE",
"288 479 LINE",
"225 340 OFFCURVE",
"161 251 OFFCURVE",
"66 132 CURVE",
"131 77 LINE",
"217 180 OFFCURVE",
"289 282 OFFCURVE",
"349 411 CURVE",
"364 436 LINE",
"421 581 OFFCURVE",
"466 735 OFFCURVE",
"509 964 CURVE"
);
},
{
closed = 1;
nodes = (
"324 445 OFFCURVE",
"404 287 OFFCURVE",
"404 106 CURVE SMOOTH",
"404 -6 OFFCURVE",
"378 -90 OFFCURVE",
"289 -204 CURVE",
"357 -253 LINE",
"453 -134 OFFCURVE",
"490 -27 OFFCURVE",
"490 108 CURVE SMOOTH",
"490 301 OFFCURVE",
"409 484 OFFCURVE",
"109 785 CURVE",
"50 723 LINE"
);
}
);
};
layerId = "CFFEBDE4-599A-46B2-9328-D96E42CD9C81";
paths = (
{
closed = 1;
nodes = (
"595 -85 LINE",
"544 81 OFFCURVE",
"468 248 OFFCURVE",
"389 394 CURVE",
"361 424 LINE",
"293 547 OFFCURVE",
"226 649 OFFCURVE",
"136 768 CURVE",
"70 717 LINE",
"168 587 OFFCURVE",
"243 470 OFFCURVE",
"319 326 CURVE",
"348 291 LINE",
"412 162 OFFCURVE",
"471 24 OFFCURVE",
"515 -110 CURVE"
);
},
{
closed = 1;
nodes = (
"456 939 LINE",
"402 543 OFFCURVE",
"276 181 OFFCURVE",
"108 -167 CURVE",
"184 -203 LINE",
"350 141 OFFCURVE",
"484 514 OFFCURVE",
"541 928 CURVE"
);
}
);
vertOrigin = 25;
vertWidth = 1362;
width = 685;
}
);
unicode = 1B175;
},
{
glyphname = u1B176;
lastChange = "2020-04-09 08:00:50 +0000";
layers = (
{
background = {
paths = (
{
closed = 1;
nodes = (
"285 758 OFFCURVE",
"305 595 OFFCURVE",
"305 443 CURVE SMOOTH",
"305 172 OFFCURVE",
"247 19 OFFCURVE",
"83 -147 CURVE",
"144 -203 LINE",
"331 -25 OFFCURVE",
"391 166 OFFCURVE",
"391 444 CURVE SMOOTH",
"391 597 OFFCURVE",
"370 770 OFFCURVE",
"323 939 CURVE",
"240 918 LINE"
);
},
{
closed = 1;
nodes = (
"120 306 OFFCURVE",
"143 323 OFFCURVE",
"143 362 CURVE SMOOTH",
"143 401 OFFCURVE",
"120 418 OFFCURVE",
"92 418 CURVE SMOOTH",
"63 418 OFFCURVE",
"40 401 OFFCURVE",
"40 362 CURVE SMOOTH",
"40 323 OFFCURVE",
"63 306 OFFCURVE",
"92 306 CURVE SMOOTH"
);
}
);
};
guideLines = (
{
angle = 90;
locked = 1;
position = "{233, 490}";
}
);
layerId = "CFFEBDE4-599A-46B2-9328-D96E42CD9C81";
paths = (
{
closed = 1;
nodes = (
"160 306 OFFCURVE",
"183 323 OFFCURVE",
"183 362 CURVE SMOOTH",
"183 401 OFFCURVE",
"160 418 OFFCURVE",
"132 418 CURVE SMOOTH",
"103 418 OFFCURVE",
"80 401 OFFCURVE",
"80 362 CURVE SMOOTH",
"80 323 OFFCURVE",
"103 306 OFFCURVE",
"132 306 CURVE SMOOTH"
);
},
{
closed = 1;
nodes = (
"417 939 LINE",
"416 478 OFFCURVE",
"331 97 OFFCURVE",
"194 -165 CURVE",
"271 -203 LINE",
"410 61 OFFCURVE",
"500 443 OFFCURVE",
"503 938 CURVE"
);
}
);
vertOrigin = 25;
vertWidth = 1362;
width = 633;
}
);
rightMetricsKey = u1B170;
unicode = 1B176;
},
{
glyphname = u1B177;
lastChange = "2020-04-09 08:01:06 +0000";
layers = (
{
background = {
paths = (
{
closed = 1;
nodes = (
"165 939 LINE",
"120 750 OFFCURVE",
"97 577 OFFCURVE",
"97 424 CURVE SMOOTH",
"97 131 OFFCURVE",
"161 -38 OFFCURVE",
"344 -203 CURVE",
"401 -142 LINE",
"237 11 OFFCURVE",
"183 152 OFFCURVE",
"183 423 CURVE SMOOTH",
"183 575 OFFCURVE",
"206 741 OFFCURVE",
"249 921 CURVE"
);
}
);
};
guideLines = (
{
angle = 90;
locked = 1;
position = "{384, 490}";
}
);
layerId = "CFFEBDE4-599A-46B2-9328-D96E42CD9C81";
paths = (
{
closed = 1;
nodes = (
"431 295 OFFCURVE",
"408 278 OFFCURVE",
"408 239 CURVE SMOOTH",
"408 200 OFFCURVE",
"431 183 OFFCURVE",
"459 183 CURVE SMOOTH",
"488 183 OFFCURVE",
"511 200 OFFCURVE",
"511 239 CURVE SMOOTH",
"511 278 OFFCURVE",
"488 295 OFFCURVE",
"459 295 CURVE SMOOTH"
);
},
{
closed = 1;
nodes = (
"143 478 OFFCURVE",
"107 93 OFFCURVE",
"143 -203 CURVE",
"229 -195 LINE",
"194 98 OFFCURVE",
"231 479 OFFCURVE",
"399 910 CURVE",
"319 939 LINE"
);
}
);
vertOrigin = 25;
vertWidth = 1362;
width = 591;
}
);
unicode = 1B177;
},
{
glyphname = u1B178;
lastChange = "2020-04-09 12:32:31 +0000";
layers = (
{
background = {
paths = (
{
closed = 1;
nodes = (
"516 939 LINE",
"515 478 OFFCURVE",
"430 97 OFFCURVE",
"293 -165 CURVE",
"370 -203 LINE",
"509 61 OFFCURVE",
"599 443 OFFCURVE",
"602 938 CURVE"
);
}
);
};
guideLines = (
{
angle = 90;
locked = 1;
position = "{484, 490}";
}
);
layerId = "CFFEBDE4-599A-46B2-9328-D96E42CD9C81";
paths = (
{
closed = 1;
nodes = (
"262 442 LINE",
"239 276 OFFCURVE",
"183 141 OFFCURVE",
"100 39 CURVE",
"166 -13 LINE",
"261 110 OFFCURVE",
"319 247 OFFCURVE",
"345 431 CURVE"
);
},
{
closed = 1;
nodes = (
"634 216 OFFCURVE",
"620 114 OFFCURVE",
"620 12 CURVE SMOOTH",
"620 -78 OFFCURVE",
"630 -144 OFFCURVE",
"644 -203 CURVE",
"724 -187 LINE",
"709 -119 OFFCURVE",
"704 -65 OFFCURVE",
"704 12 CURVE SMOOTH",
"704 106 OFFCURVE",
"714 198 OFFCURVE",
"752 307 CURVE",
"675 331 LINE"
);
},
{
closed = 1;
nodes = (
"497 939 LINE",
"494 445 OFFCURVE",
"454 136 OFFCURVE",
"294 -141 CURVE",
"369 -183 LINE",
"529 96 OFFCURVE",
"582 417 OFFCURVE",
"583 938 CURVE"
);
}
);
vertOrigin = 25;
vertWidth = 1362;
width = 862;
}
);
unicode = 1B178;
},
{
glyphname = u1B179;
lastChange = "2020-04-09 13:04:11 +0000";
layers = (
{
background = {
paths = (
{
closed = 1;
nodes = (
"411 -293 LINE",
"424 -184 OFFCURVE",
"429 -86 OFFCURVE",
"429 30 CURVE SMOOTH",
"429 302 OFFCURVE",
"350 592 OFFCURVE",
"167 859 CURVE",
"97 812 LINE",
"279 549 OFFCURVE",
"343 294 OFFCURVE",
"343 30 CURVE SMOOTH",
"343 -82 OFFCURVE",
"339 -182 OFFCURVE",
"326 -286 CURVE"
);
},
{
closed = 1;
nodes = (
"438 939 LINE",
"322 691 OFFCURVE",
"207 536 OFFCURVE",
"16 335 CURVE",
"79 276 LINE",
"290 496 OFFCURVE",
"392 638 OFFCURVE",
"518 906 CURVE"
);
},
{
closed = 1;
nodes = (
"538 607 LINE",
"417 411 OFFCURVE",
"290 245 OFFCURVE",
"89 75 CURVE",
"146 11 LINE",
"343 178 OFFCURVE",
"483 354 OFFCURVE",
"609 559 CURVE"
);
}
);
};
guideLines = (
{
angle = 90;
locked = 1;
position = "{291, 490}";
}
);
layerId = "CFFEBDE4-599A-46B2-9328-D96E42CD9C81";
paths = (
{
closed = 1;
nodes = (
"523 939 LINE",
"371 765 OFFCURVE",
"235 646 OFFCURVE",
"60 520 CURVE",
"110 453 LINE",
"286 580 OFFCURVE",
"421 695 OFFCURVE",
"587 882 CURVE"
);
},
{
closed = 1;
nodes = (
"515 740 OFFCURVE",
"539 692 OFFCURVE",
"539 629 CURVE SMOOTH",
"539 520 OFFCURVE",
"456 441 OFFCURVE",
"140 229 CURVE",
"188 160 LINE",
"533 388 OFFCURVE",
"625 491 OFFCURVE",
"625 629 CURVE SMOOTH",
"625 719 OFFCURVE",
"594 781 OFFCURVE",
"511 864 CURVE",
"462 793 LINE"
);
},
{
closed = 1;
nodes = (
"382 363 LINE",
"398 247 OFFCURVE",
"403 170 OFFCURVE",
"403 42 CURVE SMOOTH",
"403 -51 OFFCURVE",
"399 -113 OFFCURVE",
"391 -196 CURVE",
"476 -203 LINE",
"485 -122 OFFCURVE",
"489 -53 OFFCURVE",
"489 40 CURVE SMOOTH",
"489 170 OFFCURVE",
"480 281 OFFCURVE",
"457 408 CURVE"
);
}
);
vertOrigin = 25;
vertWidth = 1362;
width = 755;
}
);
unicode = 1B179;
},
{
glyphname = u1B17A;
lastChange = "2020-04-09 12:36:48 +0000";
layers = (
{
guideLines = (
{
angle = 90;
locked = 1;
position = "{412, 490}";
}
);
layerId = "CFFEBDE4-599A-46B2-9328-D96E42CD9C81";
paths = (
{
closed = 1;
nodes = (
"371 338 LINE",
"385 235 OFFCURVE",
"388 153 OFFCURVE",
"388 55 CURVE SMOOTH",
"388 -33 OFFCURVE",
"383 -112 OFFCURVE",
"372 -192 CURVE",
"456 -203 LINE",
"469 -119 OFFCURVE",
"474 -39 OFFCURVE",
"474 56 CURVE SMOOTH",
"474 155 OFFCURVE",
"467 249 OFFCURVE",
"452 349 CURVE"
);
},
{
closed = 1;
nodes = (
"462 939 LINE",
"395 675 OFFCURVE",
"302 467 OFFCURVE",
"127 223 CURVE",
"196 172 LINE",
"370 416 OFFCURVE",
"473 633 OFFCURVE",
"545 918 CURVE"
);
},
{
closed = 1;
nodes = (
"293 582 OFFCURVE",
"456 462 OFFCURVE",
"625 303 CURVE",
"684 366 LINE",
"500 538 OFFCURVE",
"346 648 OFFCURVE",
"106 766 CURVE",
"70 688 LINE"
);
}
);
vertOrigin = 25;
vertWidth = 1362;
width = 764;
}
);
unicode = 1B17A;
},
{
glyphname = u1B17B;
lastChange = "2020-04-09 12:37:39 +0000";
layers = (
{
layerId = "CFFEBDE4-599A-46B2-9328-D96E42CD9C81";
paths = (
{
closed = 1;
nodes = (
"462 939 LINE",
"357 689 OFFCURVE",
"237 506 OFFCURVE",
"70 304 CURVE",
"137 250 LINE",
"302 448 OFFCURVE",
"434 651 OFFCURVE",
"543 909 CURVE"
);
},
{
closed = 1;
nodes = (
"105 831 LINE",
"309 490 OFFCURVE",
"452 155 OFFCURVE",
"565 -203 CURVE",
"647 -178 LINE",
"537 187 OFFCURVE",
"385 521 OFFCURVE",
"179 875 CURVE"
);
},
{
closed = 1;
nodes = (
"390 313 LINE",
"316 168 OFFCURVE",
"248 58 OFFCURVE",
"157 -65 CURVE",
"226 -116 LINE",
"318 9 OFFCURVE",
"391 124 OFFCURVE",
"462 265 CURVE"
);
}
);
vertOrigin = 25;
vertWidth = 1362;
width = 667;
}
);
unicode = 1B17B;
},
{
glyphname = u1B17C;
lastChange = "2020-04-09 12:39:01 +0000";
layers = (
{
layerId = "CFFEBDE4-599A-46B2-9328-D96E42CD9C81";
paths = (
{
closed = 1;
nodes = (
"127 495 LINE",
"266 303 OFFCURVE",
"378 116 OFFCURVE",
"492 -107 CURVE",
"568 -68 LINE",
"450 166 OFFCURVE",
"330 361 OFFCURVE",
"176 576 CURVE",
"188 499 LINE",
"271 632 OFFCURVE",
"330 758 OFFCURVE",
"382 915 CURVE",
"299 939 LINE",
"248 786 OFFCURVE",
"197 678 OFFCURVE",
"127 566 CURVE"
);
},
{
closed = 1;
nodes = (
"371 709 OFFCURVE",
"397 632 OFFCURVE",
"397 536 CURVE SMOOTH",
"397 349 OFFCURVE",
"348 208 OFFCURVE",
"80 -153 CURVE",
"150 -203 LINE",
"417 150 OFFCURVE",
"483 330 OFFCURVE",
"483 536 CURVE SMOOTH",
"483 662 OFFCURVE",
"443 766 OFFCURVE",
"338 889 CURVE",
"303 803 LINE"
);
}
);
vertOrigin = 25;
vertWidth = 1362;
width = 668;
}
);
unicode = 1B17C;
},
{
glyphname = u1B17D;
lastChange = "2020-04-09 12:39:57 +0000";
layers = (
{
background = {
paths = (
{
closed = 1;
nodes = (
"321 383 LINE",
"380 247 OFFCURVE",
"410 138 OFFCURVE",
"410 -4 CURVE SMOOTH",
"410 -91 OFFCURVE",
"400 -177 OFFCURVE",
"380 -277 CURVE",
"463 -293 LINE",
"488 -184 OFFCURVE",
"496 -95 OFFCURVE",
"496 -11 CURVE SMOOTH",
"496 182 OFFCURVE",
"447 322 OFFCURVE",
"337 525 CURVE"
);
},
{
closed = 1;
nodes = (
"291 832 OFFCURVE",
"297 751 OFFCURVE",
"297 639 CURVE SMOOTH",
"297 402 OFFCURVE",
"224 232 OFFCURVE",
"63 40 CURVE",
"125 -10 LINE",
"304 192 OFFCURVE",
"383 383 OFFCURVE",
"383 652 CURVE SMOOTH",
"383 765 OFFCURVE",
"373 855 OFFCURVE",
"361 939 CURVE",
"277 930 LINE"
);
}
);
};
layerId = "CFFEBDE4-599A-46B2-9328-D96E42CD9C81";
paths = (
{
closed = 1;
nodes = (
"370 939 LINE",
"345 546 OFFCURVE",
"257 306 OFFCURVE",
"70 95 CURVE",
"135 39 LINE",
"330 261 OFFCURVE",
"427 504 OFFCURVE",
"456 932 CURVE"
);
},
{
closed = 1;
nodes = (
"681 279 OFFCURVE",
"704 296 OFFCURVE",
"704 335 CURVE SMOOTH",
"704 374 OFFCURVE",
"681 391 OFFCURVE",
"653 391 CURVE SMOOTH",
"624 391 OFFCURVE",
"601 374 OFFCURVE",
"601 335 CURVE SMOOTH",
"601 296 OFFCURVE",
"624 279 OFFCURVE",
"653 279 CURVE SMOOTH"
);
},
{
closed = 1;
nodes = (
"322 504 LINE",
"401 341 OFFCURVE",
"415 208 OFFCURVE",
"415 54 CURVE SMOOTH",
"415 -39 OFFCURVE",
"411 -112 OFFCURVE",
"402 -195 CURVE",
"486 -203 LINE",
"495 -122 OFFCURVE",
"501 -41 OFFCURVE",
"501 52 CURVE SMOOTH",
"501 220 OFFCURVE",
"480 363 OFFCURVE",
"385 573 CURVE"
);
}
);
vertOrigin = 25;
vertWidth = 1362;
width = 784;
}
);
rightMetricsKey = u1B177;
unicode = 1B17D;
},
{
glyphname = u1B17E;
lastChange = "2020-04-09 12:41:06 +0000";
layers = (
{
layerId = "CFFEBDE4-599A-46B2-9328-D96E42CD9C81";
paths = (
{
closed = 1;
nodes = (
"467 939 LINE",
"376 789 OFFCURVE",
"267 669 OFFCURVE",
"140 550 CURVE",
"182 417 OFFCURVE",
"195 311 OFFCURVE",
"195 187 CURVE SMOOTH",
"195 51 OFFCURVE",
"179 -61 OFFCURVE",
"141 -179 CURVE",
"221 -203 LINE",
"265 -77 OFFCURVE",
"281 46 OFFCURVE",
"281 187 CURVE SMOOTH",
"281 315 OFFCURVE",
"264 431 OFFCURVE",
"226 568 CURVE",
"218 507 LINE",
"338 621 OFFCURVE",
"448 740 OFFCURVE",
"543 898 CURVE"
);
},
{
closed = 1;
nodes = (
"578 315 LINE",
"550 492 OFFCURVE",
"510 611 OFFCURVE",
"423 777 CURVE",
"371 702 LINE",
"439 557 OFFCURVE",
"469 459 OFFCURVE",
"493 302 CURVE"
);
}
);
vertOrigin = 25;
vertWidth = 1362;
width = 678;
}
);
unicode = 1B17E;
},
{
glyphname = u1B17F;
lastChange = "2020-04-09 08:03:16 +0000";
layers = (
{
layerId = "CFFEBDE4-599A-46B2-9328-D96E42CD9C81";
paths = (
{
closed = 1;
nodes = (
"160 274 OFFCURVE",
"183 291 OFFCURVE",
"183 330 CURVE SMOOTH",
"183 369 OFFCURVE",
"160 386 OFFCURVE",
"132 386 CURVE SMOOTH",
"103 386 OFFCURVE",
"80 369 OFFCURVE",
"80 330 CURVE SMOOTH",
"80 291 OFFCURVE",
"103 274 OFFCURVE",
"132 274 CURVE SMOOTH"
);
},
{
closed = 1;
nodes = (
"637 12 OFFCURVE",
"660 29 OFFCURVE",
"660 68 CURVE SMOOTH",
"660 107 OFFCURVE",
"637 124 OFFCURVE",
"609 124 CURVE SMOOTH",
"580 124 OFFCURVE",
"557 107 OFFCURVE",
"557 68 CURVE SMOOTH",
"557 29 OFFCURVE",
"580 12 OFFCURVE",
"609 12 CURVE SMOOTH"
);
},
{
closed = 1;
nodes = (
"397 939 LINE",
"396 478 OFFCURVE",
"311 97 OFFCURVE",
"174 -165 CURVE",
"251 -203 LINE",
"390 61 OFFCURVE",
"480 443 OFFCURVE",
"483 938 CURVE"
);
}
);
vertOrigin = 25;
vertWidth = 1362;
width = 740;
}
);
leftMetricsKey = u1B176;
rightMetricsKey = u1B177;
unicode = 1B17F;
},
{
glyphname = u1B180;
lastChange = "2020-04-09 12:42:54 +0000";
layers = (
{
background = {
paths = (
{
closed = 1;
nodes = (
"187 446 LINE",
"266 299 OFFCURVE",
"330 174 OFFCURVE",
"389 23 CURVE",
"462 66 LINE",
"399 225 OFFCURVE",
"330 364 OFFCURVE",
"240 523 CURVE"
);
},
{
closed = 1;
nodes = (
"381 939 LINE",
"277 643 OFFCURVE",
"148 406 OFFCURVE",
"20 192 CURVE",
"92 145 LINE",
"221 350 OFFCURVE",
"359 624 OFFCURVE",
"464 916 CURVE"
);
},
{
closed = 1;
nodes = (
"541 412 LINE",
"457 213 OFFCURVE",
"351 17 OFFCURVE",
"230 -146 CURVE",
"300 -196 LINE",
"436 -7 OFFCURVE",
"525 160 OFFCURVE",
"619 375 CURVE"
);
}
);
};
layerId = "CFFEBDE4-599A-46B2-9328-D96E42CD9C81";
paths = (
{
closed = 1;
nodes = (
"557 68 LINE",
"432 328 OFFCURVE",
"322 531 OFFCURVE",
"151 780 CURVE",
"80 731 LINE",
"248 490 OFFCURVE",
"363 278 OFFCURVE",
"480 30 CURVE"
);
},
{
closed = 1;
nodes = (
"568 939 LINE",
"425 629 OFFCURVE",
"273 390 OFFCURVE",
"84 157 CURVE",
"152 105 LINE",
"335 330 OFFCURVE",
"496 578 OFFCURVE",
"647 905 CURVE"
);
},
{
closed = 1;
nodes = (
"667 372 LINE",
"564 182 OFFCURVE",
"441 3 OFFCURVE",
"305 -150 CURVE",
"372 -203 LINE",
"520 -33 OFFCURVE",
"631 128 OFFCURVE",
"743 331 CURVE"
);
}
);
vertOrigin = 30;
vertWidth = 1362;
width = 813;
}
);
unicode = 1B180;
},
{
glyphname = u1B181;
lastChange = "2020-04-09 12:44:05 +0000";
layers = (
{
layerId = "CFFEBDE4-599A-46B2-9328-D96E42CD9C81";
paths = (
{
closed = 1;
nodes = (
"136 344 LINE",
"279 172 OFFCURVE",
"379 6 OFFCURVE",
"474 -203 CURVE",
"552 -167 LINE",
"444 60 OFFCURVE",
"339 225 OFFCURVE",
"190 415 CURVE",
"192 343 LINE",
"346 546 OFFCURVE",
"430 694 OFFCURVE",
"505 912 CURVE",
"423 939 LINE",
"351 729 OFFCURVE",
"266 580 OFFCURVE",
"136 415 CURVE"
);
},
{
closed = 1;
nodes = (
"365 596 OFFCURVE",
"417 488 OFFCURVE",
"417 380 CURVE SMOOTH",
"417 244 OFFCURVE",
"356 137 OFFCURVE",
"118 -98 CURVE",
"179 -158 LINE",
"411 69 OFFCURVE",
"503 205 OFFCURVE",
"503 380 CURVE SMOOTH",
"503 524 OFFCURVE",
"430 648 OFFCURVE",
"163 854 CURVE",
"110 786 LINE"
);
}
);
vertOrigin = 25;
vertWidth = 1362;
width = 651;
}
);
unicode = 1B181;
},
{
glyphname = u1B182;
lastChange = "2020-04-09 12:45:11 +0000";
layers = (
{
background = {
paths = (
{
closed = 1;
nodes = (
"183 495 LINE",
"319 296 OFFCURVE",
"432 105 OFFCURVE",
"549 -110 CURVE",
"624 -68 LINE",
"501 155 OFFCURVE",
"379 360 OFFCURVE",
"232 577 CURVE",
"244 499 LINE",
"321 640 OFFCURVE",
"376 752 OFFCURVE",
"436 910 CURVE",
"355 939 LINE",
"296 789 OFFCURVE",
"247 682 OFFCURVE",
"183 566 CURVE"
);
},
{
closed = 1;
nodes = (
"427 709 OFFCURVE",
"453 632 OFFCURVE",
"453 536 CURVE SMOOTH",
"453 362 OFFCURVE",
"404 213 OFFCURVE",
"136 -153 CURVE",
"206 -203 LINE",
"471 153 OFFCURVE",
"539 354 OFFCURVE",
"539 536 CURVE SMOOTH",
"539 662 OFFCURVE",
"499 766 OFFCURVE",
"394 889 CURVE",
"359 803 LINE"
);
}
);
};
layerId = "CFFEBDE4-599A-46B2-9328-D96E42CD9C81";
paths = (
{
closed = 1;
nodes = (
"254 473 LINE",
"344 605 OFFCURVE",
"404 720 OFFCURVE",
"478 911 CURVE",
"397 939 LINE",
"331 766 OFFCURVE",
"274 659 OFFCURVE",
"197 542 CURVE"
);
},
{
closed = 1;
nodes = (
"433 706 OFFCURVE",
"454 631 OFFCURVE",
"454 521 CURVE SMOOTH",
"454 342 OFFCURVE",
"379 175 OFFCURVE",
"140 -155 CURVE",
"211 -203 LINE",
"465 146 OFFCURVE",
"540 327 OFFCURVE",
"540 521 CURVE SMOOTH",
"540 653 OFFCURVE",
"505 758 OFFCURVE",
"414 869 CURVE",
"356 820 LINE"
);
},
{
closed = 1;
nodes = (
"70 616 LINE",
"264 357 OFFCURVE",
"415 142 OFFCURVE",
"562 -100 CURVE",
"635 -55 LINE",
"480 198 OFFCURVE",
"336 405 OFFCURVE",
"139 668 CURVE"
);
}
);
vertOrigin = 25;
vertWidth = 1362;
width = 705;
}
);
unicode = 1B182;
},
{
glyphname = u1B183;
lastChange = "2020-04-09 12:50:37 +0000";
layers = (
{
background = {
paths = (
{
closed = 1;
nodes = (
"557 68 LINE",
"432 328 OFFCURVE",
"322 531 OFFCURVE",
"151 780 CURVE",
"80 731 LINE",
"248 490 OFFCURVE",
"363 278 OFFCURVE",
"480 30 CURVE"
);
},
{
closed = 1;
nodes = (
"568 939 LINE",
"425 629 OFFCURVE",
"273 390 OFFCURVE",
"84 157 CURVE",
"152 105 LINE",
"335 330 OFFCURVE",
"496 578 OFFCURVE",
"647 905 CURVE"
);
},
{
closed = 1;
nodes = (
"667 372 LINE",
"564 182 OFFCURVE",
"441 3 OFFCURVE",
"305 -150 CURVE",
"372 -203 LINE",
"520 -33 OFFCURVE",
"631 128 OFFCURVE",
"743 331 CURVE"
);
}
);
};
layerId = "CFFEBDE4-599A-46B2-9328-D96E42CD9C81";
paths = (
{
closed = 1;
nodes = (
"261 425 LINE",
"349 283 OFFCURVE",
"420 163 OFFCURVE",
"488 15 CURVE",
"561 62 LINE",
"488 217 OFFCURVE",
"411 352 OFFCURVE",
"311 505 CURVE"
);
},
{
closed = 1;
nodes = (
"542 939 LINE",
"402 658 OFFCURVE",
"203 362 OFFCURVE",
"50 165 CURVE",
"118 113 LINE",
"269 303 OFFCURVE",
"479 625 OFFCURVE",
"621 906 CURVE"
);
},
{
closed = 1;
nodes = (
"671 373 LINE",
"564 186 OFFCURVE",
"430 -3 OFFCURVE",
"303 -147 CURVE",
"368 -203 LINE",
"514 -34 OFFCURVE",
"626 129 OFFCURVE",
"746 331 CURVE"
);
}
);
vertOrigin = 24;
vertWidth = 1362;
width = 816;
}
);
rightMetricsKey = u1B180;
unicode = 1B183;
},
{
glyphname = u1B184;
lastChange = "2020-04-09 13:00:32 +0000";
layers = (
{
layerId = "CFFEBDE4-599A-46B2-9328-D96E42CD9C81";
paths = (
{
closed = 1;
nodes = (
"340 -62 OFFCURVE",
"363 -45 OFFCURVE",
"363 -6 CURVE SMOOTH",
"363 33 OFFCURVE",
"340 50 OFFCURVE",
"312 50 CURVE SMOOTH",
"283 50 OFFCURVE",
"260 33 OFFCURVE",
"260 -6 CURVE SMOOTH",
"260 -45 OFFCURVE",
"283 -62 OFFCURVE",
"312 -62 CURVE SMOOTH"
);
},
{
closed = 1;
nodes = (
"390 939 LINE",
"365 546 OFFCURVE",
"267 306 OFFCURVE",
"70 95 CURVE",
"133 37 LINE",
"338 256 OFFCURVE",
"447 504 OFFCURVE",
"476 932 CURVE"
);
},
{
closed = 1;
nodes = (
"351 504 LINE",
"440 342 OFFCURVE",
"469 220 OFFCURVE",
"469 22 CURVE SMOOTH",
"469 -59 OFFCURVE",
"466 -113 OFFCURVE",
"458 -196 CURVE",
"543 -203 LINE",
"552 -122 OFFCURVE",
"555 -61 OFFCURVE",
"555 20 CURVE SMOOTH",
"555 220 OFFCURVE",
"521 373 OFFCURVE",
"403 591 CURVE"
);
}
);
vertOrigin = 25;
vertWidth = 1362;
width = 715;
}
);
leftMetricsKey = u1B17D;
unicode = 1B184;
},
{
glyphname = u1B185;
lastChange = "2020-04-09 13:00:09 +0000";
layers = (
{
layerId = "CFFEBDE4-599A-46B2-9328-D96E42CD9C81";
paths = (
{
closed = 1;
nodes = (
"325 939 LINE",
"263 691 OFFCURVE",
"192 543 OFFCURVE",
"50 364 CURVE",
"118 312 LINE",
"263 492 OFFCURVE",
"346 668 OFFCURVE",
"409 920 CURVE"
);
},
{
closed = 1;
nodes = (
"324 784 LINE",
"438 648 OFFCURVE",
"525 517 OFFCURVE",
"612 340 CURVE",
"689 377 LINE",
"587 579 OFFCURVE",
"502 699 OFFCURVE",
"377 854 CURVE"
);
},
{
closed = 1;
nodes = (
"340 456 LINE",
"355 340 OFFCURVE",
"360 225 OFFCURVE",
"360 122 CURVE SMOOTH",
"360 -11 OFFCURVE",
"355 -95 OFFCURVE",
"339 -190 CURVE",
"423 -203 LINE",
"439 -106 OFFCURVE",
"446 -10 OFFCURVE",
"446 123 CURVE SMOOTH",
"446 233 OFFCURVE",
"439 346 OFFCURVE",
"421 464 CURVE"
);
}
);
vertOrigin = 25;
vertWidth = 1362;
width = 779;
}
);
unicode = 1B185;
},
{
glyphname = u1B186;
lastChange = "2020-04-09 12:58:34 +0000";
layers = (
{
background = {
paths = (
{
closed = 1;
nodes = (
"336 939 LINE",
"277 765 OFFCURVE",
"207 639 OFFCURVE",
"99 520 CURVE",
"139 371 OFFCURVE",
"150 254 OFFCURVE",
"150 135 CURVE SMOOTH",
"150 -3 OFFCURVE",
"128 -128 OFFCURVE",
"82 -269 CURVE",
"158 -293 LINE",
"204 -143 OFFCURVE",
"230 -24 OFFCURVE",
"230 145 CURVE SMOOTH",
"230 271 OFFCURVE",
"215 388 OFFCURVE",
"177 538 CURVE",
"172 478 LINE",
"276 592 OFFCURVE",
"354 734 OFFCURVE",
"416 916 CURVE"
);
},
{
closed = 1;
nodes = (
"476 216 LINE",
"465 432 OFFCURVE",
"416 602 OFFCURVE",
"332 777 CURVE",
"289 673 LINE",
"347 540 OFFCURVE",
"382 386 OFFCURVE",
"392 204 CURVE"
);
}
);
};
layerId = "CFFEBDE4-599A-46B2-9328-D96E42CD9C81";
paths = (
{
closed = 1;
nodes = (
"197 570 OFFCURVE",
"229 425 OFFCURVE",
"229 266 CURVE SMOOTH",
"229 89 OFFCURVE",
"208 -39 OFFCURVE",
"160 -179 CURVE",
"240 -203 LINE",
"291 -62 OFFCURVE",
"313 75 OFFCURVE",
"313 266 CURVE SMOOTH",
"313 446 OFFCURVE",
"276 592 OFFCURVE",
"187 789 CURVE",
"110 754 LINE"
);
},
{
closed = 1;
nodes = (
"502 649 OFFCURVE",
"386 481 OFFCURVE",
"240 348 CURVE",
"275 271 LINE",
"457 441 OFFCURVE",
"569 587 OFFCURVE",
"648 922 CURVE",
"563 939 LINE"
);
},
{
closed = 1;
nodes = (
"443 529 LINE",
"518 393 OFFCURVE",
"558 278 OFFCURVE",
"584 134 CURVE",
"669 149 LINE",
"639 318 OFFCURVE",
"589 439 OFFCURVE",
"496 593 CURVE"
);
}
);
vertOrigin = 25;
vertWidth = 1362;
width = 789;
}
);
unicode = 1B186;
},
{
glyphname = u1B187;
lastChange = "2020-04-09 12:57:03 +0000";
layers = (
{
background = {
paths = (
{
closed = 1;
nodes = (
"603 -198 LINE",
"579 195 OFFCURVE",
"523 409 OFFCURVE",
"395 692 CURVE",
"333 624 LINE",
"451 363 OFFCURVE",
"497 130 OFFCURVE",
"517 -203 CURVE"
);
},
{
closed = 1;
nodes = (
"517 939 LINE",
"403 743 OFFCURVE",
"272 578 OFFCURVE",
"100 426 CURVE",
"159 364 LINE",
"331 516 OFFCURVE",
"476 693 OFFCURVE",
"592 897 CURVE"
);
},
{
closed = 1;
nodes = (
"674 675 LINE",
"535 465 OFFCURVE",
"386 302 OFFCURVE",
"203 156 CURVE",
"257 89 LINE",
"436 232 OFFCURVE",
"598 403 OFFCURVE",
"746 627 CURVE"
);
}
);
};
layerId = "CFFEBDE4-599A-46B2-9328-D96E42CD9C81";
paths = (
{
closed = 1;
nodes = (
"603 -198 LINE",
"577 273 OFFCURVE",
"456 557 OFFCURVE",
"239 901 CURVE",
"166 856 LINE",
"383 515 OFFCURVE",
"501 215 OFFCURVE",
"517 -203 CURVE"
);
},
{
closed = 1;
nodes = (
"517 939 LINE",
"403 743 OFFCURVE",
"272 578 OFFCURVE",
"100 426 CURVE",
"159 364 LINE",
"331 516 OFFCURVE",
"476 693 OFFCURVE",
"592 897 CURVE"
);
},
{
closed = 1;
nodes = (
"674 675 LINE",
"535 465 OFFCURVE",
"386 302 OFFCURVE",
"203 156 CURVE",
"257 89 LINE",
"436 232 OFFCURVE",
"598 403 OFFCURVE",
"746 627 CURVE"
);
}
);
vertOrigin = 25;
vertWidth = 1362;
width = 846;
}
);
unicode = 1B187;
},
{
glyphname = u1B188;
lastChange = "2020-04-09 13:07:29 +0000";
layers = (
{
background = {
paths = (
{
closed = 1;
nodes = (
"664 795 LINE",
"602 379 OFFCURVE",
"492 88 OFFCURVE",
"345 -168 CURVE",
"395 -179 LINE",
"333 12 OFFCURVE",
"276 147 OFFCURVE",
"187 304 CURVE",
"113 261 LINE",
"199 103 OFFCURVE",
"250 -5 OFFCURVE",
"316 -203 CURVE",
"416 -213 LINE",
"561 36 OFFCURVE",
"680 318 OFFCURVE",
"749 784 CURVE"
);
},
{
closed = 1;
nodes = (
"80 -101 OFFCURVE",
"103 -84 OFFCURVE",
"103 -45 CURVE SMOOTH",
"103 -6 OFFCURVE",
"80 11 OFFCURVE",
"52 11 CURVE SMOOTH",
"23 11 OFFCURVE",
"0 -6 OFFCURVE",
"0 -45 CURVE SMOOTH",
"0 -84 OFFCURVE",
"23 -101 OFFCURVE",
"52 -101 CURVE SMOOTH"
);
},
{
closed = 1;
nodes = (
"408 299 OFFCURVE",
"431 316 OFFCURVE",
"431 355 CURVE SMOOTH",
"431 394 OFFCURVE",
"408 411 OFFCURVE",
"380 411 CURVE SMOOTH",
"351 411 OFFCURVE",
"328 394 OFFCURVE",
"328 355 CURVE SMOOTH",
"328 316 OFFCURVE",
"351 299 OFFCURVE",
"380 299 CURVE SMOOTH"
);
}
);
};
layerId = "CFFEBDE4-599A-46B2-9328-D96E42CD9C81";
paths = (
{
closed = 1;
nodes = (
"140 -1 OFFCURVE",
"163 16 OFFCURVE",
"163 55 CURVE SMOOTH",
"163 94 OFFCURVE",
"140 111 OFFCURVE",
"112 111 CURVE SMOOTH",
"83 111 OFFCURVE",
"60 94 OFFCURVE",
"60 55 CURVE SMOOTH",
"60 16 OFFCURVE",
"83 -1 OFFCURVE",
"112 -1 CURVE SMOOTH"
);
},
{
closed = 1;
nodes = (
"684 865 LINE",
"622 489 OFFCURVE",
"542 208 OFFCURVE",
"415 -48 CURVE",
"465 -59 LINE",
"405 103 OFFCURVE",
"345 240 OFFCURVE",
"256 376 CURVE",
"184 329 LINE",
"270 192 OFFCURVE",
"322 86 OFFCURVE",
"386 -83 CURVE",
"486 -93 LINE",
"611 156 OFFCURVE",
"700 428 OFFCURVE",
"769 854 CURVE"
);
}
);
vertOrigin = 24;
vertWidth = 1362;
width = 849;
}
);
unicode = 1B188;
},
{
glyphname = u1B189;
lastChange = "2020-04-09 12:56:21 +0000";
layers = (
{
background = {
paths = (
{
closed = 1;
nodes = (
"515 -203 LINE",
"528 -104 OFFCURVE",
"533 -24 OFFCURVE",
"533 78 CURVE SMOOTH",
"533 392 OFFCURVE",
"437 654 OFFCURVE",
"281 901 CURVE",
"208 856 LINE",
"363 613 OFFCURVE",
"447 384 OFFCURVE",
"447 78 CURVE SMOOTH",
"447 -20 OFFCURVE",
"443 -102 OFFCURVE",
"430 -196 CURVE"
);
},
{
closed = 1;
nodes = (
"522 939 LINE",
"409 726 OFFCURVE",
"281 557 OFFCURVE",
"132 407 CURVE",
"193 346 LINE",
"358 516 OFFCURVE",
"474 670 OFFCURVE",
"600 902 CURVE"
);
},
{
closed = 1;
nodes = (
"652 669 LINE",
"531 473 OFFCURVE",
"383 296 OFFCURVE",
"205 139 CURVE",
"262 75 LINE",
"436 228 OFFCURVE",
"599 417 OFFCURVE",
"725 623 CURVE"
);
}
);
};
layerId = "CFFEBDE4-599A-46B2-9328-D96E42CD9C81";
paths = (
{
closed = 1;
nodes = (
"603 -198 LINE",
"579 195 OFFCURVE",
"523 409 OFFCURVE",
"395 692 CURVE",
"333 624 LINE",
"451 363 OFFCURVE",
"497 130 OFFCURVE",
"517 -203 CURVE"
);
},
{
closed = 1;
nodes = (
"517 939 LINE",
"403 743 OFFCURVE",
"272 578 OFFCURVE",
"100 426 CURVE",
"159 364 LINE",
"331 516 OFFCURVE",
"476 693 OFFCURVE",
"592 897 CURVE"
);
},
{
closed = 1;
nodes = (
"674 675 LINE",
"535 465 OFFCURVE",
"386 302 OFFCURVE",
"203 156 CURVE",
"257 89 LINE",
"436 232 OFFCURVE",
"598 403 OFFCURVE",
"746 627 CURVE"
);
}
);
vertOrigin = 25;
vertWidth = 1362;
width = 846;
}
);
leftMetricsKey = u1B187;
rightMetricsKey = u1B187;
unicode = 1B189;
},
{
glyphname = u1B18A;
lastChange = "2020-04-09 12:53:35 +0000";
layers = (
{
background = {
paths = (
{
closed = 1;
nodes = (
"517 271 LINE",
"445 93 OFFCURVE",
"347 -29 OFFCURVE",
"226 -144 CURVE",
"286 -203 LINE",
"411 -84 OFFCURVE",
"515 46 OFFCURVE",
"595 239 CURVE"
);
},
{
closed = 1;
nodes = (
"404 939 LINE",
"403 478 OFFCURVE",
"319 274 OFFCURVE",
"107 59 CURVE",
"169 0 LINE",
"383 217 OFFCURVE",
"487 432 OFFCURVE",
"490 938 CURVE"
);
}
);
};
layerId = "CFFEBDE4-599A-46B2-9328-D96E42CD9C81";
paths = (
{
closed = 1;
nodes = (
"449 342 LINE",
"368 204 OFFCURVE",
"285 120 OFFCURVE",
"160 26 CURVE",
"208 -40 LINE",
"339 57 OFFCURVE",
"429 149 OFFCURVE",
"519 299 CURVE"
);
},
{
closed = 1;
nodes = (
"546 160 LINE",
"456 29 OFFCURVE",
"364 -56 OFFCURVE",
"249 -136 CURVE",
"296 -203 LINE",
"418 -118 OFFCURVE",
"522 -22 OFFCURVE",
"613 114 CURVE"
);
},
{
closed = 1;
nodes = (
"404 939 LINE",
"373 571 OFFCURVE",
"313 405 OFFCURVE",
"70 190 CURVE",
"125 127 LINE",
"370 344 OFFCURVE",
"457 520 OFFCURVE",
"490 933 CURVE"
);
}
);
vertOrigin = 25;
vertWidth = 1362;
width = 713;
}
);
leftMetricsKey = u1B171;
rightMetricsKey = u1B171;
unicode = 1B18A;
},
{
glyphname = u1B18B;
lastChange = "2020-04-09 12:54:56 +0000";
layers = (
{
layerId = "CFFEBDE4-599A-46B2-9328-D96E42CD9C81";
paths = (
{
closed = 1;
nodes = (
"590 733 LINE",
"520 625 OFFCURVE",
"462 560 OFFCURVE",
"367 478 CURVE",
"397 372 OFFCURVE",
"408 287 OFFCURVE",
"408 189 CURVE SMOOTH",
"408 100 OFFCURVE",
"403 41 OFFCURVE",
"390 -32 CURVE",
"473 -46 LINE",
"487 36 OFFCURVE",
"494 106 OFFCURVE",
"494 190 CURVE SMOOTH",
"494 287 OFFCURVE",
"482 376 OFFCURVE",
"446 497 CURVE",
"440 430 LINE",
"524 504 OFFCURVE",
"590 578 OFFCURVE",
"660 687 CURVE"
);
},
{
closed = 1;
nodes = (
"467 939 LINE",
"376 789 OFFCURVE",
"267 669 OFFCURVE",
"140 550 CURVE",
"182 417 OFFCURVE",
"195 311 OFFCURVE",
"195 187 CURVE SMOOTH",
"195 51 OFFCURVE",
"179 -61 OFFCURVE",
"141 -179 CURVE",
"221 -203 LINE",
"265 -77 OFFCURVE",
"281 46 OFFCURVE",
"281 187 CURVE SMOOTH",
"281 315 OFFCURVE",
"264 431 OFFCURVE",
"226 568 CURVE",
"218 507 LINE",
"338 621 OFFCURVE",
"448 740 OFFCURVE",
"543 898 CURVE"
);
}
);
vertOrigin = 25;
vertWidth = 1362;
width = 730;
}
);
leftMetricsKey = u1B17E;
unicode = 1B18B;
},
{
glyphname = u1B18C;
lastChange = "2020-04-09 12:52:19 +0000";
layers = (
{
layerId = "CFFEBDE4-599A-46B2-9328-D96E42CD9C81";
paths = (
{
closed = 1;
nodes = (
"721 558 OFFCURVE",
"744 575 OFFCURVE",
"744 614 CURVE SMOOTH",
"744 653 OFFCURVE",
"721 670 OFFCURVE",
"693 670 CURVE SMOOTH",
"664 670 OFFCURVE",
"641 653 OFFCURVE",
"641 614 CURVE SMOOTH",
"641 575 OFFCURVE",
"664 558 OFFCURVE",
"693 558 CURVE SMOOTH"
);
},
{
closed = 1;
nodes = (
"160 156 OFFCURVE",
"183 173 OFFCURVE",
"183 212 CURVE SMOOTH",
"183 251 OFFCURVE",
"160 268 OFFCURVE",
"132 268 CURVE SMOOTH",
"103 268 OFFCURVE",
"80 251 OFFCURVE",
"80 212 CURVE SMOOTH",
"80 173 OFFCURVE",
"103 156 OFFCURVE",
"132 156 CURVE SMOOTH"
);
},
{
closed = 1;
nodes = (
"255 515 OFFCURVE",
"282 371 OFFCURVE",
"282 202 CURVE SMOOTH",
"282 64 OFFCURVE",
"260 -47 OFFCURVE",
"205 -171 CURVE",
"280 -203 LINE",
"344 -65 OFFCURVE",
"366 56 OFFCURVE",
"366 202 CURVE SMOOTH",
"366 390 OFFCURVE",
"335 539 OFFCURVE",
"247 741 CURVE",
"170 707 LINE"
);
},
{
closed = 1;
nodes = (
"571 279 OFFCURVE",
"536 406 OFFCURVE",
"536 593 CURVE SMOOTH",
"536 698 OFFCURVE",
"547 792 OFFCURVE",
"578 921 CURVE",
"496 939 LINE",
"463 810 OFFCURVE",
"452 710 OFFCURVE",
"452 594 CURVE SMOOTH",
"452 398 OFFCURVE",
"496 241 OFFCURVE",
"609 90 CURVE",
"675 139 LINE"
);
}
);
vertOrigin = 25;
vertWidth = 1362;
width = 824;
}
);
leftMetricsKey = u1B176;
rightMetricsKey = u1B177;
unicode = 1B18C;
},
{
glyphname = u1B18D;
lastChange = "2020-04-09 12:51:20 +0000";
layers = (
{
background = {
paths = (
{
closed = 1;
nodes = (
"457 939 LINE",
"374 765 OFFCURVE",
"277 639 OFFCURVE",
"150 520 CURVE",
"190 371 OFFCURVE",
"201 254 OFFCURVE",
"201 135 CURVE SMOOTH",
"201 -3 OFFCURVE",
"179 -128 OFFCURVE",
"133 -269 CURVE",
"209 -293 LINE",
"255 -143 OFFCURVE",
"281 -24 OFFCURVE",
"281 145 CURVE SMOOTH",
"281 271 OFFCURVE",
"266 388 OFFCURVE",
"228 538 CURVE",
"223 478 LINE",
"346 592 OFFCURVE",
"445 725 OFFCURVE",
"531 907 CURVE"
);
},
{
closed = 1;
nodes = (
"568 243 LINE",
"549 459 OFFCURVE",
"500 602 OFFCURVE",
"413 777 CURVE",
"370 673 LINE",
"431 540 OFFCURVE",
"465 416 OFFCURVE",
"483 234 CURVE"
);
}
);
};
layerId = "CFFEBDE4-599A-46B2-9328-D96E42CD9C81";
paths = (
{
closed = 1;
nodes = (
"512 278 LINE",
"501 350 OFFCURVE",
"482 410 OFFCURVE",
"448 490 CURVE",
"374 459 LINE",
"407 383 OFFCURVE",
"434 307 OFFCURVE",
"456 221 CURVE",
"545 218 LINE",
"609 308 OFFCURVE",
"631 394 OFFCURVE",
"631 476 CURVE SMOOTH",
"631 590 OFFCURVE",
"586 710 OFFCURVE",
"432 851 CURVE",
"391 779 LINE",
"515 649 OFFCURVE",
"545 568 OFFCURVE",
"545 470 CURVE SMOOTH",
"545 402 OFFCURVE",
"531 343 OFFCURVE",
"498 269 CURVE"
);
},
{
closed = 1;
nodes = (
"467 939 LINE",
"376 789 OFFCURVE",
"267 669 OFFCURVE",
"140 550 CURVE",
"182 417 OFFCURVE",
"195 311 OFFCURVE",
"195 187 CURVE SMOOTH",
"195 51 OFFCURVE",
"179 -61 OFFCURVE",
"141 -179 CURVE",
"221 -203 LINE",
"265 -77 OFFCURVE",
"281 46 OFFCURVE",
"281 187 CURVE SMOOTH",
"281 315 OFFCURVE",
"264 431 OFFCURVE",
"226 568 CURVE",
"218 507 LINE",
"338 621 OFFCURVE",
"448 740 OFFCURVE",
"543 898 CURVE"
);
}
);
vertOrigin = 25;
vertWidth = 1362;
width = 741;
}
);
leftMetricsKey = u1B17E;
unicode = 1B18D;
},
{
glyphname = u1B18E;
lastChange = "2020-04-09 13:01:39 +0000";
layers = (
{
background = {
paths = (
{
closed = 1;
nodes = (
"493 939 LINE",
"388 689 OFFCURVE",
"268 506 OFFCURVE",
"101 304 CURVE",
"168 250 LINE",
"333 448 OFFCURVE",
"465 651 OFFCURVE",
"574 909 CURVE"
);
},
{
closed = 1;
nodes = (
"136 831 LINE",
"340 490 OFFCURVE",
"483 155 OFFCURVE",
"596 -203 CURVE",
"678 -178 LINE",
"567 187 OFFCURVE",
"415 521 OFFCURVE",
"210 875 CURVE"
);
},
{
closed = 1;
nodes = (
"421 308 LINE",
"355 172 OFFCURVE",
"287 66 OFFCURVE",
"188 -65 CURVE",
"256 -118 LINE",
"350 6 OFFCURVE",
"417 110 OFFCURVE",
"486 265 CURVE"
);
}
);
};
layerId = "CFFEBDE4-599A-46B2-9328-D96E42CD9C81";
paths = (
{
closed = 1;
nodes = (
"383 109 LINE",
"360 8 OFFCURVE",
"337 -79 OFFCURVE",
"300 -180 CURVE",
"379 -203 LINE",
"416 -104 OFFCURVE",
"440 -11 OFFCURVE",
"462 92 CURVE"
);
},
{
closed = 1;
nodes = (
"497 939 LINE",
"388 739 OFFCURVE",
"263 566 OFFCURVE",
"80 374 CURVE",
"142 314 LINE",
"319 501 OFFCURVE",
"452 678 OFFCURVE",
"575 902 CURVE"
);
},
{
closed = 1;
nodes = (
"132 824 LINE",
"367 463 OFFCURVE",
"496 194 OFFCURVE",
"636 -153 CURVE",
"715 -120 LINE",
"567 254 OFFCURVE",
"432 510 OFFCURVE",
"203 874 CURVE"
);
},
{
closed = 1;
nodes = (
"414 419 LINE",
"317 274 OFFCURVE",
"243 178 OFFCURVE",
"123 51 CURVE",
"184 -7 LINE",
"293 109 OFFCURVE",
"379 218 OFFCURVE",
"474 364 CURVE"
);
}
);
vertOrigin = 25;
vertWidth = 1362;
width = 765;
}
);
unicode = 1B18E;
},
{
glyphname = u1B18F;
lastChange = "2020-04-09 08:08:47 +0000";
layers = (
{
layerId = "CFFEBDE4-599A-46B2-9328-D96E42CD9C81";
paths = (
{
closed = 1;
nodes = (
"648 383 OFFCURVE",
"671 400 OFFCURVE",
"671 439 CURVE SMOOTH",
"671 478 OFFCURVE",
"648 495 OFFCURVE",
"620 495 CURVE SMOOTH",
"591 495 OFFCURVE",
"568 478 OFFCURVE",
"568 439 CURVE SMOOTH",
"568 400 OFFCURVE",
"591 383 OFFCURVE",
"620 383 CURVE SMOOTH"
);
},
{
closed = 1;
nodes = (
"188 255 OFFCURVE",
"211 272 OFFCURVE",
"211 311 CURVE SMOOTH",
"211 350 OFFCURVE",
"188 367 OFFCURVE",
"160 367 CURVE SMOOTH",
"131 367 OFFCURVE",
"108 350 OFFCURVE",
"108 311 CURVE SMOOTH",
"108 272 OFFCURVE",
"131 255 OFFCURVE",
"160 255 CURVE SMOOTH"
);
},
{
closed = 1;
nodes = (
"625 -85 LINE",
"574 81 OFFCURVE",
"498 248 OFFCURVE",
"419 394 CURVE",
"391 424 LINE",
"323 547 OFFCURVE",
"257 656 OFFCURVE",
"167 771 CURVE",
"100 717 LINE",
"198 592 OFFCURVE",
"273 470 OFFCURVE",
"349 326 CURVE",
"378 291 LINE",
"442 162 OFFCURVE",
"502 22 OFFCURVE",
"544 -112 CURVE"
);
},
{
closed = 1;
nodes = (
"466 939 LINE",
"412 543 OFFCURVE",
"306 181 OFFCURVE",
"138 -167 CURVE",
"214 -203 LINE",
"380 141 OFFCURVE",
"494 514 OFFCURVE",
"551 928 CURVE"
);
}
);
vertOrigin = 25;
vertWidth = 1362;
width = 771;
}
);
unicode = 1B18F;
},
{
glyphname = u1B190;
lastChange = "2020-04-09 13:03:59 +0000";
layers = (
{
layerId = "CFFEBDE4-599A-46B2-9328-D96E42CD9C81";
paths = (
{
closed = 1;
nodes = (
"287 -102 OFFCURVE",
"325 -156 OFFCURVE",
"404 -203 CURVE",
"475 -194 LINE",
"555 -106 OFFCURVE",
"582 -33 OFFCURVE",
"582 43 CURVE SMOOTH",
"582 130 OFFCURVE",
"545 186 OFFCURVE",
"461 236 CURVE",
"387 226 LINE",
"310 123 OFFCURVE",
"287 50 OFFCURVE",
"287 -9 CURVE SMOOTH"
);
},
{
closed = 1;
nodes = (
"401 183 LINE",
"477 131 OFFCURVE",
"498 95 OFFCURVE",
"498 40 CURVE SMOOTH",
"498 -23 OFFCURVE",
"477 -72 OFFCURVE",
"415 -146 CURVE",
"454 -146 LINE",
"394 -105 OFFCURVE",
"371 -64 OFFCURVE",
"371 -10 CURVE SMOOTH",
"371 43 OFFCURVE",
"390 104 OFFCURVE",
"454 183 CURVE"
);
},
{
closed = 1;
nodes = (
"200 684 OFFCURVE",
"211 591 OFFCURVE",
"211 486 CURVE SMOOTH",
"211 359 OFFCURVE",
"182 262 OFFCURVE",
"100 150 CURVE",
"168 104 LINE",
"262 234 OFFCURVE",
"295 339 OFFCURVE",
"295 490 CURVE SMOOTH",
"295 599 OFFCURVE",
"281 695 OFFCURVE",
"235 821 CURVE",
"158 793 LINE"
);
},
{
closed = 1;
nodes = (
"593 440 OFFCURVE",
"561 519 OFFCURVE",
"561 651 CURVE SMOOTH",
"561 745 OFFCURVE",
"572 817 OFFCURVE",
"606 915 CURVE",
"528 939 LINE",
"489 830 OFFCURVE",
"477 749 OFFCURVE",
"477 651 CURVE SMOOTH",
"477 499 OFFCURVE",
"524 383 OFFCURVE",
"632 273 CURVE",
"692 329 LINE"
);
}
);
vertOrigin = 25;
vertWidth = 1362;
width = 792;
}
);
leftMetricsKey = u1B174;
rightMetricsKey = u1B174;
unicode = 1B190;
},
{
glyphname = u1B191;
lastChange = "2020-04-09 13:04:36 +0000";
layers = (
{
background = {
paths = (
{
closed = 1;
nodes = (
"523 939 LINE",
"371 765 OFFCURVE",
"235 646 OFFCURVE",
"60 520 CURVE",
"110 453 LINE",
"286 580 OFFCURVE",
"421 695 OFFCURVE",
"587 882 CURVE"
);
},
{
closed = 1;
nodes = (
"515 740 OFFCURVE",
"539 692 OFFCURVE",
"539 629 CURVE SMOOTH",
"539 520 OFFCURVE",
"456 441 OFFCURVE",
"140 229 CURVE",
"188 160 LINE",
"533 388 OFFCURVE",
"625 491 OFFCURVE",
"625 629 CURVE SMOOTH",
"625 719 OFFCURVE",
"594 781 OFFCURVE",
"511 864 CURVE",
"462 793 LINE"
);
},
{
closed = 1;
nodes = (
"382 363 LINE",
"398 247 OFFCURVE",
"403 170 OFFCURVE",
"403 42 CURVE SMOOTH",
"403 -51 OFFCURVE",
"399 -113 OFFCURVE",
"391 -196 CURVE",
"476 -203 LINE",
"485 -122 OFFCURVE",
"489 -53 OFFCURVE",
"489 40 CURVE SMOOTH",
"489 170 OFFCURVE",
"480 281 OFFCURVE",
"457 408 CURVE"
);
}
);
};
layerId = "CFFEBDE4-599A-46B2-9328-D96E42CD9C81";
paths = (
{
closed = 1;
nodes = (
"655 356 LINE",
"509 215 OFFCURVE",
"371 117 OFFCURVE",
"185 14 CURVE",
"227 -61 LINE",
"424 49 OFFCURVE",
"550 140 OFFCURVE",
"715 294 CURVE"
);
},
{
closed = 1;
nodes = (
"522 939 LINE",
"379 774 OFFCURVE",
"235 650 OFFCURVE",
"60 522 CURVE",
"111 453 LINE",
"286 580 OFFCURVE",
"431 704 OFFCURVE",
"588 884 CURVE"
);
},
{
closed = 1;
nodes = (
"504 734 OFFCURVE",
"528 692 OFFCURVE",
"528 629 CURVE SMOOTH",
"528 530 OFFCURVE",
"442 444 OFFCURVE",
"142 252 CURVE",
"189 180 LINE",
"518 388 OFFCURVE",
"614 501 OFFCURVE",
"614 629 CURVE SMOOTH",
"614 719 OFFCURVE",
"583 775 OFFCURVE",
"500 864 CURVE",
"451 793 LINE"
);
},
{
closed = 1;
nodes = (
"380 363 LINE",
"396 247 OFFCURVE",
"401 170 OFFCURVE",
"401 42 CURVE SMOOTH",
"401 -51 OFFCURVE",
"397 -113 OFFCURVE",
"389 -196 CURVE",
"474 -203 LINE",
"483 -122 OFFCURVE",
"487 -53 OFFCURVE",
"487 40 CURVE SMOOTH",
"487 170 OFFCURVE",
"481 263 OFFCURVE",
"446 408 CURVE"
);
}
);
vertOrigin = 25;
vertWidth = 1362;
width = 795;
}
);
leftMetricsKey = u1B179;
unicode = 1B191;
},
{
glyphname = u1B192;
lastChange = "2020-04-09 13:06:42 +0000";
layers = (
{
background = {
paths = (
{
closed = 1;
nodes = (
"513 939 LINE",
"422 789 OFFCURVE",
"313 669 OFFCURVE",
"186 550 CURVE",
"228 417 OFFCURVE",
"241 311 OFFCURVE",
"241 187 CURVE SMOOTH",
"241 51 OFFCURVE",
"225 -61 OFFCURVE",
"187 -179 CURVE",
"267 -203 LINE",
"311 -77 OFFCURVE",
"327 46 OFFCURVE",
"327 187 CURVE SMOOTH",
"327 315 OFFCURVE",
"310 431 OFFCURVE",
"272 568 CURVE",
"264 507 LINE",
"384 621 OFFCURVE",
"494 740 OFFCURVE",
"589 898 CURVE"
);
},
{
closed = 1;
nodes = (
"624 315 LINE",
"596 492 OFFCURVE",
"556 611 OFFCURVE",
"469 777 CURVE",
"417 702 LINE",
"485 557 OFFCURVE",
"515 459 OFFCURVE",
"539 302 CURVE"
);
}
);
};
layerId = "CFFEBDE4-599A-46B2-9328-D96E42CD9C81";
paths = (
{
closed = 1;
nodes = (
"150 101 OFFCURVE",
"173 118 OFFCURVE",
"173 157 CURVE SMOOTH",
"173 196 OFFCURVE",
"150 213 OFFCURVE",
"122 213 CURVE SMOOTH",
"93 213 OFFCURVE",
"70 196 OFFCURVE",
"70 157 CURVE SMOOTH",
"70 118 OFFCURVE",
"93 101 OFFCURVE",
"122 101 CURVE SMOOTH"
);
},
{
closed = 1;
nodes = (
"513 939 LINE",
"422 789 OFFCURVE",
"313 669 OFFCURVE",
"186 550 CURVE",
"250 399 OFFCURVE",
"270 299 OFFCURVE",
"270 167 CURVE SMOOTH",
"270 37 OFFCURVE",
"251 -55 OFFCURVE",
"202 -172 CURVE",
"280 -203 LINE",
"333 -84 OFFCURVE",
"356 24 OFFCURVE",
"356 167 CURVE SMOOTH",
"356 299 OFFCURVE",
"331 421 OFFCURVE",
"271 568 CURVE",
"264 507 LINE",
"384 619 OFFCURVE",
"493 739 OFFCURVE",
"589 898 CURVE"
);
},
{
closed = 1;
nodes = (
"628 315 LINE",
"606 497 OFFCURVE",
"566 614 OFFCURVE",
"469 777 CURVE",
"417 702 LINE",
"495 560 OFFCURVE",
"525 466 OFFCURVE",
"543 304 CURVE"
);
}
);
vertOrigin = 25;
vertWidth = 1362;
width = 728;
}
);
rightMetricsKey = u1B17E;
unicode = 1B192;
},
{
glyphname = u1B193;
lastChange = "2020-04-09 13:43:52 +0000";
layers = (
{
background = {
paths = (
{
closed = 1;
nodes = (
"708 939 LINE",
"667 440 OFFCURVE",
"565 76 OFFCURVE",
"385 -208 CURVE",
"435 -219 LINE",
"373 -28 OFFCURVE",
"305 136 OFFCURVE",
"216 304 CURVE",
"143 261 LINE",
"229 92 OFFCURVE",
"290 -45 OFFCURVE",
"356 -243 CURVE",
"456 -253 LINE",
"634 24 OFFCURVE",
"751 382 OFFCURVE",
"792 931 CURVE"
);
},
{
closed = 1;
nodes = (
"110 -101 OFFCURVE",
"133 -84 OFFCURVE",
"133 -45 CURVE SMOOTH",
"133 -6 OFFCURVE",
"110 11 OFFCURVE",
"82 11 CURVE SMOOTH",
"53 11 OFFCURVE",
"30 -6 OFFCURVE",
"30 -45 CURVE SMOOTH",
"30 -84 OFFCURVE",
"53 -101 OFFCURVE",
"82 -101 CURVE SMOOTH"
);
},
{
closed = 1;
nodes = (
"438 299 OFFCURVE",
"461 316 OFFCURVE",
"461 355 CURVE SMOOTH",
"461 394 OFFCURVE",
"438 411 OFFCURVE",
"410 411 CURVE SMOOTH",
"381 411 OFFCURVE",
"358 394 OFFCURVE",
"358 355 CURVE SMOOTH",
"358 316 OFFCURVE",
"381 299 OFFCURVE",
"410 299 CURVE SMOOTH"
);
}
);
};
layerId = "CFFEBDE4-599A-46B2-9328-D96E42CD9C81";
paths = (
{
closed = 1;
nodes = (
"140 29 OFFCURVE",
"163 46 OFFCURVE",
"163 85 CURVE SMOOTH",
"163 124 OFFCURVE",
"140 141 OFFCURVE",
"112 141 CURVE SMOOTH",
"83 141 OFFCURVE",
"60 124 OFFCURVE",
"60 85 CURVE SMOOTH",
"60 46 OFFCURVE",
"83 29 OFFCURVE",
"112 29 CURVE SMOOTH"
);
},
{
closed = 1;
nodes = (
"448 409 OFFCURVE",
"471 426 OFFCURVE",
"471 465 CURVE SMOOTH",
"471 504 OFFCURVE",
"448 521 OFFCURVE",
"420 521 CURVE SMOOTH",
"391 521 OFFCURVE",
"368 504 OFFCURVE",
"368 465 CURVE SMOOTH",
"368 426 OFFCURVE",
"391 409 OFFCURVE",
"420 409 CURVE SMOOTH"
);
},
{
closed = 1;
nodes = (
"684 865 LINE",
"622 489 OFFCURVE",
"542 208 OFFCURVE",
"415 -48 CURVE",
"465 -59 LINE",
"405 103 OFFCURVE",
"345 240 OFFCURVE",
"256 376 CURVE",
"184 329 LINE",
"270 192 OFFCURVE",
"322 86 OFFCURVE",
"386 -83 CURVE",
"486 -93 LINE",
"611 156 OFFCURVE",
"700 428 OFFCURVE",
"769 854 CURVE"
);
}
);
vertOrigin = 24;
vertWidth = 1362;
width = 849;
}
);
leftMetricsKey = u1B188;
rightMetricsKey = u1B188;
unicode = 1B193;
},
{
glyphname = u1B194;
lastChange = "2020-04-09 13:07:56 +0000";
layers = (
{
background = {
paths = (
{
closed = 1;
nodes = (
"483 939 LINE",
"378 689 OFFCURVE",
"258 506 OFFCURVE",
"91 304 CURVE",
"158 250 LINE",
"323 448 OFFCURVE",
"455 651 OFFCURVE",
"564 909 CURVE"
);
},
{
closed = 1;
nodes = (
"126 831 LINE",
"330 490 OFFCURVE",
"473 155 OFFCURVE",
"586 -203 CURVE",
"668 -178 LINE",
"557 187 OFFCURVE",
"405 521 OFFCURVE",
"200 875 CURVE"
);
},
{
closed = 1;
nodes = (
"411 308 LINE",
"345 172 OFFCURVE",
"277 66 OFFCURVE",
"178 -65 CURVE",
"246 -118 LINE",
"340 6 OFFCURVE",
"407 110 OFFCURVE",
"476 265 CURVE"
);
}
);
};
layerId = "CFFEBDE4-599A-46B2-9328-D96E42CD9C81";
paths = (
{
closed = 1;
nodes = (
"506 168 LINE",
"445 56 OFFCURVE",
"387 -30 OFFCURVE",
"297 -148 CURVE",
"366 -199 LINE",
"455 -85 OFFCURVE",
"514 7 OFFCURVE",
"577 127 CURVE"
);
},
{
closed = 1;
nodes = (
"481 939 LINE",
"369 723 OFFCURVE",
"252 553 OFFCURVE",
"80 354 CURVE",
"146 299 LINE",
"314 493 OFFCURVE",
"435 663 OFFCURVE",
"560 904 CURVE"
);
},
{
closed = 1;
nodes = (
"616 711 LINE",
"496 498 OFFCURVE",
"360 310 OFFCURVE",
"180 108 CURVE",
"247 53 LINE",
"424 255 OFFCURVE",
"562 443 OFFCURVE",
"693 673 CURVE"
);
},
{
closed = 1;
nodes = (
"120 829 LINE",
"348 468 OFFCURVE",
"495 144 OFFCURVE",
"636 -203 CURVE",
"715 -171 LINE",
"568 203 OFFCURVE",
"412 516 OFFCURVE",
"193 874 CURVE"
);
}
);
vertOrigin = 25;
vertWidth = 1362;
width = 815;
}
);
leftMetricsKey = u1B18E;
unicode = 1B194;
},
{
glyphname = u1B195;
lastChange = "2020-04-09 13:08:11 +0000";
layers = (
{
layerId = "CFFEBDE4-599A-46B2-9328-D96E42CD9C81";
paths = (
{
closed = 1;
nodes = (
"735 509 OFFCURVE",
"758 526 OFFCURVE",
"758 565 CURVE SMOOTH",
"758 604 OFFCURVE",
"735 621 OFFCURVE",
"707 621 CURVE SMOOTH",
"678 621 OFFCURVE",
"655 604 OFFCURVE",
"655 565 CURVE SMOOTH",
"655 526 OFFCURVE",
"678 509 OFFCURVE",
"707 509 CURVE SMOOTH"
);
},
{
closed = 1;
nodes = (
"160 386 OFFCURVE",
"183 403 OFFCURVE",
"183 442 CURVE SMOOTH",
"183 481 OFFCURVE",
"160 498 OFFCURVE",
"132 498 CURVE SMOOTH",
"103 498 OFFCURVE",
"80 481 OFFCURVE",
"80 442 CURVE SMOOTH",
"80 403 OFFCURVE",
"103 386 OFFCURVE",
"132 386 CURVE SMOOTH"
);
},
{
closed = 1;
nodes = (
"755 -72 LINE",
"664 156 OFFCURVE",
"566 320 OFFCURVE",
"429 511 CURVE",
"413 387 LINE",
"515 236 OFFCURVE",
"602 78 OFFCURVE",
"675 -104 CURVE"
);
},
{
closed = 1;
nodes = (
"399 939 LINE",
"398 478 OFFCURVE",
"321 133 OFFCURVE",
"143 -162 CURVE",
"218 -203 LINE",
"400 94 OFFCURVE",
"483 443 OFFCURVE",
"485 938 CURVE"
);
}
);
vertOrigin = 25;
vertWidth = 1362;
width = 838;
}
);
leftMetricsKey = u1B176;
unicode = 1B195;
},
{
glyphname = u1B196;
lastChange = "2020-04-09 13:08:52 +0000";
layers = (
{
background = {
paths = (
{
closed = 1;
nodes = (
"605 -85 LINE",
"554 81 OFFCURVE",
"478 248 OFFCURVE",
"399 394 CURVE",
"371 424 LINE",
"303 547 OFFCURVE",
"237 656 OFFCURVE",
"147 771 CURVE",
"80 717 LINE",
"178 592 OFFCURVE",
"253 470 OFFCURVE",
"329 326 CURVE",
"358 291 LINE",
"422 162 OFFCURVE",
"482 22 OFFCURVE",
"524 -112 CURVE"
);
},
{
closed = 1;
nodes = (
"446 939 LINE",
"392 543 OFFCURVE",
"286 181 OFFCURVE",
"118 -167 CURVE",
"194 -203 LINE",
"360 141 OFFCURVE",
"474 514 OFFCURVE",
"531 928 CURVE"
);
}
);
};
layerId = "CFFEBDE4-599A-46B2-9328-D96E42CD9C81";
paths = (
{
closed = 1;
nodes = (
"409 487 OFFCURVE",
"353 254 OFFCURVE",
"157 -167 CURVE",
"233 -203 LINE",
"417 190 OFFCURVE",
"502 481 OFFCURVE",
"564 879 CURVE",
"521 879 LINE",
"564 783 OFFCURVE",
"595 694 OFFCURVE",
"623 591 CURVE",
"705 612 LINE",
"669 732 OFFCURVE",
"635 820 OFFCURVE",
"578 939 CURVE",
"487 925 LINE"
);
},
{
closed = 1;
nodes = (
"336 447 OFFCURVE",
"470 177 OFFCURVE",
"565 -113 CURVE",
"646 -85 LINE",
"536 239 OFFCURVE",
"408 484 OFFCURVE",
"212 772 CURVE",
"128 759 LINE",
"113 585 OFFCURVE",
"100 491 OFFCURVE",
"80 390 CURVE",
"163 376 LINE",
"181 477 OFFCURVE",
"189 548 OFFCURVE",
"198 714 CURVE",
"151 706 LINE"
);
}
);
vertOrigin = 25;
vertWidth = 1362;
width = 765;
}
);
unicode = 1B196;
},
{
glyphname = u1B197;
lastChange = "2020-04-09 08:34:29 +0000";
layers = (
{
background = {
paths = (
{
closed = 1;
nodes = (
"448 939 LINE",
"336 649 OFFCURVE",
"240 478 OFFCURVE",
"60 256 CURVE",
"128 202 LINE",
"311 434 OFFCURVE",
"412 622 OFFCURVE",
"531 912 CURVE"
);
},
{
closed = 1;
nodes = (
"596 207 LINE",
"487 15 OFFCURVE",
"371 -117 OFFCURVE",
"252 -232 CURVE",
"313 -293 LINE",
"443 -162 OFFCURVE",
"555 -37 OFFCURVE",
"671 164 CURVE"
);
},
{
closed = 1;
nodes = (
"246 451 LINE",
"316 272 OFFCURVE",
"370 87 OFFCURVE",
"417 -108 CURVE",
"494 -76 LINE",
"445 142 OFFCURVE",
"381 341 OFFCURVE",
"309 526 CURVE"
);
},
{
closed = 1;
nodes = (
"506 510 LINE",
"407 329 OFFCURVE",
"304 171 OFFCURVE",
"163 20 CURVE",
"226 -38 LINE",
"367 113 OFFCURVE",
"475 283 OFFCURVE",
"581 466 CURVE"
);
}
);
};
layerId = "CFFEBDE4-599A-46B2-9328-D96E42CD9C81";
paths = (
{
closed = 1;
nodes = (
"474 939 LINE",
"361 688 OFFCURVE",
"236 502 OFFCURVE",
"80 318 CURVE",
"147 264 LINE",
"308 450 OFFCURVE",
"426 633 OFFCURVE",
"554 906 CURVE"
);
},
{
closed = 1;
nodes = (
"662 286 LINE",
"575 132 OFFCURVE",
"463 -12 OFFCURVE",
"331 -142 CURVE",
"389 -203 LINE",
"532 -57 OFFCURVE",
"643 80 OFFCURVE",
"737 243 CURVE"
);
},
{
closed = 1;
nodes = (
"560 -1 LINE",
"479 289 OFFCURVE",
"364 562 OFFCURVE",
"207 863 CURVE",
"131 823 LINE",
"296 518 OFFCURVE",
"402 239 OFFCURVE",
"483 -29 CURVE"
);
},
{
closed = 1;
nodes = (
"549 573 LINE",
"448 394 OFFCURVE",
"336 236 OFFCURVE",
"200 87 CURVE",
"263 31 LINE",
"399 180 OFFCURVE",
"515 343 OFFCURVE",
"623 532 CURVE"
);
}
);
vertOrigin = 25;
vertWidth = 1362;
width = 817;
}
);
unicode = 1B197;
},
{
glyphname = u1B198;
lastChange = "2020-04-09 13:19:37 +0000";
layers = (
{
background = {
paths = (
{
closed = 1;
nodes = (
"512 278 LINE",
"501 350 OFFCURVE",
"482 410 OFFCURVE",
"448 490 CURVE",
"374 459 LINE",
"407 383 OFFCURVE",
"434 307 OFFCURVE",
"456 221 CURVE",
"545 218 LINE",
"609 308 OFFCURVE",
"631 394 OFFCURVE",
"631 476 CURVE SMOOTH",
"631 590 OFFCURVE",
"586 710 OFFCURVE",
"432 851 CURVE",
"391 779 LINE",
"515 649 OFFCURVE",
"545 568 OFFCURVE",
"545 470 CURVE SMOOTH",
"545 402 OFFCURVE",
"531 343 OFFCURVE",
"498 269 CURVE"
);
},
{
closed = 1;
nodes = (
"467 939 LINE",
"376 789 OFFCURVE",
"267 669 OFFCURVE",
"140 550 CURVE",
"182 417 OFFCURVE",
"195 311 OFFCURVE",
"195 187 CURVE SMOOTH",
"195 51 OFFCURVE",
"179 -61 OFFCURVE",
"141 -179 CURVE",
"221 -203 LINE",
"265 -77 OFFCURVE",
"281 46 OFFCURVE",
"281 187 CURVE SMOOTH",
"281 315 OFFCURVE",
"264 431 OFFCURVE",
"226 568 CURVE",
"218 507 LINE",
"338 621 OFFCURVE",
"448 740 OFFCURVE",
"543 898 CURVE"
);
}
);
};
layerId = "CFFEBDE4-599A-46B2-9328-D96E42CD9C81";
paths = (
{
closed = 1;
nodes = (
"398 359 OFFCURVE",
"429 292 OFFCURVE",
"505 241 CURVE",
"583 251 LINE",
"631 316 OFFCURVE",
"646 378 OFFCURVE",
"646 440 CURVE SMOOTH",
"646 556 OFFCURVE",
"602 658 OFFCURVE",
"441 851 CURVE",
"397 777 LINE",
"525 621 OFFCURVE",
"562 538 OFFCURVE",
"562 440 CURVE SMOOTH",
"562 395 OFFCURVE",
"556 351 OFFCURVE",
"523 292 CURVE",
"551 301 LINE",
"498 347 OFFCURVE",
"482 385 OFFCURVE",
"482 434 CURVE SMOOTH",
"482 484 OFFCURVE",
"500 536 OFFCURVE",
"561 602 CURVE",
"535 679 LINE",
"428 568 OFFCURVE",
"398 497 OFFCURVE",
"398 429 CURVE SMOOTH"
);
},
{
closed = 1;
nodes = (
"467 939 LINE",
"376 789 OFFCURVE",
"267 669 OFFCURVE",
"140 550 CURVE",
"182 417 OFFCURVE",
"195 311 OFFCURVE",
"195 187 CURVE SMOOTH",
"195 51 OFFCURVE",
"179 -61 OFFCURVE",
"141 -179 CURVE",
"221 -203 LINE",
"265 -77 OFFCURVE",
"281 46 OFFCURVE",
"281 187 CURVE SMOOTH",
"281 315 OFFCURVE",
"264 431 OFFCURVE",
"226 568 CURVE",
"218 507 LINE",
"338 621 OFFCURVE",
"448 740 OFFCURVE",
"543 898 CURVE"
);
}
);
vertOrigin = 25;
vertWidth = 1362;
width = 756;
}
);
leftMetricsKey = u1B17E;
rightMetricsKey = u1B18D;
unicode = 1B198;
},
{
glyphname = u1B199;
lastChange = "2020-04-09 13:19:00 +0000";
layers = (
{
layerId = "CFFEBDE4-599A-46B2-9328-D96E42CD9C81";
paths = (
{
closed = 1;
nodes = (
"345 393 LINE",
"289 168 OFFCURVE",
"218 17 OFFCURVE",
"99 -156 CURVE",
"171 -203 LINE",
"293 -23 OFFCURVE",
"369 131 OFFCURVE",
"429 375 CURVE"
);
},
{
closed = 1;
nodes = (
"333 232 LINE",
"444 86 OFFCURVE",
"512 -37 OFFCURVE",
"575 -181 CURVE",
"654 -146 LINE",
"580 14 OFFCURVE",
"506 146 OFFCURVE",
"391 293 CURVE"
);
},
{
closed = 1;
nodes = (
"325 939 LINE",
"263 691 OFFCURVE",
"192 543 OFFCURVE",
"50 364 CURVE",
"118 312 LINE",
"263 492 OFFCURVE",
"346 668 OFFCURVE",
"409 920 CURVE"
);
},
{
closed = 1;
nodes = (
"324 784 LINE",
"438 648 OFFCURVE",
"525 517 OFFCURVE",
"612 340 CURVE",
"689 377 LINE",
"587 579 OFFCURVE",
"502 699 OFFCURVE",
"377 854 CURVE"
);
}
);
vertOrigin = 25;
vertWidth = 1362;
width = 779;
}
);
leftMetricsKey = u1B185;
rightMetricsKey = u1B185;
unicode = 1B199;
},
{
glyphname = u1B19A;
lastChange = "2020-04-09 13:17:29 +0000";
layers = (
{
background = {
paths = (
{
closed = 1;
nodes = (
"457 939 LINE",
"374 765 OFFCURVE",
"277 639 OFFCURVE",
"150 520 CURVE",
"188 375 OFFCURVE",
"201 271 OFFCURVE",
"201 135 CURVE SMOOTH",
"201 -21 OFFCURVE",
"181 -127 OFFCURVE",
"134 -267 CURVE",
"215 -293 LINE",
"269 -145 OFFCURVE",
"287 -23 OFFCURVE",
"287 129 CURVE SMOOTH",
"287 271 OFFCURVE",
"271 388 OFFCURVE",
"233 538 CURVE",
"228 477 LINE",
"350 591 OFFCURVE",
"449 721 OFFCURVE",
"535 903 CURVE"
);
},
{
closed = 1;
nodes = (
"568 243 LINE",
"549 459 OFFCURVE",
"500 602 OFFCURVE",
"413 777 CURVE",
"370 673 LINE",
"431 540 OFFCURVE",
"465 416 OFFCURVE",
"483 234 CURVE"
);
}
);
};
layerId = "CFFEBDE4-599A-46B2-9328-D96E42CD9C81";
paths = (
{
closed = 1;
nodes = (
"606 939 LINE",
"528 676 OFFCURVE",
"428 525 OFFCURVE",
"265 381 CURVE",
"310 320 LINE",
"504 481 OFFCURVE",
"603 639 OFFCURVE",
"689 914 CURVE"
);
},
{
closed = 1;
nodes = (
"190 609 OFFCURVE",
"216 471 OFFCURVE",
"216 291 CURVE SMOOTH",
"216 114 OFFCURVE",
"198 -7 OFFCURVE",
"136 -175 CURVE",
"215 -203 LINE",
"278 -32 OFFCURVE",
"302 108 OFFCURVE",
"302 291 CURVE SMOOTH",
"302 481 OFFCURVE",
"267 642 OFFCURVE",
"187 820 CURVE",
"110 787 LINE"
);
},
{
closed = 1;
nodes = (
"585 -105 LINE",
"653 13 OFFCURVE",
"707 144 OFFCURVE",
"747 294 CURVE",
"664 317 LINE",
"625 166 OFFCURVE",
"586 63 OFFCURVE",
"538 -28 CURVE",
"555 -37 LINE",
"514 114 OFFCURVE",
"443 262 OFFCURVE",
"333 381 CURVE",
"279 329 LINE",
"385 191 OFFCURVE",
"444 56 OFFCURVE",
"490 -96 CURVE"
);
}
);
vertOrigin = 25;
vertWidth = 1362;
width = 807;
}
);
leftMetricsKey = u1B186;
unicode = 1B19A;
},
{
glyphname = u1B19B;
lastChange = "2020-04-09 13:16:10 +0000";
layers = (
{
layerId = "CFFEBDE4-599A-46B2-9328-D96E42CD9C81";
paths = (
{
closed = 1;
nodes = (
"180 50 OFFCURVE",
"203 67 OFFCURVE",
"203 106 CURVE SMOOTH",
"203 145 OFFCURVE",
"180 162 OFFCURVE",
"152 162 CURVE SMOOTH",
"123 162 OFFCURVE",
"100 145 OFFCURVE",
"100 106 CURVE SMOOTH",
"100 67 OFFCURVE",
"123 50 OFFCURVE",
"152 50 CURVE SMOOTH"
);
},
{
closed = 1;
nodes = (
"246 259 OFFCURVE",
"269 276 OFFCURVE",
"269 315 CURVE SMOOTH",
"269 354 OFFCURVE",
"246 371 OFFCURVE",
"218 371 CURVE SMOOTH",
"189 371 OFFCURVE",
"166 354 OFFCURVE",
"166 315 CURVE SMOOTH",
"166 276 OFFCURVE",
"189 259 OFFCURVE",
"218 259 CURVE SMOOTH"
);
},
{
closed = 1;
nodes = (
"685 -85 LINE",
"634 81 OFFCURVE",
"558 248 OFFCURVE",
"479 394 CURVE",
"451 424 LINE",
"383 547 OFFCURVE",
"317 656 OFFCURVE",
"227 771 CURVE",
"160 717 LINE",
"258 592 OFFCURVE",
"333 470 OFFCURVE",
"409 326 CURVE",
"438 291 LINE",
"502 162 OFFCURVE",
"562 22 OFFCURVE",
"604 -112 CURVE"
);
},
{
closed = 1;
nodes = (
"526 939 LINE",
"472 543 OFFCURVE",
"366 181 OFFCURVE",
"198 -167 CURVE",
"274 -203 LINE",
"440 141 OFFCURVE",
"554 514 OFFCURVE",
"611 928 CURVE"
);
}
);
vertOrigin = 25;
vertWidth = 1362;
width = 785;
}
);
unicode = 1B19B;
},
{
glyphname = u1B19C;
lastChange = "2020-04-09 13:16:02 +0000";
layers = (
{
layerId = "CFFEBDE4-599A-46B2-9328-D96E42CD9C81";
paths = (
{
closed = 1;
nodes = (
"625 411 LINE",
"549 310 OFFCURVE",
"528 221 OFFCURVE",
"528 125 CURVE SMOOTH",
"528 27 OFFCURVE",
"555 -65 OFFCURVE",
"623 -136 CURVE",
"686 -84 LINE",
"634 -19 OFFCURVE",
"614 45 OFFCURVE",
"614 126 CURVE SMOOTH",
"614 202 OFFCURVE",
"634 282 OFFCURVE",
"693 365 CURVE"
);
},
{
closed = 1;
nodes = (
"206 -203 LINE",
"249 -133 OFFCURVE",
"266 -65 OFFCURVE",
"266 26 CURVE SMOOTH",
"266 122 OFFCURVE",
"237 195 OFFCURVE",
"164 283 CURVE",
"100 232 LINE",
"161 162 OFFCURVE",
"182 104 OFFCURVE",
"182 26 CURVE SMOOTH",
"182 -62 OFFCURVE",
"169 -109 OFFCURVE",
"136 -164 CURVE"
);
},
{
closed = 1;
nodes = (
"566 909 LINE",
"494 616 OFFCURVE",
"428 442 OFFCURVE",
"338 269 CURVE",
"376 273 LINE",
"328 393 OFFCURVE",
"256 520 OFFCURVE",
"189 619 CURVE",
"119 573 LINE",
"191 465 OFFCURVE",
"249 366 OFFCURVE",
"302 249 CURVE",
"412 241 LINE",
"505 413 OFFCURVE",
"570 578 OFFCURVE",
"650 892 CURVE"
);
}
);
vertOrigin = 25;
vertWidth = 1362;
width = 793;
}
);
leftMetricsKey = u1B174;
rightMetricsKey = u1B174;
unicode = 1B19C;
},
{
glyphname = u1B19D;
lastChange = "2020-04-09 13:13:29 +0000";
layers = (
{
background = {
paths = (
{
closed = 1;
nodes = (
"308 939 LINE",
"253 678 OFFCURVE",
"183 519 OFFCURVE",
"43 334 CURVE",
"111 282 LINE",
"250 456 OFFCURVE",
"335 655 OFFCURVE",
"393 924 CURVE"
);
},
{
closed = 1;
nodes = (
"317 784 LINE",
"415 646 OFFCURVE",
"504 509 OFFCURVE",
"595 320 CURVE",
"672 357 LINE",
"576 559 OFFCURVE",
"486 699 OFFCURVE",
"361 854 CURVE"
);
},
{
closed = 1;
nodes = (
"323 428 LINE",
"338 312 OFFCURVE",
"343 213 OFFCURVE",
"343 97 CURVE SMOOTH",
"343 -7 OFFCURVE",
"338 -95 OFFCURVE",
"322 -190 CURVE",
"406 -203 LINE",
"422 -106 OFFCURVE",
"429 -6 OFFCURVE",
"429 98 CURVE SMOOTH",
"429 221 OFFCURVE",
"422 321 OFFCURVE",
"404 439 CURVE"
);
}
);
};
layerId = "CFFEBDE4-599A-46B2-9328-D96E42CD9C81";
paths = (
{
closed = 1;
nodes = (
"521 595 LINE",
"440 320 OFFCURVE",
"324 99 OFFCURVE",
"156 -158 CURVE",
"227 -203 LINE",
"399 64 OFFCURVE",
"504 266 OFFCURVE",
"592 541 CURVE"
);
},
{
closed = 1;
nodes = (
"207 475 LINE",
"345 280 OFFCURVE",
"455 91 OFFCURVE",
"546 -123 CURVE",
"625 -90 LINE",
"518 155 OFFCURVE",
"399 353 OFFCURVE",
"257 548 CURVE"
);
},
{
closed = 1;
nodes = (
"344 939 LINE",
"277 686 OFFCURVE",
"199 506 OFFCURVE",
"60 297 CURVE",
"132 250 LINE",
"271 461 OFFCURVE",
"352 635 OFFCURVE",
"427 918 CURVE"
);
},
{
closed = 1;
nodes = (
"327 808 LINE",
"462 640 OFFCURVE",
"569 487 OFFCURVE",
"673 299 CURVE",
"747 343 LINE",
"638 534 OFFCURVE",
"532 690 OFFCURVE",
"374 879 CURVE"
);
}
);
vertOrigin = 25;
vertWidth = 1362;
width = 807;
}
);
unicode = 1B19D;
},
{
glyphname = u1B19E;
lastChange = "2020-04-09 13:12:56 +0000";
layers = (
{
background = {
paths = (
{
closed = 1;
nodes = (
"563 -198 LINE",
"539 195 OFFCURVE",
"483 409 OFFCURVE",
"355 692 CURVE",
"293 624 LINE",
"411 363 OFFCURVE",
"457 130 OFFCURVE",
"477 -203 CURVE"
);
},
{
closed = 1;
nodes = (
"477 939 LINE",
"363 743 OFFCURVE",
"232 578 OFFCURVE",
"60 426 CURVE",
"119 364 LINE",
"291 516 OFFCURVE",
"436 693 OFFCURVE",
"552 897 CURVE"
);
},
{
closed = 1;
nodes = (
"634 675 LINE",
"495 465 OFFCURVE",
"346 302 OFFCURVE",
"163 156 CURVE",
"217 89 LINE",
"396 232 OFFCURVE",
"558 403 OFFCURVE",
"706 627 CURVE"
);
}
);
};
layerId = "CFFEBDE4-599A-46B2-9328-D96E42CD9C81";
paths = (
{
closed = 1;
nodes = (
"516 161 OFFCURVE",
"453 474 OFFCURVE",
"352 704 CURVE",
"292 636 LINE",
"378 420 OFFCURVE",
"428 159 OFFCURVE",
"444 -112 CURVE",
"531 -153 LINE",
"636 -41 OFFCURVE",
"712 60 OFFCURVE",
"804 204 CURVE",
"729 246 LINE",
"649 113 OFFCURVE",
"577 17 OFFCURVE",
"493 -80 CURVE",
"525 -87 LINE"
);
},
{
closed = 1;
nodes = (
"476 939 LINE",
"362 743 OFFCURVE",
"232 580 OFFCURVE",
"60 428 CURVE",
"118 364 LINE",
"287 516 OFFCURVE",
"435 695 OFFCURVE",
"551 897 CURVE"
);
},
{
closed = 1;
nodes = (
"613 672 LINE",
"479 472 OFFCURVE",
"346 332 OFFCURVE",
"178 186 CURVE",
"236 123 LINE",
"400 266 OFFCURVE",
"541 410 OFFCURVE",
"684 624 CURVE"
);
}
);
vertOrigin = 25;
vertWidth = 1362;
width = 864;
}
);
unicode = 1B19E;
},
{
glyphname = u1B19F;
lastChange = "2020-04-09 13:11:57 +0000";
layers = (
{
layerId = "CFFEBDE4-599A-46B2-9328-D96E42CD9C81";
paths = (
{
closed = 1;
nodes = (
"50 385 LINE",
"81 275 OFFCURVE",
"101 184 OFFCURVE",
"113 76 CURVE",
"193 88 LINE",
"182 200 OFFCURVE",
"161 294 OFFCURVE",
"128 406 CURVE"
);
},
{
closed = 1;
nodes = (
"160 495 LINE",
"296 290 OFFCURVE",
"398 116 OFFCURVE",
"512 -107 CURVE",
"588 -68 LINE",
"470 166 OFFCURVE",
"360 348 OFFCURVE",
"209 576 CURVE",
"221 499 LINE",
"304 632 OFFCURVE",
"363 758 OFFCURVE",
"415 915 CURVE",
"332 939 LINE",
"281 786 OFFCURVE",
"230 678 OFFCURVE",
"160 566 CURVE"
);
},
{
closed = 1;
nodes = (
"404 709 OFFCURVE",
"430 632 OFFCURVE",
"430 536 CURVE SMOOTH",
"430 369 OFFCURVE",
"368 208 OFFCURVE",
"100 -153 CURVE",
"170 -203 LINE",
"437 150 OFFCURVE",
"516 350 OFFCURVE",
"516 536 CURVE SMOOTH",
"516 662 OFFCURVE",
"476 766 OFFCURVE",
"371 889 CURVE",
"336 803 LINE"
);
}
);
vertOrigin = 25;
vertWidth = 1362;
width = 688;
}
);
rightMetricsKey = u1B17C;
unicode = 1B19F;
},
{
glyphname = u1B1A0;
lastChange = "2020-04-09 13:11:13 +0000";
layers = (
{
background = {
paths = (
{
closed = 1;
nodes = (
"409 487 OFFCURVE",
"353 254 OFFCURVE",
"157 -167 CURVE",
"233 -203 LINE",
"417 190 OFFCURVE",
"502 481 OFFCURVE",
"564 879 CURVE",
"521 879 LINE",
"564 783 OFFCURVE",
"595 694 OFFCURVE",
"623 591 CURVE",
"705 612 LINE",
"669 732 OFFCURVE",
"635 820 OFFCURVE",
"578 939 CURVE",
"487 925 LINE"
);
},
{
closed = 1;
nodes = (
"336 447 OFFCURVE",
"470 177 OFFCURVE",
"565 -113 CURVE",
"646 -85 LINE",
"536 239 OFFCURVE",
"408 484 OFFCURVE",
"212 772 CURVE",
"128 759 LINE",
"113 585 OFFCURVE",
"100 491 OFFCURVE",
"80 390 CURVE",
"163 376 LINE",
"181 477 OFFCURVE",
"189 548 OFFCURVE",
"198 714 CURVE",
"151 706 LINE"
);
}
);
};
layerId = "CFFEBDE4-599A-46B2-9328-D96E42CD9C81";
paths = (
{
closed = 1;
nodes = (
"416 248 LINE",
"490 484 OFFCURVE",
"526 628 OFFCURVE",
"560 879 CURVE",
"522 879 LINE",
"566 777 OFFCURVE",
"591 708 OFFCURVE",
"623 591 CURVE",
"705 612 LINE",
"669 735 OFFCURVE",
"633 825 OFFCURVE",
"578 939 CURVE",
"487 925 LINE",
"448 702 OFFCURVE",
"420 561 OFFCURVE",
"376 406 CURVE"
);
},
{
closed = 1;
nodes = (
"474 363 OFFCURVE",
"374 594 OFFCURVE",
"204 782 CURVE",
"128 759 LINE",
"115 602 OFFCURVE",
"100 491 OFFCURVE",
"80 390 CURVE",
"163 376 LINE",
"181 477 OFFCURVE",
"192 577 OFFCURVE",
"200 714 CURVE",
"164 703 LINE",
"311 526 OFFCURVE",
"388 345 OFFCURVE",
"388 56 CURVE SMOOTH",
"388 -38 OFFCURVE",
"385 -104 OFFCURVE",
"374 -195 CURVE",
"457 -203 LINE",
"467 -124 OFFCURVE",
"474 -46 OFFCURVE",
"474 56 CURVE SMOOTH"
);
}
);
vertOrigin = 25;
vertWidth = 1362;
width = 765;
}
);
leftMetricsKey = u1B196;
rightMetricsKey = u1B196;
unicode = 1B1A0;
},
{
glyphname = u1B1A1;
lastChange = "2020-04-09 13:09:52 +0000";
layers = (
{
layerId = "CFFEBDE4-599A-46B2-9328-D96E42CD9C81";
paths = (
{
closed = 1;
nodes = (
"541 870 LINE",
"409 567 OFFCURVE",
"263 345 OFFCURVE",
"60 90 CURVE",
"127 36 LINE",
"330 288 OFFCURVE",
"482 519 OFFCURVE",
"621 839 CURVE"
);
},
{
closed = 1;
nodes = (
"202 554 OFFCURVE",
"225 571 OFFCURVE",
"225 610 CURVE SMOOTH",
"225 649 OFFCURVE",
"202 666 OFFCURVE",
"174 666 CURVE SMOOTH",
"145 666 OFFCURVE",
"122 649 OFFCURVE",
"122 610 CURVE SMOOTH",
"122 571 OFFCURVE",
"145 554 OFFCURVE",
"174 554 CURVE SMOOTH"
);
},
{
closed = 1;
nodes = (
"267 315 LINE",
"291 187 OFFCURVE",
"303 47 OFFCURVE",
"309 -112 CURVE",
"396 -153 LINE",
"507 -49 OFFCURVE",
"589 61 OFFCURVE",
"672 209 CURVE",
"597 251 LINE",
"518 108 OFFCURVE",
"445 9 OFFCURVE",
"358 -80 CURVE",
"393 -87 LINE",
"390 73 OFFCURVE",
"368 244 OFFCURVE",
"332 415 CURVE"
);
}
);
vertOrigin = 25;
vertWidth = 1362;
width = 732;
}
);
leftMetricsKey = u1B19E;
rightMetricsKey = u1B19E;
unicode = 1B1A1;
},
{
glyphname = u1B1A2;
lastChange = "2020-04-09 13:20:47 +0000";
layers = (
{
background = {
paths = (
{
closed = 1;
nodes = (
"525 597 LINE",
"443 328 OFFCURVE",
"338 99 OFFCURVE",
"170 -158 CURVE",
"241 -203 LINE",
"413 64 OFFCURVE",
"508 278 OFFCURVE",
"596 553 CURVE"
);
},
{
closed = 1;
nodes = (
"221 475 LINE",
"359 280 OFFCURVE",
"469 91 OFFCURVE",
"560 -123 CURVE",
"640 -92 LINE",
"533 153 OFFCURVE",
"413 351 OFFCURVE",
"271 543 CURVE"
);
},
{
closed = 1;
nodes = (
"358 939 LINE",
"291 686 OFFCURVE",
"213 506 OFFCURVE",
"74 297 CURVE",
"146 250 LINE",
"285 461 OFFCURVE",
"366 635 OFFCURVE",
"441 918 CURVE"
);
},
{
closed = 1;
nodes = (
"341 808 LINE",
"476 640 OFFCURVE",
"583 487 OFFCURVE",
"687 299 CURVE",
"761 343 LINE",
"652 534 OFFCURVE",
"546 690 OFFCURVE",
"388 879 CURVE"
);
}
);
};
layerId = "CFFEBDE4-599A-46B2-9328-D96E42CD9C81";
paths = (
{
closed = 1;
nodes = (
"343 -68 LINE",
"289 83 OFFCURVE",
"216 233 OFFCURVE",
"134 379 CURVE",
"60 336 LINE",
"137 200 OFFCURVE",
"214 45 OFFCURVE",
"274 -112 CURVE",
"375 -126 LINE",
"544 112 OFFCURVE",
"668 348 OFFCURVE",
"763 621 CURVE",
"681 648 LINE",
"586 377 OFFCURVE",
"466 141 OFFCURVE",
"315 -68 CURVE"
);
},
{
closed = 1;
nodes = (
"474 899 LINE",
"391 602 OFFCURVE",
"314 404 OFFCURVE",
"199 177 CURVE",
"248 99 LINE",
"396 375 OFFCURVE",
"471 579 OFFCURVE",
"558 879 CURVE"
);
},
{
closed = 1;
nodes = (
"138 699 LINE",
"262 496 OFFCURVE",
"352 320 OFFCURVE",
"446 85 CURVE",
"507 147 LINE",
"415 380 OFFCURVE",
"333 536 OFFCURVE",
"212 744 CURVE"
);
}
);
vertOrigin = 25;
vertWidth = 1362;
width = 823;
}
);
leftMetricsKey = u1B19D;
rightMetricsKey = u1B19D;
unicode = 1B1A2;
},
{
glyphname = u1B1A3;
lastChange = "2020-04-09 13:22:39 +0000";
layers = (
{
layerId = "CFFEBDE4-599A-46B2-9328-D96E42CD9C81";
paths = (
{
closed = 1;
nodes = (
"322 -203 LINE",
"468 -38 OFFCURVE",
"518 102 OFFCURVE",
"518 285 CURVE SMOOTH",
"518 450 OFFCURVE",
"468 561 OFFCURVE",
"337 735 CURVE",
"269 684 LINE",
"388 538 OFFCURVE",
"432 428 OFFCURVE",
"432 282 CURVE SMOOTH",
"432 116 OFFCURVE",
"390 -5 OFFCURVE",
"259 -151 CURVE"
);
},
{
closed = 1;
nodes = (
"436 939 LINE",
"324 782 OFFCURVE",
"213 666 OFFCURVE",
"70 548 CURVE",
"123 483 LINE",
"267 602 OFFCURVE",
"387 726 OFFCURVE",
"507 891 CURVE"
);
},
{
closed = 1;
nodes = (
"604 746 LINE",
"468 575 OFFCURVE",
"363 479 OFFCURVE",
"199 356 CURVE",
"247 287 LINE",
"413 413 OFFCURVE",
"533 525 OFFCURVE",
"671 692 CURVE"
);
},
{
closed = 1;
nodes = (
"166 118 LINE",
"347 27 OFFCURVE",
"489 -67 OFFCURVE",
"616 -169 CURVE",
"668 -103 LINE",
"524 9 OFFCURVE",
"382 103 OFFCURVE",
"202 194 CURVE"
);
}
);
vertOrigin = 25;
vertWidth = 1362;
width = 761;
}
);
unicode = 1B1A3;
},
{
glyphname = u1B1A4;
lastChange = "2020-04-09 13:23:24 +0000";
layers = (
{
background = {
paths = (
{
closed = 1;
nodes = (
"262 619 OFFCURVE",
"327 728 OFFCURVE",
"410 905 CURVE",
"331 939 LINE",
"249 767 OFFCURVE",
"183 649 OFFCURVE",
"70 494 CURVE",
"127 376 OFFCURVE",
"165 286 OFFCURVE",
"202 184 CURVE",
"286 175 LINE",
"368 273 OFFCURVE",
"448 396 OFFCURVE",
"510 511 CURVE",
"472 508 LINE",
"522 390 OFFCURVE",
"557 293 OFFCURVE",
"591 173 CURVE",
"590 249 LINE",
"507 95 OFFCURVE",
"428 -24 OFFCURVE",
"329 -151 CURVE",
"397 -203 LINE",
"513 -53 OFFCURVE",
"582 54 OFFCURVE",
"668 219 CURVE",
"629 349 OFFCURVE",
"592 450 OFFCURVE",
"538 572 CURVE",
"450 573 LINE",
"382 455 OFFCURVE",
"316 347 OFFCURVE",
"229 236 CURVE",
"272 241 LINE",
"241 327 OFFCURVE",
"203 414 OFFCURVE",
"147 532 CURVE",
"148 458 LINE"
);
}
);
};
layerId = "CFFEBDE4-599A-46B2-9328-D96E42CD9C81";
paths = (
{
closed = 1;
nodes = (
"290 384 OFFCURVE",
"454 258 OFFCURVE",
"573 150 CURVE",
"571 212 LINE",
"486 60 OFFCURVE",
"437 -17 OFFCURVE",
"333 -153 CURVE",
"398 -203 LINE",
"511 -56 OFFCURVE",
"570 34 OFFCURVE",
"655 191 CURVE",
"502 327 OFFCURVE",
"339 451 OFFCURVE",
"179 558 CURVE",
"187 510 LINE",
"266 628 OFFCURVE",
"333 744 OFFCURVE",
"411 902 CURVE",
"333 939 LINE",
"259 788 OFFCURVE",
"195 676 OFFCURVE",
"90 516 CURVE"
);
},
{
closed = 1;
nodes = (
"522 682 LINE",
"467 584 OFFCURVE",
"414 493 OFFCURVE",
"359 405 CURVE",
"329 367 LINE",
"265 270 OFFCURVE",
"208 197 OFFCURVE",
"138 114 CURVE",
"203 58 LINE",
"276 145 OFFCURVE",
"331 221 OFFCURVE",
"390 313 CURVE",
"421 349 LINE",
"483 442 OFFCURVE",
"540 536 OFFCURVE",
"597 641 CURVE"
);
}
);
vertOrigin = 25;
vertWidth = 1362;
width = 745;
}
);
unicode = 1B1A4;
},
{
glyphname = u1B1A5;
lastChange = "2020-04-09 13:24:23 +0000";
layers = (
{
background = {
paths = (
{
closed = 1;
nodes = (
"487 215 LINE",
"476 287 OFFCURVE",
"455 357 OFFCURVE",
"429 419 CURVE",
"355 389 LINE",
"386 314 OFFCURVE",
"403 246 OFFCURVE",
"420 169 CURVE",
"527 169 LINE",
"570 244 OFFCURVE",
"602 324 OFFCURVE",
"602 423 CURVE SMOOTH",
"602 520 OFFCURVE",
"555 652 OFFCURVE",
"420 801 CURVE",
"382 735 LINE",
"487 597 OFFCURVE",
"516 481 OFFCURVE",
"516 400 CURVE SMOOTH",
"516 332 OFFCURVE",
"499 269 OFFCURVE",
"473 206 CURVE"
);
},
{
closed = 1;
nodes = (
"447 939 LINE",
"369 772 OFFCURVE",
"264 633 OFFCURVE",
"141 520 CURVE",
"181 371 OFFCURVE",
"192 254 OFFCURVE",
"192 135 CURVE SMOOTH",
"192 -3 OFFCURVE",
"170 -128 OFFCURVE",
"124 -269 CURVE",
"200 -293 LINE",
"246 -143 OFFCURVE",
"272 -24 OFFCURVE",
"272 145 CURVE SMOOTH",
"272 271 OFFCURVE",
"257 388 OFFCURVE",
"219 538 CURVE",
"214 478 LINE",
"330 592 OFFCURVE",
"447 732 OFFCURVE",
"522 907 CURVE"
);
}
);
};
layerId = "CFFEBDE4-599A-46B2-9328-D96E42CD9C81";
paths = (
{
closed = 1;
nodes = (
"597 658 LINE",
"481 513 OFFCURVE",
"379 423 OFFCURVE",
"221 319 CURVE",
"263 248 LINE",
"422 346 OFFCURVE",
"543 454 OFFCURVE",
"663 606 CURVE"
);
},
{
closed = 1;
nodes = (
"331 713 LINE",
"426 473 OFFCURVE",
"463 296 OFFCURVE",
"485 86 CURVE",
"571 93 LINE",
"544 327 OFFCURVE",
"500 514 OFFCURVE",
"394 778 CURVE"
);
},
{
closed = 1;
nodes = (
"467 939 LINE",
"376 789 OFFCURVE",
"267 669 OFFCURVE",
"140 550 CURVE",
"182 417 OFFCURVE",
"195 311 OFFCURVE",
"195 187 CURVE SMOOTH",
"195 51 OFFCURVE",
"179 -61 OFFCURVE",
"141 -179 CURVE",
"221 -203 LINE",
"265 -77 OFFCURVE",
"281 46 OFFCURVE",
"281 187 CURVE SMOOTH",
"281 315 OFFCURVE",
"264 431 OFFCURVE",
"226 568 CURVE",
"218 507 LINE",
"338 621 OFFCURVE",
"448 740 OFFCURVE",
"543 898 CURVE"
);
}
);
vertOrigin = 25;
vertWidth = 1362;
width = 743;
}
);
leftMetricsKey = u1B17E;
unicode = 1B1A5;
},
{
glyphname = u1B1A6;
lastChange = "2020-04-09 08:15:41 +0000";
layers = (
{
layerId = "CFFEBDE4-599A-46B2-9328-D96E42CD9C81";
paths = (
{
closed = 1;
nodes = (
"474 939 LINE",
"386 634 OFFCURVE",
"284 384 OFFCURVE",
"120 99 CURVE",
"196 58 LINE",
"375 374 OFFCURVE",
"462 594 OFFCURVE",
"557 917 CURVE"
);
},
{
closed = 1;
nodes = (
"172 769 LINE",
"376 542 OFFCURVE",
"519 345 OFFCURVE",
"671 91 CURVE",
"743 137 LINE",
"577 416 OFFCURVE",
"434 606 OFFCURVE",
"234 828 CURVE"
);
},
{
closed = 1;
nodes = (
"617 676 LINE",
"521 405 OFFCURVE",
"396 121 OFFCURVE",
"236 -162 CURVE",
"312 -203 LINE",
"464 68 OFFCURVE",
"591 346 OFFCURVE",
"699 651 CURVE"
);
},
{
closed = 1;
nodes = (
"90 521 LINE",
"286 301 OFFCURVE",
"440 64 OFFCURVE",
"568 -168 CURVE",
"643 -127 LINE",
"503 132 OFFCURVE",
"343 359 OFFCURVE",
"154 581 CURVE"
);
}
);
vertOrigin = 25;
vertWidth = 1362;
width = 833;
}
);
unicode = 1B1A6;
},
{
glyphname = u1B1A7;
lastChange = "2020-04-09 08:37:17 +0000";
layers = (
{
background = {
paths = (
{
closed = 1;
nodes = (
"474 939 LINE",
"361 688 OFFCURVE",
"236 502 OFFCURVE",
"80 318 CURVE",
"147 264 LINE",
"308 450 OFFCURVE",
"426 633 OFFCURVE",
"554 906 CURVE"
);
},
{
closed = 1;
nodes = (
"662 286 LINE",
"575 132 OFFCURVE",
"463 -12 OFFCURVE",
"331 -142 CURVE",
"389 -203 LINE",
"532 -57 OFFCURVE",
"643 80 OFFCURVE",
"737 243 CURVE"
);
},
{
closed = 1;
nodes = (
"560 -1 LINE",
"479 289 OFFCURVE",
"364 562 OFFCURVE",
"207 863 CURVE",
"131 823 LINE",
"296 518 OFFCURVE",
"402 239 OFFCURVE",
"483 -29 CURVE"
);
},
{
closed = 1;
nodes = (
"549 573 LINE",
"448 394 OFFCURVE",
"336 236 OFFCURVE",
"200 87 CURVE",
"263 31 LINE",
"399 180 OFFCURVE",
"515 343 OFFCURVE",
"623 532 CURVE"
);
}
);
};
layerId = "CFFEBDE4-599A-46B2-9328-D96E42CD9C81";
paths = (
{
closed = 1;
nodes = (
"288 540 LINE",
"365 351 OFFCURVE",
"422 176 OFFCURVE",
"469 -19 CURVE",
"546 13 LINE",
"497 231 OFFCURVE",
"430 420 OFFCURVE",
"351 615 CURVE"
);
},
{
closed = 1;
nodes = (
"474 939 LINE",
"361 688 OFFCURVE",
"236 502 OFFCURVE",
"80 318 CURVE",
"147 264 LINE",
"308 450 OFFCURVE",
"426 633 OFFCURVE",
"554 906 CURVE"
);
},
{
closed = 1;
nodes = (
"662 286 LINE",
"575 132 OFFCURVE",
"463 -12 OFFCURVE",
"331 -142 CURVE",
"389 -203 LINE",
"532 -57 OFFCURVE",
"643 80 OFFCURVE",
"737 243 CURVE"
);
},
{
closed = 1;
nodes = (
"549 573 LINE",
"448 394 OFFCURVE",
"336 236 OFFCURVE",
"200 87 CURVE",
"263 31 LINE",
"399 180 OFFCURVE",
"515 343 OFFCURVE",
"623 532 CURVE"
);
}
);
vertOrigin = 25;
vertWidth = 1362;
width = 817;
}
);
leftMetricsKey = u1B197;
rightMetricsKey = u1B197;
unicode = 1B1A7;
},
{
glyphname = u1B1A8;
lastChange = "2020-04-09 13:25:03 +0000";
layers = (
{
background = {
paths = (
{
closed = 1;
nodes = (
"573 -198 LINE",
"549 195 OFFCURVE",
"493 409 OFFCURVE",
"365 692 CURVE",
"303 624 LINE",
"421 363 OFFCURVE",
"467 130 OFFCURVE",
"487 -203 CURVE"
);
},
{
closed = 1;
nodes = (
"487 939 LINE",
"373 743 OFFCURVE",
"242 578 OFFCURVE",
"70 426 CURVE",
"129 364 LINE",
"301 516 OFFCURVE",
"446 693 OFFCURVE",
"562 897 CURVE"
);
},
{
closed = 1;
nodes = (
"644 675 LINE",
"505 465 OFFCURVE",
"356 302 OFFCURVE",
"173 156 CURVE",
"227 89 LINE",
"406 232 OFFCURVE",
"568 403 OFFCURVE",
"716 627 CURVE"
);
}
);
};
layerId = "CFFEBDE4-599A-46B2-9328-D96E42CD9C81";
paths = (
{
closed = 1;
nodes = (
"344 -74 OFFCURVE",
"367 -57 OFFCURVE",
"367 -18 CURVE SMOOTH",
"367 21 OFFCURVE",
"344 38 OFFCURVE",
"316 38 CURVE SMOOTH",
"287 38 OFFCURVE",
"264 21 OFFCURVE",
"264 -18 CURVE SMOOTH",
"264 -57 OFFCURVE",
"287 -74 OFFCURVE",
"316 -74 CURVE SMOOTH"
);
},
{
closed = 1;
nodes = (
"722 229 OFFCURVE",
"745 246 OFFCURVE",
"745 285 CURVE SMOOTH",
"745 324 OFFCURVE",
"722 341 OFFCURVE",
"694 341 CURVE SMOOTH",
"665 341 OFFCURVE",
"642 324 OFFCURVE",
"642 285 CURVE SMOOTH",
"642 246 OFFCURVE",
"665 229 OFFCURVE",
"694 229 CURVE SMOOTH"
);
},
{
closed = 1;
nodes = (
"596 -195 LINE",
"558 195 OFFCURVE",
"468 454 OFFCURVE",
"349 704 CURVE",
"293 636 LINE",
"393 403 OFFCURVE",
"477 170 OFFCURVE",
"510 -203 CURVE"
);
},
{
closed = 1;
nodes = (
"487 939 LINE",
"373 743 OFFCURVE",
"242 578 OFFCURVE",
"70 426 CURVE",
"129 364 LINE",
"298 516 OFFCURVE",
"446 695 OFFCURVE",
"562 897 CURVE"
);
},
{
closed = 1;
nodes = (
"616 667 LINE",
"477 457 OFFCURVE",
"356 327 OFFCURVE",
"173 181 CURVE",
"227 114 LINE",
"406 257 OFFCURVE",
"540 395 OFFCURVE",
"688 619 CURVE"
);
}
);
vertOrigin = 25;
vertWidth = 1362;
width = 835;
}
);
unicode = 1B1A8;
},
{
glyphname = u1B1A9;
lastChange = "2020-04-09 14:37:41 +0000";
layers = (
{
layerId = "CFFEBDE4-599A-46B2-9328-D96E42CD9C81";
paths = (
{
closed = 1;
nodes = (
"487 248 LINE",
"468 346 OFFCURVE",
"447 408 OFFCURVE",
"406 494 CURVE",
"336 447 LINE",
"375 356 OFFCURVE",
"391 306 OFFCURVE",
"413 204 CURVE"
);
},
{
closed = 1;
nodes = (
"659 421 LINE",
"503 304 OFFCURVE",
"341 205 OFFCURVE",
"167 121 CURVE",
"205 46 LINE",
"384 133 OFFCURVE",
"542 230 OFFCURVE",
"709 354 CURVE"
);
},
{
closed = 1;
nodes = (
"615 254 OFFCURVE",
"632 216 OFFCURVE",
"632 170 CURVE SMOOTH",
"632 80 OFFCURVE",
"535 9 OFFCURVE",
"238 -126 CURVE",
"271 -203 LINE",
"582 -63 OFFCURVE",
"718 29 OFFCURVE",
"718 174 CURVE SMOOTH",
"718 234 OFFCURVE",
"695 289 OFFCURVE",
"633 363 CURVE",
"573 313 LINE"
);
},
{
closed = 1;
nodes = (
"541 939 LINE",
"374 812 OFFCURVE",
"253 737 OFFCURVE",
"60 634 CURVE",
"98 559 LINE",
"291 662 OFFCURVE",
"427 745 OFFCURVE",
"595 875 CURVE"
);
},
{
closed = 1;
nodes = (
"502 782 OFFCURVE",
"525 736 OFFCURVE",
"525 686 CURVE SMOOTH",
"525 602 OFFCURVE",
"452 545 OFFCURVE",
"110 374 CURVE",
"148 299 LINE",
"554 494 OFFCURVE",
"611 576 OFFCURVE",
"611 686 CURVE SMOOTH",
"611 762 OFFCURVE",
"580 817 OFFCURVE",
"519 888 CURVE",
"451 842 LINE"
);
}
);
vertOrigin = 25;
vertWidth = 1362;
width = 838;
}
);
leftMetricsKey = u1B179;
unicode = 1B1A9;
},
{
glyphname = u1B1AA;
lastChange = "2020-04-09 13:28:06 +0000";
layers = (
{
layerId = "CFFEBDE4-599A-46B2-9328-D96E42CD9C81";
paths = (
{
closed = 1;
nodes = (
"87 -95 OFFCURVE",
"116 -143 OFFCURVE",
"184 -183 CURVE",
"255 -174 LINE",
"323 -95 OFFCURVE",
"341 -30 OFFCURVE",
"341 31 CURVE SMOOTH",
"341 91 OFFCURVE",
"307 132 OFFCURVE",
"239 170 CURVE",
"165 160 LINE",
"107 78 OFFCURVE",
"87 11 OFFCURVE",
"87 -38 CURVE SMOOTH"
);
},
{
closed = 1;
nodes = (
"182 114 LINE",
"234 84 OFFCURVE",
"256 49 OFFCURVE",
"256 20 CURVE SMOOTH",
"256 -23 OFFCURVE",
"243 -65 OFFCURVE",
"193 -136 CURVE",
"238 -136 LINE",
"190 -99 OFFCURVE",
"171 -73 OFFCURVE",
"171 -34 CURVE SMOOTH",
"171 5 OFFCURVE",
"186 54 OFFCURVE",
"227 122 CURVE"
);
},
{
closed = 1;
nodes = (
"518 754 OFFCURVE",
"537 711 OFFCURVE",
"537 667 CURVE SMOOTH",
"537 571 OFFCURVE",
"462 504 OFFCURVE",
"156 332 CURVE",
"196 256 LINE",
"531 444 OFFCURVE",
"623 536 OFFCURVE",
"623 667 CURVE SMOOTH",
"623 738 OFFCURVE",
"597 795 OFFCURVE",
"514 884 CURVE",
"465 813 LINE"
);
},
{
closed = 1;
nodes = (
"534 -33 LINE",
"525 121 OFFCURVE",
"505 278 OFFCURVE",
"472 438 CURVE",
"394 393 LINE",
"425 229 OFFCURVE",
"439 111 OFFCURVE",
"448 -41 CURVE"
);
},
{
closed = 1;
nodes = (
"567 939 LINE",
"414 796 OFFCURVE",
"268 701 OFFCURVE",
"80 584 CURVE",
"125 513 LINE",
"313 629 OFFCURVE",
"459 725 OFFCURVE",
"626 880 CURVE"
);
}
);
vertOrigin = 25;
vertWidth = 1362;
width = 726;
}
);
unicode = 1B1AA;
},
{
glyphname = u1B1AB;
lastChange = "2020-04-09 13:29:24 +0000";
layers = (
{
layerId = "CFFEBDE4-599A-46B2-9328-D96E42CD9C81";
paths = (
{
closed = 1;
nodes = (
"370 939 LINE",
"370 396 OFFCURVE",
"348 249 OFFCURVE",
"299 68 CURVE",
"383 49 LINE",
"424 209 OFFCURVE",
"443 341 OFFCURVE",
"443 549 CURVE",
"453 625 LINE",
"455 713 OFFCURVE",
"456 815 OFFCURVE",
"456 937 CURVE"
);
},
{
closed = 1;
nodes = (
"391 570 LINE",
"466 462 OFFCURVE",
"518 375 OFFCURVE",
"558 284 CURVE",
"636 320 LINE",
"584 434 OFFCURVE",
"524 525 OFFCURVE",
"443 634 CURVE"
);
},
{
closed = 1;
nodes = (
"466 693 OFFCURVE",
"300 566 OFFCURVE",
"140 471 CURVE",
"169 295 OFFCURVE",
"180 195 OFFCURVE",
"180 45 CURVE SMOOTH",
"180 -55 OFFCURVE",
"177 -106 OFFCURVE",
"165 -194 CURVE",
"250 -203 LINE",
"261 -112 OFFCURVE",
"264 -49 OFFCURVE",
"264 47 CURVE SMOOTH",
"264 203 OFFCURVE",
"254 308 OFFCURVE",
"220 485 CURVE",
"193 401 LINE",
"346 495 OFFCURVE",
"513 623 OFFCURVE",
"654 760 CURVE",
"620 774 LINE",
"662 625 OFFCURVE",
"675 486 OFFCURVE",
"675 338 CURVE SMOOTH",
"675 268 OFFCURVE",
"672 200 OFFCURVE",
"666 134 CURVE",
"750 125 LINE",
"757 209 OFFCURVE",
"759 278 OFFCURVE",
"759 344 CURVE SMOOTH",
"759 482 OFFCURVE",
"746 643 OFFCURVE",
"699 815 CURVE",
"607 836 LINE"
);
}
);
vertOrigin = 25;
vertWidth = 1362;
width = 899;
}
);
leftMetricsKey = u1B17E;
unicode = 1B1AB;
},
{
glyphname = u1B1AC;
lastChange = "2020-04-09 13:36:18 +0000";
layers = (
{
layerId = "CFFEBDE4-599A-46B2-9328-D96E42CD9C81";
paths = (
{
closed = 1;
nodes = (
"192 377 LINE",
"174 259 OFFCURVE",
"147 157 OFFCURVE",
"106 52 CURVE",
"181 25 LINE",
"223 136 OFFCURVE",
"252 238 OFFCURVE",
"273 364 CURVE"
);
},
{
closed = 1;
nodes = (
"50 206 LINE",
"135 185 OFFCURVE",
"233 151 OFFCURVE",
"313 115 CURVE",
"345 191 LINE",
"255 229 OFFCURVE",
"155 262 OFFCURVE",
"69 286 CURVE"
);
},
{
closed = 1;
nodes = (
"240 495 LINE",
"376 290 OFFCURVE",
"478 116 OFFCURVE",
"592 -107 CURVE",
"668 -68 LINE",
"550 166 OFFCURVE",
"440 348 OFFCURVE",
"289 576 CURVE",
"301 499 LINE",
"384 632 OFFCURVE",
"443 758 OFFCURVE",
"495 915 CURVE",
"412 939 LINE",
"361 786 OFFCURVE",
"310 678 OFFCURVE",
"240 566 CURVE"
);
},
{
closed = 1;
nodes = (
"484 709 OFFCURVE",
"510 632 OFFCURVE",
"510 536 CURVE SMOOTH",
"510 369 OFFCURVE",
"448 208 OFFCURVE",
"180 -153 CURVE",
"250 -203 LINE",
"517 150 OFFCURVE",
"596 350 OFFCURVE",
"596 536 CURVE SMOOTH",
"596 662 OFFCURVE",
"556 766 OFFCURVE",
"451 889 CURVE",
"416 803 LINE"
);
}
);
vertOrigin = 25;
vertWidth = 1362;
width = 768;
}
);
rightMetricsKey = u1B17C;
unicode = 1B1AC;
},
{
glyphname = u1B1AD;
lastChange = "2020-04-09 13:35:19 +0000";
layers = (
{
layerId = "CFFEBDE4-599A-46B2-9328-D96E42CD9C81";
paths = (
{
closed = 1;
nodes = (
"376 529 LINE",
"314 413 OFFCURVE",
"218 296 OFFCURVE",
"131 212 CURVE",
"192 154 LINE",
"283 240 OFFCURVE",
"379 359 OFFCURVE",
"449 487 CURVE"
);
},
{
closed = 1;
nodes = (
"457 340 LINE",
"377 213 OFFCURVE",
"297 126 OFFCURVE",
"199 42 CURVE",
"254 -22 LINE",
"350 58 OFFCURVE",
"439 153 OFFCURVE",
"527 295 CURVE"
);
},
{
closed = 1;
nodes = (
"558 183 LINE",
"468 44 OFFCURVE",
"386 -48 OFFCURVE",
"261 -139 CURVE",
"313 -203 LINE",
"441 -108 OFFCURVE",
"534 -13 OFFCURVE",
"627 135 CURVE"
);
},
{
closed = 1;
nodes = (
"335 939 LINE",
"264 694 OFFCURVE",
"192 562 OFFCURVE",
"50 398 CURVE",
"115 342 LINE",
"264 520 OFFCURVE",
"340 652 OFFCURVE",
"419 920 CURVE"
);
},
{
closed = 1;
nodes = (
"326 780 LINE",
"450 638 OFFCURVE",
"537 522 OFFCURVE",
"607 379 CURVE",
"682 420 LINE",
"593 586 OFFCURVE",
"511 694 OFFCURVE",
"383 838 CURVE"
);
}
);
vertOrigin = 25;
vertWidth = 1362;
width = 772;
}
);
leftMetricsKey = u1B185;
rightMetricsKey = u1B185;
unicode = 1B1AD;
},
{
glyphname = u1B1AE;
lastChange = "2020-04-09 13:34:38 +0000";
layers = (
{
background = {
paths = (
{
closed = 1;
nodes = (
"346 529 LINE",
"284 413 OFFCURVE",
"188 296 OFFCURVE",
"101 212 CURVE",
"162 154 LINE",
"253 240 OFFCURVE",
"349 359 OFFCURVE",
"419 487 CURVE"
);
},
{
closed = 1;
nodes = (
"437 340 LINE",
"357 213 OFFCURVE",
"277 126 OFFCURVE",
"179 42 CURVE",
"234 -22 LINE",
"330 58 OFFCURVE",
"419 153 OFFCURVE",
"507 295 CURVE"
);
},
{
closed = 1;
nodes = (
"548 183 LINE",
"458 44 OFFCURVE",
"376 -48 OFFCURVE",
"251 -139 CURVE",
"303 -203 LINE",
"431 -108 OFFCURVE",
"524 -13 OFFCURVE",
"617 135 CURVE"
);
},
{
closed = 1;
nodes = (
"305 939 LINE",
"234 694 OFFCURVE",
"162 562 OFFCURVE",
"20 398 CURVE",
"85 342 LINE",
"234 520 OFFCURVE",
"310 652 OFFCURVE",
"389 920 CURVE"
);
},
{
closed = 1;
nodes = (
"296 780 LINE",
"420 649 OFFCURVE",
"512 522 OFFCURVE",
"587 379 CURVE",
"662 420 LINE",
"568 586 OFFCURVE",
"481 705 OFFCURVE",
"353 838 CURVE"
);
}
);
};
layerId = "CFFEBDE4-599A-46B2-9328-D96E42CD9C81";
paths = (
{
closed = 1;
nodes = (
"496 473 LINE",
"433 332 OFFCURVE",
"358 219 OFFCURVE",
"254 106 CURVE",
"317 48 LINE",
"427 167 OFFCURVE",
"510 293 OFFCURVE",
"575 438 CURVE"
);
},
{
closed = 1;
nodes = (
"630 265 LINE",
"559 115 OFFCURVE",
"467 -20 OFFCURVE",
"331 -141 CURVE",
"390 -203 LINE",
"525 -82 OFFCURVE",
"626 56 OFFCURVE",
"708 229 CURVE"
);
},
{
closed = 1;
nodes = (
"251 314 LINE",
"370 474 OFFCURVE",
"455 644 OFFCURVE",
"541 918 CURVE",
"458 939 LINE",
"378 683 OFFCURVE",
"299 523 OFFCURVE",
"200 382 CURVE",
"231 380 LINE",
"197 501 OFFCURVE",
"165 584 OFFCURVE",
"118 685 CURVE",
"40 649 LINE",
"94 536 OFFCURVE",
"133 438 OFFCURVE",
"168 324 CURVE"
);
},
{
closed = 1;
nodes = (
"444 784 LINE",
"558 648 OFFCURVE",
"645 517 OFFCURVE",
"732 340 CURVE",
"809 377 LINE",
"707 579 OFFCURVE",
"622 699 OFFCURVE",
"497 854 CURVE"
);
}
);
vertOrigin = 25;
vertWidth = 1362;
width = 899;
}
);
rightMetricsKey = u1B185;
unicode = 1B1AE;
},
{
glyphname = u1B1AF;
lastChange = "2020-04-09 13:45:51 +0000";
layers = (
{
background = {
paths = (
{
closed = 1;
nodes = (
"253 490 OFFCURVE",
"285 311 OFFCURVE",
"285 132 CURVE SMOOTH",
"285 -30 OFFCURVE",
"270 -143 OFFCURVE",
"237 -275 CURVE",
"319 -293 LINE",
"353 -160 OFFCURVE",
"369 -44 OFFCURVE",
"369 119 CURVE SMOOTH",
"369 332 OFFCURVE",
"338 512 OFFCURVE",
"253 747 CURVE",
"174 721 LINE"
);
},
{
closed = 1;
nodes = (
"545 660 OFFCURVE",
"442 424 OFFCURVE",
"305 271 CURVE",
"340 191 LINE",
"522 381 OFFCURVE",
"614 596 OFFCURVE",
"692 920 CURVE",
"608 939 LINE"
);
},
{
closed = 1;
nodes = (
"498 539 LINE",
"570 398 OFFCURVE",
"614 256 OFFCURVE",
"639 94 CURVE",
"724 108 LINE",
"695 295 OFFCURVE",
"641 444 OFFCURVE",
"551 603 CURVE"
);
}
);
};
layerId = "CFFEBDE4-599A-46B2-9328-D96E42CD9C81";
paths = (
{
closed = 1;
nodes = (
"150 296 OFFCURVE",
"173 313 OFFCURVE",
"173 352 CURVE SMOOTH",
"173 391 OFFCURVE",
"150 408 OFFCURVE",
"122 408 CURVE SMOOTH",
"93 408 OFFCURVE",
"70 391 OFFCURVE",
"70 352 CURVE SMOOTH",
"70 313 OFFCURVE",
"93 296 OFFCURVE",
"122 296 CURVE SMOOTH"
);
},
{
closed = 1;
nodes = (
"442 755 OFFCURVE",
"465 772 OFFCURVE",
"465 811 CURVE SMOOTH",
"465 850 OFFCURVE",
"442 867 OFFCURVE",
"414 867 CURVE SMOOTH",
"385 867 OFFCURVE",
"362 850 OFFCURVE",
"362 811 CURVE SMOOTH",
"362 772 OFFCURVE",
"385 755 OFFCURVE",
"414 755 CURVE SMOOTH"
);
},
{
closed = 1;
nodes = (
"263 566 OFFCURVE",
"293 425 OFFCURVE",
"293 266 CURVE SMOOTH",
"293 89 OFFCURVE",
"269 -35 OFFCURVE",
"215 -175 CURVE",
"294 -203 LINE",
"349 -62 OFFCURVE",
"377 75 OFFCURVE",
"377 266 CURVE SMOOTH",
"377 446 OFFCURVE",
"340 592 OFFCURVE",
"241 789 CURVE",
"166 750 LINE"
);
},
{
closed = 1;
nodes = (
"556 649 OFFCURVE",
"440 481 OFFCURVE",
"294 348 CURVE",
"329 271 LINE",
"511 441 OFFCURVE",
"623 587 OFFCURVE",
"702 922 CURVE",
"617 939 LINE"
);
},
{
closed = 1;
nodes = (
"497 529 LINE",
"572 393 OFFCURVE",
"612 278 OFFCURVE",
"638 134 CURVE",
"723 149 LINE",
"693 318 OFFCURVE",
"643 439 OFFCURVE",
"550 593 CURVE"
);
}
);
vertOrigin = 25;
vertWidth = 1362;
width = 843;
}
);
leftMetricsKey = u1B192;
rightMetricsKey = u1B186;
unicode = 1B1AF;
},
{
glyphname = u1B1B0;
lastChange = "2020-04-09 08:19:18 +0000";
layers = (
{
layerId = "CFFEBDE4-599A-46B2-9328-D96E42CD9C81";
paths = (
{
closed = 1;
nodes = (
"654 591 OFFCURVE",
"677 608 OFFCURVE",
"677 647 CURVE SMOOTH",
"677 686 OFFCURVE",
"654 703 OFFCURVE",
"626 703 CURVE SMOOTH",
"597 703 OFFCURVE",
"574 686 OFFCURVE",
"574 647 CURVE SMOOTH",
"574 608 OFFCURVE",
"597 591 OFFCURVE",
"626 591 CURVE SMOOTH"
);
},
{
closed = 1;
nodes = (
"157 420 OFFCURVE",
"180 437 OFFCURVE",
"180 476 CURVE SMOOTH",
"180 515 OFFCURVE",
"157 532 OFFCURVE",
"129 532 CURVE SMOOTH",
"100 532 OFFCURVE",
"77 515 OFFCURVE",
"77 476 CURVE SMOOTH",
"77 437 OFFCURVE",
"100 420 OFFCURVE",
"129 420 CURVE SMOOTH"
);
},
{
closed = 1;
nodes = (
"371 338 LINE",
"385 235 OFFCURVE",
"388 170 OFFCURVE",
"388 55 CURVE SMOOTH",
"388 -33 OFFCURVE",
"383 -112 OFFCURVE",
"372 -192 CURVE",
"456 -203 LINE",
"470 -106 OFFCURVE",
"474 -32 OFFCURVE",
"474 56 CURVE SMOOTH",
"474 172 OFFCURVE",
"467 250 OFFCURVE",
"452 350 CURVE"
);
},
{
closed = 1;
nodes = (
"462 939 LINE",
"395 675 OFFCURVE",
"300 464 OFFCURVE",
"125 220 CURVE",
"196 172 LINE",
"370 416 OFFCURVE",
"474 635 OFFCURVE",
"546 920 CURVE"
);
},
{
closed = 1;
nodes = (
"268 599 OFFCURVE",
"476 448 OFFCURVE",
"627 301 CURVE",
"684 366 LINE",
"517 524 OFFCURVE",
"320 661 OFFCURVE",
"106 766 CURVE",
"70 688 LINE"
);
}
);
vertOrigin = 25;
vertWidth = 1362;
width = 764;
}
);
leftMetricsKey = u1B17A;
rightMetricsKey = u1B17A;
unicode = 1B1B0;
},
{
glyphname = u1B1B1;
lastChange = "2020-04-09 13:32:23 +0000";
layers = (
{
layerId = "CFFEBDE4-599A-46B2-9328-D96E42CD9C81";
paths = (
{
closed = 1;
nodes = (
"149 204 LINE",
"190 67 OFFCURVE",
"214 -63 OFFCURVE",
"228 -203 CURVE",
"312 -193 LINE",
"298 -42 OFFCURVE",
"272 90 OFFCURVE",
"229 229 CURVE"
);
},
{
closed = 1;
nodes = (
"666 576 LINE",
"605 402 OFFCURVE",
"537 284 OFFCURVE",
"414 111 CURVE",
"466 113 LINE",
"424 367 OFFCURVE",
"353 609 OFFCURVE",
"237 850 CURVE",
"160 812 LINE",
"275 579 OFFCURVE",
"338 364 OFFCURVE",
"386 88 CURVE",
"479 70 LINE",
"601 230 OFFCURVE",
"670 350 OFFCURVE",
"747 545 CURVE"
);
},
{
closed = 1;
nodes = (
"444 518 LINE",
"522 373 OFFCURVE",
"601 196 OFFCURVE",
"648 56 CURVE",
"727 83 LINE",
"669 258 OFFCURVE",
"597 414 OFFCURVE",
"517 558 CURVE"
);
},
{
closed = 1;
nodes = (
"465 939 LINE",
"366 726 OFFCURVE",
"248 560 OFFCURVE",
"80 372 CURVE",
"143 317 LINE",
"318 507 OFFCURVE",
"423 665 OFFCURVE",
"543 903 CURVE"
);
}
);
vertOrigin = 25;
vertWidth = 1362;
width = 847;
}
);
unicode = 1B1B1;
},
{
glyphname = u1B1B2;
lastChange = "2020-04-09 13:31:09 +0000";
layers = (
{
layerId = "CFFEBDE4-599A-46B2-9328-D96E42CD9C81";
paths = (
{
closed = 1;
nodes = (
"449 939 LINE",
"392 688 OFFCURVE",
"314 518 OFFCURVE",
"164 324 CURVE",
"231 273 LINE",
"380 467 OFFCURVE",
"472 652 OFFCURVE",
"534 924 CURVE"
);
},
{
closed = 1;
nodes = (
"298 612 OFFCURVE",
"454 523 OFFCURVE",
"621 390 CURVE",
"672 460 LINE",
"487 598 OFFCURVE",
"340 679 OFFCURVE",
"135 770 CURVE",
"103 690 LINE"
);
},
{
closed = 1;
nodes = (
"540 -33 LINE",
"531 121 OFFCURVE",
"513 262 OFFCURVE",
"470 438 CURVE",
"393 418 LINE",
"431 229 OFFCURVE",
"445 111 OFFCURVE",
"454 -41 CURVE"
);
},
{
closed = 1;
nodes = (
"80 -95 OFFCURVE",
"109 -143 OFFCURVE",
"177 -183 CURVE",
"248 -174 LINE",
"316 -95 OFFCURVE",
"334 -30 OFFCURVE",
"334 31 CURVE SMOOTH",
"334 91 OFFCURVE",
"300 132 OFFCURVE",
"232 170 CURVE",
"158 160 LINE",
"100 78 OFFCURVE",
"80 11 OFFCURVE",
"80 -38 CURVE SMOOTH"
);
},
{
closed = 1;
nodes = (
"175 114 LINE",
"227 84 OFFCURVE",
"249 49 OFFCURVE",
"249 20 CURVE SMOOTH",
"249 -23 OFFCURVE",
"236 -65 OFFCURVE",
"186 -136 CURVE",
"231 -136 LINE",
"183 -99 OFFCURVE",
"164 -73 OFFCURVE",
"164 -34 CURVE SMOOTH",
"164 5 OFFCURVE",
"179 54 OFFCURVE",
"220 122 CURVE"
);
}
);
vertOrigin = 25;
vertWidth = 1362;
width = 752;
}
);
rightMetricsKey = u1B17A;
unicode = 1B1B2;
},
{
glyphname = u1B1B3;
lastChange = "2020-04-09 13:30:55 +0000";
layers = (
{
layerId = "CFFEBDE4-599A-46B2-9328-D96E42CD9C81";
paths = (
{
closed = 1;
nodes = (
"694 162 OFFCURVE",
"717 179 OFFCURVE",
"717 218 CURVE SMOOTH",
"717 257 OFFCURVE",
"694 274 OFFCURVE",
"666 274 CURVE SMOOTH",
"637 274 OFFCURVE",
"614 257 OFFCURVE",
"614 218 CURVE SMOOTH",
"614 179 OFFCURVE",
"637 162 OFFCURVE",
"666 162 CURVE SMOOTH"
);
},
{
closed = 1;
nodes = (
"250 -55 OFFCURVE",
"273 -38 OFFCURVE",
"273 1 CURVE SMOOTH",
"273 40 OFFCURVE",
"250 57 OFFCURVE",
"222 57 CURVE SMOOTH",
"193 57 OFFCURVE",
"170 40 OFFCURVE",
"170 1 CURVE SMOOTH",
"170 -38 OFFCURVE",
"193 -55 OFFCURVE",
"222 -55 CURVE SMOOTH"
);
},
{
closed = 1;
nodes = (
"523 939 LINE",
"371 765 OFFCURVE",
"235 646 OFFCURVE",
"60 520 CURVE",
"110 453 LINE",
"286 580 OFFCURVE",
"421 695 OFFCURVE",
"587 882 CURVE"
);
},
{
closed = 1;
nodes = (
"515 740 OFFCURVE",
"539 692 OFFCURVE",
"539 629 CURVE SMOOTH",
"539 520 OFFCURVE",
"456 441 OFFCURVE",
"140 229 CURVE",
"188 160 LINE",
"533 388 OFFCURVE",
"625 491 OFFCURVE",
"625 629 CURVE SMOOTH",
"625 719 OFFCURVE",
"594 781 OFFCURVE",
"511 864 CURVE",
"462 793 LINE"
);
},
{
closed = 1;
nodes = (
"382 363 LINE",
"398 247 OFFCURVE",
"403 170 OFFCURVE",
"403 42 CURVE SMOOTH",
"403 -51 OFFCURVE",
"399 -113 OFFCURVE",
"391 -196 CURVE",
"476 -203 LINE",
"485 -122 OFFCURVE",
"489 -53 OFFCURVE",
"489 40 CURVE SMOOTH",
"489 170 OFFCURVE",
"480 281 OFFCURVE",
"457 408 CURVE"
);
}
);
vertOrigin = 25;
vertWidth = 1362;
width = 817;
}
);
leftMetricsKey = u1B179;
unicode = 1B1B3;
},
{
glyphname = u1B1B4;
lastChange = "2020-04-09 08:20:35 +0000";
layers = (
{
background = {
paths = (
{
closed = 1;
nodes = (
"429 643 LINE",
"347 458 OFFCURVE",
"266 301 OFFCURVE",
"159 130 CURVE",
"212 53 LINE",
"324 229 OFFCURVE",
"397 363 OFFCURVE",
"471 525 CURVE"
);
},
{
closed = 1;
nodes = (
"294 860 LINE",
"205 663 OFFCURVE",
"113 484 OFFCURVE",
"20 330 CURVE",
"118 149 OFFCURVE",
"193 -13 OFFCURVE",
"251 -173 CURVE",
"339 -183 LINE",
"456 -7 OFFCURVE",
"540 136 OFFCURVE",
"634 321 CURVE",
"558 496 OFFCURVE",
"482 662 OFFCURVE",
"383 852 CURVE"
);
},
{
closed = 1;
nodes = (
"322 784 LINE",
"409 612 OFFCURVE",
"484 454 OFFCURVE",
"569 250 CURVE",
"573 398 LINE",
"485 211 OFFCURVE",
"387 43 OFFCURVE",
"289 -100 CURVE",
"321 -116 LINE",
"263 43 OFFCURVE",
"188 203 OFFCURVE",
"93 373 CURVE",
"87 271 LINE",
"202 472 OFFCURVE",
"282 629 OFFCURVE",
"358 791 CURVE"
);
}
);
};
layerId = "CFFEBDE4-599A-46B2-9328-D96E42CD9C81";
paths = (
{
closed = 1;
nodes = (
"394 391 OFFCURVE",
"320 258 OFFCURVE",
"226 114 CURVE",
"285 47 LINE",
"389 207 OFFCURVE",
"455 323 OFFCURVE",
"532 486 CURVE",
"510 495 LINE",
"544 423 OFFCURVE",
"575 346 OFFCURVE",
"612 248 CURVE",
"625 325 LINE",
"555 172 OFFCURVE",
"459 24 OFFCURVE",
"359 -107 CURVE",
"391 -116 LINE",
"334 42 OFFCURVE",
"258 194 OFFCURVE",
"163 376 CURVE",
"155 268 LINE",
"286 492 OFFCURVE",
"380 661 OFFCURVE",
"469 910 CURVE",
"388 939 LINE",
"301 698 OFFCURVE",
"210 532 OFFCURVE",
"90 330 CURVE",
"188 145 OFFCURVE",
"263 -13 OFFCURVE",
"321 -173 CURVE",
"408 -183 LINE",
"512 -53 OFFCURVE",
"608 91 OFFCURVE",
"694 271 CURVE",
"655 379 OFFCURVE",
"618 473 OFFCURVE",
"569 575 CURVE",
"477 575 LINE"
);
}
);
vertOrigin = 45;
vertWidth = 1362;
width = 784;
}
);
unicode = 1B1B4;
},
{
glyphname = u1B1B5;
lastChange = "2020-04-09 13:30:26 +0000";
layers = (
{
layerId = "CFFEBDE4-599A-46B2-9328-D96E42CD9C81";
paths = (
{
closed = 1;
nodes = (
"566 194 OFFCURVE",
"589 211 OFFCURVE",
"589 250 CURVE SMOOTH",
"589 289 OFFCURVE",
"566 306 OFFCURVE",
"538 306 CURVE SMOOTH",
"509 306 OFFCURVE",
"486 289 OFFCURVE",
"486 250 CURVE SMOOTH",
"486 211 OFFCURVE",
"509 194 OFFCURVE",
"538 194 CURVE SMOOTH"
);
},
{
closed = 1;
nodes = (
"552 495 OFFCURVE",
"575 512 OFFCURVE",
"575 551 CURVE SMOOTH",
"575 590 OFFCURVE",
"552 607 OFFCURVE",
"524 607 CURVE SMOOTH",
"495 607 OFFCURVE",
"472 590 OFFCURVE",
"472 551 CURVE SMOOTH",
"472 512 OFFCURVE",
"495 495 OFFCURVE",
"524 495 CURVE SMOOTH"
);
},
{
closed = 1;
nodes = (
"216 -203 LINE",
"357 23 OFFCURVE",
"405 157 OFFCURVE",
"405 352 CURVE SMOOTH",
"405 536 OFFCURVE",
"342 680 OFFCURVE",
"160 891 CURVE",
"97 835 LINE",
"278 630 OFFCURVE",
"319 504 OFFCURVE",
"319 349 CURVE SMOOTH",
"319 181 OFFCURVE",
"280 53 OFFCURVE",
"145 -158 CURVE"
);
},
{
closed = 1;
nodes = (
"391 939 LINE",
"302 768 OFFCURVE",
"208 641 OFFCURVE",
"70 519 CURVE",
"128 454 LINE",
"279 594 OFFCURVE",
"377 724 OFFCURVE",
"468 904 CURVE"
);
},
{
closed = 1;
nodes = (
"82 130 LINE",
"224 63 OFFCURVE",
"370 -27 OFFCURVE",
"482 -126 CURVE",
"537 -62 LINE",
"411 46 OFFCURVE",
"272 134 OFFCURVE",
"121 208 CURVE"
);
}
);
vertOrigin = 25;
vertWidth = 1362;
width = 699;
}
);
unicode = 1B1B5;
},
{
glyphname = u1B1B6;
lastChange = "2020-04-09 13:37:33 +0000";
layers = (
{
background = {
paths = (
{
closed = 1;
nodes = (
"343 -68 LINE",
"289 83 OFFCURVE",
"216 233 OFFCURVE",
"134 379 CURVE",
"60 336 LINE",
"137 200 OFFCURVE",
"214 45 OFFCURVE",
"274 -112 CURVE",
"375 -126 LINE",
"544 112 OFFCURVE",
"668 348 OFFCURVE",
"763 621 CURVE",
"681 648 LINE",
"586 377 OFFCURVE",
"466 141 OFFCURVE",
"315 -68 CURVE"
);
},
{
closed = 1;
nodes = (
"474 899 LINE",
"391 602 OFFCURVE",
"314 404 OFFCURVE",
"199 177 CURVE",
"248 99 LINE",
"396 375 OFFCURVE",
"471 579 OFFCURVE",
"558 879 CURVE"
);
},
{
closed = 1;
nodes = (
"138 699 LINE",
"262 496 OFFCURVE",
"352 320 OFFCURVE",
"446 85 CURVE",
"507 147 LINE",
"415 380 OFFCURVE",
"333 536 OFFCURVE",
"212 744 CURVE"
);
},
{
closed = 1;
nodes = (
"343 -68 LINE",
"289 83 OFFCURVE",
"216 233 OFFCURVE",
"134 379 CURVE",
"60 336 LINE",
"137 200 OFFCURVE",
"214 45 OFFCURVE",
"274 -112 CURVE",
"375 -126 LINE",
"544 112 OFFCURVE",
"668 348 OFFCURVE",
"763 621 CURVE",
"681 648 LINE",
"586 377 OFFCURVE",
"466 141 OFFCURVE",
"315 -68 CURVE"
);
},
{
closed = 1;
nodes = (
"474 899 LINE",
"391 602 OFFCURVE",
"314 404 OFFCURVE",
"199 177 CURVE",
"248 99 LINE",
"396 375 OFFCURVE",
"471 579 OFFCURVE",
"558 879 CURVE"
);
},
{
closed = 1;
nodes = (
"138 699 LINE",
"262 496 OFFCURVE",
"352 320 OFFCURVE",
"446 85 CURVE",
"507 147 LINE",
"415 380 OFFCURVE",
"333 536 OFFCURVE",
"212 744 CURVE"
);
}
);
};
layerId = "CFFEBDE4-599A-46B2-9328-D96E42CD9C81";
paths = (
{
closed = 1;
nodes = (
"394 -44 LINE",
"563 189 OFFCURVE",
"654 336 OFFCURVE",
"756 655 CURVE",
"674 680 LINE",
"588 398 OFFCURVE",
"485 218 OFFCURVE",
"366 61 CURVE"
);
},
{
closed = 1;
nodes = (
"470 899 LINE",
"405 628 OFFCURVE",
"340 463 OFFCURVE",
"254 300 CURVE",
"311 242 LINE",
"417 440 OFFCURVE",
"482 604 OFFCURVE",
"554 879 CURVE"
);
},
{
closed = 1;
nodes = (
"156 736 LINE",
"313 532 OFFCURVE",
"422 380 OFFCURVE",
"506 221 CURVE",
"566 285 LINE",
"486 431 OFFCURVE",
"375 595 OFFCURVE",
"224 789 CURVE"
);
},
{
closed = 1;
nodes = (
"333 -56 OFFCURVE",
"315 -92 OFFCURVE",
"260 -92 CURVE SMOOTH",
"211 -92 OFFCURVE",
"185 -64 OFFCURVE",
"185 -19 CURVE SMOOTH",
"185 9 OFFCURVE",
"191 29 OFFCURVE",
"208 59 CURVE",
"143 93 LINE",
"116 55 OFFCURVE",
"103 17 OFFCURVE",
"103 -27 CURVE SMOOTH",
"103 -113 OFFCURVE",
"161 -178 OFFCURVE",
"252 -178 CURVE SMOOTH",
"364 -178 OFFCURVE",
"417 -101 OFFCURVE",
"417 12 CURVE SMOOTH",
"417 88 OFFCURVE",
"385 181 OFFCURVE",
"125 504 CURVE",
"60 451 LINE",
"303 157 OFFCURVE",
"333 78 OFFCURVE",
"333 9 CURVE SMOOTH"
);
}
);
vertOrigin = 30;
vertWidth = 1362;
width = 816;
}
);
leftMetricsKey = u1B19D;
rightMetricsKey = u1B19D;
unicode = 1B1B6;
},
{
glyphname = u1B1B7;
lastChange = "2020-04-09 13:39:19 +0000";
layers = (
{
layerId = "CFFEBDE4-599A-46B2-9328-D96E42CD9C81";
paths = (
{
closed = 1;
nodes = (
"544 939 LINE",
"410 754 OFFCURVE",
"293 633 OFFCURVE",
"164 528 CURVE",
"201 534 LINE",
"185 607 OFFCURVE",
"162 685 OFFCURVE",
"129 775 CURVE",
"50 744 LINE",
"85 654 OFFCURVE",
"110 581 OFFCURVE",
"131 494 CURVE",
"212 465 LINE",
"369 591 OFFCURVE",
"475 696 OFFCURVE",
"616 892 CURVE"
);
},
{
closed = 1;
nodes = (
"188 253 LINE",
"365 364 OFFCURVE",
"479 455 OFFCURVE",
"632 624 CURVE",
"567 681 LINE",
"435 532 OFFCURVE",
"315 433 OFFCURVE",
"141 324 CURVE"
);
},
{
closed = 1;
nodes = (
"510 -199 LINE",
"510 -55 OFFCURVE",
"503 59 OFFCURVE",
"476 205 CURVE",
"409 170 LINE",
"420 17 OFFCURVE",
"424 -65 OFFCURVE",
"424 -203 CURVE"
);
},
{
closed = 1;
nodes = (
"551 338 OFFCURVE",
"486 277 OFFCURVE",
"203 109 CURVE",
"247 37 LINE",
"559 219 OFFCURVE",
"637 307 OFFCURVE",
"637 432 CURVE SMOOTH",
"637 496 OFFCURVE",
"615 543 OFFCURVE",
"559 614 CURVE",
"505 558 LINE",
"538 514 OFFCURVE",
"553 481 OFFCURVE",
"551 432 CURVE"
);
}
);
vertOrigin = 25;
vertWidth = 1362;
width = 767;
}
);
rightMetricsKey = u1B179;
unicode = 1B1B7;
},
{
glyphname = u1B1B8;
lastChange = "2020-04-09 13:40:55 +0000";
layers = (
{
background = {
paths = (
{
closed = 1;
nodes = (
"653 -198 LINE",
"627 273 OFFCURVE",
"506 557 OFFCURVE",
"289 901 CURVE",
"216 856 LINE",
"433 515 OFFCURVE",
"551 215 OFFCURVE",
"567 -203 CURVE"
);
},
{
closed = 1;
nodes = (
"567 939 LINE",
"453 743 OFFCURVE",
"322 578 OFFCURVE",
"150 426 CURVE",
"209 364 LINE",
"381 516 OFFCURVE",
"526 693 OFFCURVE",
"642 897 CURVE"
);
},
{
closed = 1;
nodes = (
"724 675 LINE",
"585 465 OFFCURVE",
"436 302 OFFCURVE",
"253 156 CURVE",
"307 89 LINE",
"486 232 OFFCURVE",
"648 403 OFFCURVE",
"796 627 CURVE"
);
}
);
};
layerId = "CFFEBDE4-599A-46B2-9328-D96E42CD9C81";
paths = (
{
closed = 1;
nodes = (
"140 271 OFFCURVE",
"163 288 OFFCURVE",
"163 327 CURVE SMOOTH",
"163 366 OFFCURVE",
"140 383 OFFCURVE",
"112 383 CURVE SMOOTH",
"83 383 OFFCURVE",
"60 366 OFFCURVE",
"60 327 CURVE SMOOTH",
"60 288 OFFCURVE",
"83 271 OFFCURVE",
"112 271 CURVE SMOOTH"
);
},
{
closed = 1;
nodes = (
"206 7 OFFCURVE",
"229 24 OFFCURVE",
"229 63 CURVE SMOOTH",
"229 102 OFFCURVE",
"206 119 OFFCURVE",
"178 119 CURVE SMOOTH",
"151 119 OFFCURVE",
"126 102 OFFCURVE",
"126 63 CURVE SMOOTH",
"126 24 OFFCURVE",
"149 7 OFFCURVE",
"178 7 CURVE SMOOTH"
);
},
{
closed = 1;
nodes = (
"570 939 LINE",
"459 743 OFFCURVE",
"346 603 OFFCURVE",
"190 453 CURVE",
"251 392 LINE",
"423 562 OFFCURVE",
"522 684 OFFCURVE",
"646 899 CURVE"
);
},
{
closed = 1;
nodes = (
"690 657 LINE",
"555 453 OFFCURVE",
"441 324 OFFCURVE",
"263 167 CURVE",
"320 103 LINE",
"494 256 OFFCURVE",
"623 397 OFFCURVE",
"763 611 CURVE"
);
},
{
closed = 1;
nodes = (
"603 -200 LINE",
"587 301 OFFCURVE",
"506 557 OFFCURVE",
"289 901 CURVE",
"216 856 LINE",
"438 515 OFFCURVE",
"513 215 OFFCURVE",
"517 -203 CURVE"
);
}
);
vertOrigin = 25;
vertWidth = 1362;
width = 863;
}
);
rightMetricsKey = u1B187;
unicode = 1B1B8;
},
{
glyphname = u1B1B9;
lastChange = "2020-04-09 13:41:09 +0000";
layers = (
{
layerId = "CFFEBDE4-599A-46B2-9328-D96E42CD9C81";
paths = (
{
closed = 1;
nodes = (
"558 939 LINE",
"442 732 OFFCURVE",
"319 574 OFFCURVE",
"151 397 CURVE",
"214 338 LINE",
"380 511 OFFCURVE",
"515 686 OFFCURVE",
"634 899 CURVE"
);
},
{
closed = 1;
nodes = (
"648 504 LINE",
"550 359 OFFCURVE",
"459 250 OFFCURVE",
"315 126 CURVE",
"372 64 LINE",
"501 175 OFFCURVE",
"605 289 OFFCURVE",
"719 459 CURVE"
);
},
{
closed = 1;
nodes = (
"539 272 LINE",
"483 479 OFFCURVE",
"406 661 OFFCURVE",
"281 868 CURVE",
"208 827 LINE",
"333 617 OFFCURVE",
"411 426 OFFCURVE",
"467 235 CURVE"
);
},
{
closed = 1;
nodes = (
"173 99 LINE",
"227 9 OFFCURVE",
"262 -64 OFFCURVE",
"298 -165 CURVE",
"379 -134 LINE",
"333 -16 OFFCURVE",
"288 64 OFFCURVE",
"214 165 CURVE"
);
},
{
closed = 1;
nodes = (
"150 227 LINE",
"133 61 OFFCURVE",
"109 -49 OFFCURVE",
"60 -179 CURVE",
"143 -203 LINE",
"178 -102 OFFCURVE",
"195 -24 OFFCURVE",
"207 72 CURVE",
"225 126 LINE",
"229 156 OFFCURVE",
"233 186 OFFCURVE",
"236 218 CURVE"
);
}
);
vertOrigin = 25;
vertWidth = 1362;
width = 789;
}
);
rightMetricsKey = u1B180;
unicode = 1B1B9;
},
{
glyphname = u1B1BA;
lastChange = "2020-04-09 08:22:37 +0000";
layers = (
{
background = {
paths = (
{
closed = 1;
nodes = (
"300 356 OFFCURVE",
"408 239 OFFCURVE",
"480 131 CURVE",
"480 189 LINE",
"403 12 OFFCURVE",
"333 -110 OFFCURVE",
"246 -251 CURVE",
"315 -293 LINE",
"408 -146 OFFCURVE",
"480 -19 OFFCURVE",
"561 168 CURVE",
"471 294 OFFCURVE",
"364 416 OFFCURVE",
"257 528 CURVE",
"257 491 LINE",
"325 620 OFFCURVE",
"384 759 OFFCURVE",
"433 917 CURVE",
"351 939 LINE",
"303 782 OFFCURVE",
"257 661 OFFCURVE",
"170 496 CURVE"
);
},
{
closed = 1;
nodes = (
"477 614 LINE",
"386 416 OFFCURVE",
"294 265 OFFCURVE",
"184 102 CURVE",
"246 54 LINE",
"371 237 OFFCURVE",
"459 380 OFFCURVE",
"547 581 CURVE"
);
}
);
};
layerId = "CFFEBDE4-599A-46B2-9328-D96E42CD9C81";
paths = (
{
closed = 1;
nodes = (
"282 619 OFFCURVE",
"347 728 OFFCURVE",
"430 905 CURVE",
"351 939 LINE",
"269 767 OFFCURVE",
"203 649 OFFCURVE",
"90 494 CURVE",
"147 376 OFFCURVE",
"185 286 OFFCURVE",
"222 184 CURVE",
"306 175 LINE",
"388 273 OFFCURVE",
"468 396 OFFCURVE",
"530 511 CURVE",
"492 508 LINE",
"542 390 OFFCURVE",
"577 293 OFFCURVE",
"611 173 CURVE",
"610 249 LINE",
"527 95 OFFCURVE",
"448 -24 OFFCURVE",
"349 -151 CURVE",
"417 -203 LINE",
"533 -53 OFFCURVE",
"602 54 OFFCURVE",
"688 219 CURVE",
"649 349 OFFCURVE",
"612 450 OFFCURVE",
"558 572 CURVE",
"470 573 LINE",
"402 455 OFFCURVE",
"336 347 OFFCURVE",
"249 236 CURVE",
"292 241 LINE",
"261 327 OFFCURVE",
"223 414 OFFCURVE",
"167 532 CURVE",
"168 458 LINE"
);
}
);
vertOrigin = 25;
vertWidth = 1362;
width = 778;
}
);
unicode = 1B1BA;
},
{
glyphname = u1B1BB;
lastChange = "2020-04-09 13:41:24 +0000";
layers = (
{
layerId = "CFFEBDE4-599A-46B2-9328-D96E42CD9C81";
paths = (
{
closed = 1;
nodes = (
"388 863 LINE",
"443 723 OFFCURVE",
"490 566 OFFCURVE",
"522 432 CURVE",
"549 533 LINE",
"450 420 OFFCURVE",
"377 344 OFFCURVE",
"280 258 CURVE",
"318 175 LINE",
"426 272 OFFCURVE",
"507 355 OFFCURVE",
"603 462 CURVE",
"565 621 OFFCURVE",
"517 781 OFFCURVE",
"454 923 CURVE",
"373 929 LINE",
"293 822 OFFCURVE",
"219 736 OFFCURVE",
"130 642 CURVE",
"234 404 OFFCURVE",
"261 188 OFFCURVE",
"261 -11 CURVE SMOOTH",
"261 -78 OFFCURVE",
"257 -146 OFFCURVE",
"251 -196 CURVE",
"335 -203 LINE",
"343 -150 OFFCURVE",
"347 -81 OFFCURVE",
"347 -12 CURVE SMOOTH",
"347 211 OFFCURVE",
"318 413 OFFCURVE",
"218 656 CURVE",
"193 584 LINE",
"280 676 OFFCURVE",
"354 761 OFFCURVE",
"433 865 CURVE"
);
},
{
closed = 1;
nodes = (
"478 747 LINE",
"391 637 OFFCURVE",
"319 561 OFFCURVE",
"225 469 CURVE",
"269 393 LINE",
"368 487 OFFCURVE",
"448 573 OFFCURVE",
"527 669 CURVE"
);
}
);
vertOrigin = 25;
vertWidth = 1362;
width = 723;
}
);
unicode = 1B1BB;
},
{
glyphname = u1B1BC;
lastChange = "2020-04-09 08:23:09 +0000";
layers = (
{
layerId = "CFFEBDE4-599A-46B2-9328-D96E42CD9C81";
paths = (
{
closed = 1;
nodes = (
"441 -183 LINE",
"529 -118 OFFCURVE",
"634 -22 OFFCURVE",
"713 58 CURVE",
"686 159 OFFCURVE",
"662 244 OFFCURVE",
"624 341 CURVE",
"549 351 LINE",
"466 257 OFFCURVE",
"380 174 OFFCURVE",
"281 91 CURVE",
"321 -2 OFFCURVE",
"353 -95 OFFCURVE",
"376 -171 CURVE"
);
},
{
closed = 1;
nodes = (
"452 -128 LINE",
"431 -56 OFFCURVE",
"398 38 OFFCURVE",
"364 117 CURVE",
"335 23 LINE",
"438 113 OFFCURVE",
"523 191 OFFCURVE",
"604 285 CURVE",
"553 286 LINE",
"585 203 OFFCURVE",
"606 124 OFFCURVE",
"627 42 CURVE",
"662 130 LINE",
"567 32 OFFCURVE",
"490 -37 OFFCURVE",
"406 -102 CURVE"
);
},
{
closed = 1;
nodes = (
"495 939 LINE",
"336 731 OFFCURVE",
"226 610 OFFCURVE",
"60 459 CURVE",
"119 397 LINE",
"282 548 OFFCURVE",
"406 677 OFFCURVE",
"565 888 CURVE"
);
},
{
closed = 1;
nodes = (
"546 620 LINE",
"436 490 OFFCURVE",
"328 383 OFFCURVE",
"190 262 CURVE",
"246 198 LINE",
"380 313 OFFCURVE",
"493 423 OFFCURVE",
"612 565 CURVE"
);
},
{
closed = 1;
nodes = (
"425 378 LINE",
"376 520 OFFCURVE",
"313 674 OFFCURVE",
"208 876 CURVE",
"131 837 LINE",
"243 626 OFFCURVE",
"306 475 OFFCURVE",
"359 315 CURVE"
);
}
);
vertOrigin = 25;
vertWidth = 1362;
width = 803;
}
);
unicode = 1B1BC;
},
{
glyphname = u1B1BD;
lastChange = "2020-04-09 13:42:14 +0000";
layers = (
{
layerId = "CFFEBDE4-599A-46B2-9328-D96E42CD9C81";
paths = (
{
closed = 1;
nodes = (
"160 659 OFFCURVE",
"213 601 OFFCURVE",
"251 548 CURVE",
"270 516 LINE",
"305 451 OFFCURVE",
"318 391 OFFCURVE",
"318 321 CURVE SMOOTH",
"318 166 OFFCURVE",
"259 74 OFFCURVE",
"143 -64 CURVE",
"204 -115 LINE",
"331 33 OFFCURVE",
"400 160 OFFCURVE",
"400 323 CURVE SMOOTH",
"400 413 OFFCURVE",
"380 491 OFFCURVE",
"331 576 CURVE",
"304 610 LINE",
"265 665 OFFCURVE",
"218 720 OFFCURVE",
"156 775 CURVE",
"100 713 LINE"
);
},
{
closed = 1;
nodes = (
"406 939 LINE",
"357 725 OFFCURVE",
"291 605 OFFCURVE",
"124 429 CURVE",
"187 373 LINE",
"352 553 OFFCURVE",
"435 693 OFFCURVE",
"488 922 CURVE"
);
},
{
closed = 1;
nodes = (
"377 -78 OFFCURVE",
"360 14 OFFCURVE",
"322 95 CURVE",
"293 141 LINE",
"265 190 OFFCURVE",
"229 236 OFFCURVE",
"185 283 CURVE",
"126 229 LINE",
"182 170 OFFCURVE",
"221 118 OFFCURVE",
"248 62 CURVE",
"274 11 LINE",
"294 -49 OFFCURVE",
"304 -116 OFFCURVE",
"308 -203 CURVE",
"388 -198 LINE"
);
},
{
closed = 1;
nodes = (
"381 749 LINE",
"473 592 OFFCURVE",
"549 494 OFFCURVE",
"680 379 CURVE",
"736 442 LINE",
"607 557 OFFCURVE",
"532 651 OFFCURVE",
"435 808 CURVE"
);
},
{
closed = 1;
nodes = (
"556 432 OFFCURVE",
"563 480 OFFCURVE",
"582 521 CURVE",
"595 552 LINE",
"628 621 OFFCURVE",
"667 683 OFFCURVE",
"730 752 CURVE",
"669 807 LINE",
"612 744 OFFCURVE",
"569 686 OFFCURVE",
"534 620 CURVE",
"519 587 LINE",
"487 517 OFFCURVE",
"474 451 OFFCURVE",
"474 387 CURVE SMOOTH",
"474 227 OFFCURVE",
"529 108 OFFCURVE",
"660 2 CURVE",
"714 61 LINE",
"595 167 OFFCURVE",
"556 246 OFFCURVE",
"556 389 CURVE SMOOTH"
);
}
);
vertOrigin = 25;
vertWidth = 1362;
width = 836;
}
);
unicode = 1B1BD;
},
{
glyphname = u1B1BE;
lastChange = "2020-04-09 13:43:34 +0000";
layers = (
{
layerId = "CFFEBDE4-599A-46B2-9328-D96E42CD9C81";
paths = (
{
closed = 1;
nodes = (
"486 939 LINE",
"486 559 OFFCURVE",
"427 326 OFFCURVE",
"306 147 CURVE",
"376 101 LINE",
"498 280 OFFCURVE",
"572 536 OFFCURVE",
"572 936 CURVE"
);
},
{
closed = 1;
nodes = (
"262 607 LINE",
"243 470 OFFCURVE",
"213 404 OFFCURVE",
"146 330 CURVE",
"207 275 LINE",
"279 352 OFFCURVE",
"321 447 OFFCURVE",
"345 593 CURVE"
);
},
{
closed = 1;
nodes = (
"570 258 OFFCURVE",
"587 338 OFFCURVE",
"637 430 CURVE",
"709 395 LINE",
"666 315 OFFCURVE",
"654 249 OFFCURVE",
"654 177 CURVE SMOOTH",
"654 89 OFFCURVE",
"672 28 OFFCURVE",
"715 -47 CURVE",
"645 -85 LINE",
"593 -8 OFFCURVE",
"570 76 OFFCURVE",
"570 177 CURVE SMOOTH"
);
},
{
closed = 1;
nodes = (
"173 99 LINE",
"227 9 OFFCURVE",
"262 -64 OFFCURVE",
"298 -165 CURVE",
"379 -134 LINE",
"333 -16 OFFCURVE",
"288 64 OFFCURVE",
"214 165 CURVE"
);
},
{
closed = 1;
nodes = (
"150 227 LINE",
"133 61 OFFCURVE",
"109 -49 OFFCURVE",
"60 -179 CURVE",
"143 -203 LINE",
"178 -102 OFFCURVE",
"195 -24 OFFCURVE",
"207 72 CURVE",
"225 126 LINE",
"229 156 OFFCURVE",
"233 186 OFFCURVE",
"236 218 CURVE"
);
}
);
vertOrigin = 25;
vertWidth = 1362;
width = 825;
}
);
leftMetricsKey = u1B1B9;
rightMetricsKey = u1B178;
unicode = 1B1BE;
},
{
glyphname = u1B1BF;
lastChange = "2020-04-09 13:44:17 +0000";
layers = (
{
background = {
paths = (
{
closed = 1;
nodes = (
"140 29 OFFCURVE",
"163 46 OFFCURVE",
"163 85 CURVE SMOOTH",
"163 124 OFFCURVE",
"140 141 OFFCURVE",
"112 141 CURVE SMOOTH",
"83 141 OFFCURVE",
"60 124 OFFCURVE",
"60 85 CURVE SMOOTH",
"60 46 OFFCURVE",
"83 29 OFFCURVE",
"112 29 CURVE SMOOTH"
);
},
{
closed = 1;
nodes = (
"448 409 OFFCURVE",
"471 426 OFFCURVE",
"471 465 CURVE SMOOTH",
"471 504 OFFCURVE",
"448 521 OFFCURVE",
"420 521 CURVE SMOOTH",
"391 521 OFFCURVE",
"368 504 OFFCURVE",
"368 465 CURVE SMOOTH",
"368 426 OFFCURVE",
"391 409 OFFCURVE",
"420 409 CURVE SMOOTH"
);
},
{
closed = 1;
nodes = (
"684 865 LINE",
"622 489 OFFCURVE",
"542 208 OFFCURVE",
"415 -48 CURVE",
"465 -59 LINE",
"405 103 OFFCURVE",
"345 240 OFFCURVE",
"256 376 CURVE",
"184 329 LINE",
"270 192 OFFCURVE",
"322 86 OFFCURVE",
"386 -83 CURVE",
"486 -93 LINE",
"611 156 OFFCURVE",
"700 428 OFFCURVE",
"769 854 CURVE"
);
}
);
};
layerId = "CFFEBDE4-599A-46B2-9328-D96E42CD9C81";
paths = (
{
closed = 1;
nodes = (
"670 909 LINE",
"593 645 OFFCURVE",
"493 439 OFFCURVE",
"362 224 CURVE",
"406 228 LINE",
"363 363 OFFCURVE",
"310 485 OFFCURVE",
"241 598 CURVE",
"167 556 LINE",
"241 430 OFFCURVE",
"288 324 OFFCURVE",
"332 194 CURVE",
"423 179 LINE",
"573 408 OFFCURVE",
"678 621 OFFCURVE",
"753 887 CURVE"
);
},
{
closed = 1;
nodes = (
"716 401 LINE",
"622 180 OFFCURVE",
"526 34 OFFCURVE",
"382 -127 CURVE",
"444 -183 LINE",
"585 -24 OFFCURVE",
"697 137 OFFCURVE",
"796 368 CURVE"
);
},
{
closed = 1;
nodes = (
"140 223 OFFCURVE",
"163 240 OFFCURVE",
"163 279 CURVE SMOOTH",
"163 318 OFFCURVE",
"140 335 OFFCURVE",
"112 335 CURVE SMOOTH",
"83 335 OFFCURVE",
"60 318 OFFCURVE",
"60 279 CURVE SMOOTH",
"60 240 OFFCURVE",
"83 223 OFFCURVE",
"112 223 CURVE SMOOTH"
);
},
{
closed = 1;
nodes = (
"438 635 OFFCURVE",
"461 652 OFFCURVE",
"461 691 CURVE SMOOTH",
"461 730 OFFCURVE",
"438 747 OFFCURVE",
"410 747 CURVE SMOOTH",
"381 747 OFFCURVE",
"358 730 OFFCURVE",
"358 691 CURVE SMOOTH",
"358 652 OFFCURVE",
"381 635 OFFCURVE",
"410 635 CURVE SMOOTH"
);
}
);
vertOrigin = 45;
vertWidth = 1362;
width = 896;
}
);
leftMetricsKey = u1B193;
unicode = 1B1BF;
},
{
glyphname = u1B1C0;
lastChange = "2020-04-09 13:45:40 +0000";
layers = (
{
layerId = "CFFEBDE4-599A-46B2-9328-D96E42CD9C81";
paths = (
{
closed = 1;
nodes = (
"495 -203 LINE",
"505 -103 OFFCURVE",
"508 -37 OFFCURVE",
"508 81 CURVE SMOOTH",
"508 351 OFFCURVE",
"453 623 OFFCURVE",
"328 939 CURVE",
"248 909 LINE",
"375 586 OFFCURVE",
"422 333 OFFCURVE",
"422 83 CURVE SMOOTH",
"422 -31 OFFCURVE",
"419 -111 OFFCURVE",
"411 -196 CURVE"
);
},
{
closed = 1;
nodes = (
"552 904 LINE",
"407 777 OFFCURVE",
"252 662 OFFCURVE",
"90 559 CURVE",
"126 410 OFFCURVE",
"145 303 OFFCURVE",
"161 184 CURVE",
"233 157 LINE",
"407 263 OFFCURVE",
"573 375 OFFCURVE",
"736 506 CURVE",
"708 650 OFFCURVE",
"680 754 OFFCURVE",
"643 878 CURVE"
);
},
{
closed = 1;
nodes = (
"559 854 LINE",
"599 726 OFFCURVE",
"625 624 OFFCURVE",
"650 502 CURVE",
"682 573 LINE",
"531 451 OFFCURVE",
"356 330 OFFCURVE",
"204 241 CURVE",
"243 224 LINE",
"227 330 OFFCURVE",
"205 450 OFFCURVE",
"176 569 CURVE",
"143 488 LINE",
"299 591 OFFCURVE",
"456 710 OFFCURVE",
"604 833 CURVE"
);
}
);
vertOrigin = 25;
vertWidth = 1362;
width = 826;
}
);
unicode = 1B1C0;
},
{
glyphname = u1B1C1;
lastChange = "2020-04-09 13:46:03 +0000";
layers = (
{
layerId = "CFFEBDE4-599A-46B2-9328-D96E42CD9C81";
paths = (
{
closed = 1;
nodes = (
"800 525 OFFCURVE",
"823 542 OFFCURVE",
"823 581 CURVE SMOOTH",
"823 620 OFFCURVE",
"800 637 OFFCURVE",
"772 637 CURVE SMOOTH",
"743 637 OFFCURVE",
"720 620 OFFCURVE",
"720 581 CURVE SMOOTH",
"720 542 OFFCURVE",
"743 525 OFFCURVE",
"772 525 CURVE SMOOTH"
);
},
{
closed = 1;
nodes = (
"150 296 OFFCURVE",
"173 313 OFFCURVE",
"173 352 CURVE SMOOTH",
"173 391 OFFCURVE",
"150 408 OFFCURVE",
"122 408 CURVE SMOOTH",
"93 408 OFFCURVE",
"70 391 OFFCURVE",
"70 352 CURVE SMOOTH",
"70 313 OFFCURVE",
"93 296 OFFCURVE",
"122 296 CURVE SMOOTH"
);
},
{
closed = 1;
nodes = (
"263 566 OFFCURVE",
"293 425 OFFCURVE",
"293 266 CURVE SMOOTH",
"293 89 OFFCURVE",
"269 -35 OFFCURVE",
"215 -175 CURVE",
"294 -203 LINE",
"349 -62 OFFCURVE",
"377 75 OFFCURVE",
"377 266 CURVE SMOOTH",
"377 446 OFFCURVE",
"340 592 OFFCURVE",
"241 789 CURVE",
"166 750 LINE"
);
},
{
closed = 1;
nodes = (
"556 649 OFFCURVE",
"440 481 OFFCURVE",
"294 348 CURVE",
"329 271 LINE",
"511 441 OFFCURVE",
"623 587 OFFCURVE",
"702 922 CURVE",
"617 939 LINE"
);
},
{
closed = 1;
nodes = (
"497 529 LINE",
"572 393 OFFCURVE",
"612 278 OFFCURVE",
"638 134 CURVE",
"723 149 LINE",
"693 318 OFFCURVE",
"643 439 OFFCURVE",
"550 593 CURVE"
);
}
);
vertOrigin = 25;
vertWidth = 1362;
width = 893;
}
);
leftMetricsKey = u1B1AF;
unicode = 1B1C1;
},
{
glyphname = u1B1C2;
lastChange = "2020-04-09 14:42:11 +0000";
layers = (
{
background = {
paths = (
{
closed = 1;
nodes = (
"416 939 LINE",
"315 703 OFFCURVE",
"197 556 OFFCURVE",
"37 403 CURVE",
"96 345 LINE",
"282 522 OFFCURVE",
"388 673 OFFCURVE",
"496 909 CURVE"
);
},
{
closed = 1;
nodes = (
"579 647 LINE",
"436 428 OFFCURVE",
"305 282 OFFCURVE",
"112 113 CURVE",
"169 54 LINE",
"344 201 OFFCURVE",
"503 376 OFFCURVE",
"651 606 CURVE"
);
},
{
closed = 1;
nodes = (
"379 -293 LINE",
"493 -185 OFFCURVE",
"570 -81 OFFCURVE",
"658 79 CURVE",
"580 117 LINE",
"494 -50 OFFCURVE",
"418 -143 OFFCURVE",
"351 -222 CURVE",
"376 -227 LINE",
"397 -130 OFFCURVE",
"407 -50 OFFCURVE",
"407 84 CURVE SMOOTH",
"407 284 OFFCURVE",
"376 466 OFFCURVE",
"323 682 CURVE",
"259 585 LINE",
"303 403 OFFCURVE",
"323 255 OFFCURVE",
"323 70 CURVE SMOOTH",
"323 -72 OFFCURVE",
"314 -148 OFFCURVE",
"290 -266 CURVE"
);
}
);
};
layerId = "CFFEBDE4-599A-46B2-9328-D96E42CD9C81";
paths = (
{
closed = 1;
nodes = (
"520 262 LINE",
"591 135 OFFCURVE",
"656 -7 OFFCURVE",
"700 -159 CURVE",
"779 -131 LINE",
"723 35 OFFCURVE",
"662 178 OFFCURVE",
"591 302 CURVE"
);
},
{
closed = 1;
nodes = (
"486 161 OFFCURVE",
"423 474 OFFCURVE",
"334 670 CURVE",
"274 602 LINE",
"348 420 OFFCURVE",
"398 159 OFFCURVE",
"414 -112 CURVE",
"501 -153 LINE",
"633 -12 OFFCURVE",
"734 107 OFFCURVE",
"826 251 CURVE",
"752 296 LINE",
"672 163 OFFCURVE",
"574 46 OFFCURVE",
"463 -80 CURVE",
"495 -87 LINE"
);
},
{
closed = 1;
nodes = (
"476 939 LINE",
"362 743 OFFCURVE",
"232 580 OFFCURVE",
"60 428 CURVE",
"118 364 LINE",
"287 516 OFFCURVE",
"435 695 OFFCURVE",
"551 897 CURVE"
);
},
{
closed = 1;
nodes = (
"602 672 LINE",
"468 472 OFFCURVE",
"346 332 OFFCURVE",
"178 186 CURVE",
"236 123 LINE",
"400 266 OFFCURVE",
"530 410 OFFCURVE",
"673 624 CURVE"
);
}
);
vertOrigin = 25;
vertWidth = 1362;
width = 886;
}
);
leftMetricsKey = u1B19E;
rightMetricsKey = u1B19E;
unicode = 1B1C2;
},
{
glyphname = u1B1C3;
lastChange = "2020-04-09 13:47:28 +0000";
layers = (
{
background = {
paths = (
{
closed = 1;
nodes = (
"360 939 LINE",
"360 396 OFFCURVE",
"338 249 OFFCURVE",
"289 68 CURVE",
"373 49 LINE",
"404 185 OFFCURVE",
"427 314 OFFCURVE",
"427 559 CURVE",
"443 625 LINE",
"445 713 OFFCURVE",
"446 815 OFFCURVE",
"446 937 CURVE"
);
},
{
closed = 1;
nodes = (
"397 570 LINE",
"462 462 OFFCURVE",
"508 375 OFFCURVE",
"548 284 CURVE",
"626 320 LINE",
"574 434 OFFCURVE",
"514 525 OFFCURVE",
"433 634 CURVE"
);
},
{
closed = 1;
nodes = (
"456 693 OFFCURVE",
"290 566 OFFCURVE",
"130 471 CURVE",
"159 276 OFFCURVE",
"170 137 OFFCURVE",
"170 24 CURVE SMOOTH",
"170 -76 OFFCURVE",
"164 -136 OFFCURVE",
"155 -194 CURVE",
"240 -203 LINE",
"248 -142 OFFCURVE",
"254 -70 OFFCURVE",
"254 26 CURVE SMOOTH",
"254 145 OFFCURVE",
"244 289 OFFCURVE",
"210 485 CURVE",
"183 401 LINE",
"336 495 OFFCURVE",
"503 623 OFFCURVE",
"644 760 CURVE",
"612 774 LINE",
"654 625 OFFCURVE",
"665 486 OFFCURVE",
"665 338 CURVE SMOOTH",
"665 252 OFFCURVE",
"663 214 OFFCURVE",
"656 134 CURVE",
"740 125 LINE",
"748 223 OFFCURVE",
"749 262 OFFCURVE",
"749 344 CURVE SMOOTH",
"749 482 OFFCURVE",
"736 643 OFFCURVE",
"689 815 CURVE",
"597 836 LINE"
);
}
);
};
layerId = "CFFEBDE4-599A-46B2-9328-D96E42CD9C81";
paths = (
{
closed = 1;
nodes = (
"621 853 LINE",
"651 689 OFFCURVE",
"662 577 OFFCURVE",
"662 431 CURVE SMOOTH",
"662 296 OFFCURVE",
"659 207 OFFCURVE",
"652 111 CURVE",
"738 106 LINE",
"746 208 OFFCURVE",
"748 299 OFFCURVE",
"748 431 CURVE SMOOTH",
"748 584 OFFCURVE",
"734 730 OFFCURVE",
"698 901 CURVE",
"607 919 LINE",
"442 769 OFFCURVE",
"295 655 OFFCURVE",
"140 548 CURVE",
"162 374 OFFCURVE",
"170 260 OFFCURVE",
"170 113 CURVE SMOOTH",
"170 -8 OFFCURVE",
"167 -96 OFFCURVE",
"155 -194 CURVE",
"239 -203 LINE",
"251 -108 OFFCURVE",
"254 0 OFFCURVE",
"254 113 CURVE SMOOTH",
"254 277 OFFCURVE",
"244 404 OFFCURVE",
"225 555 CURVE",
"203 487 LINE",
"343 584 OFFCURVE",
"501 705 OFFCURVE",
"668 859 CURVE"
);
},
{
closed = 1;
nodes = (
"271 438 LINE",
"378 354 OFFCURVE",
"491 244 OFFCURVE",
"574 138 CURVE",
"638 195 LINE",
"544 313 OFFCURVE",
"434 421 OFFCURVE",
"324 506 CURVE"
);
},
{
closed = 1;
nodes = (
"516 666 LINE",
"464 447 OFFCURVE",
"397 253 OFFCURVE",
"283 46 CURVE",
"358 8 LINE",
"476 228 OFFCURVE",
"542 405 OFFCURVE",
"600 646 CURVE"
);
}
);
vertOrigin = 25;
vertWidth = 1362;
width = 888;
}
);
leftMetricsKey = u1B1AB;
rightMetricsKey = u1B1AB;
unicode = 1B1C3;
},
{
glyphname = u1B1C4;
lastChange = "2020-04-09 13:49:33 +0000";
layers = (
{
background = {
paths = (
{
closed = 1;
nodes = (
"127 344 LINE",
"265 170 OFFCURVE",
"393 -24 OFFCURVE",
"482 -203 CURVE",
"559 -165 LINE",
"457 32 OFFCURVE",
"330 225 OFFCURVE",
"181 415 CURVE",
"183 343 LINE",
"335 554 OFFCURVE",
"422 696 OFFCURVE",
"511 907 CURVE",
"431 939 LINE",
"347 736 OFFCURVE",
"257 588 OFFCURVE",
"127 415 CURVE"
);
},
{
closed = 1;
nodes = (
"373 596 OFFCURVE",
"425 488 OFFCURVE",
"425 380 CURVE SMOOTH",
"425 244 OFFCURVE",
"364 137 OFFCURVE",
"126 -98 CURVE",
"187 -158 LINE",
"419 69 OFFCURVE",
"511 205 OFFCURVE",
"511 380 CURVE SMOOTH",
"511 524 OFFCURVE",
"438 648 OFFCURVE",
"171 854 CURVE",
"118 786 LINE"
);
}
);
};
layerId = "CFFEBDE4-599A-46B2-9328-D96E42CD9C81";
paths = (
{
closed = 1;
nodes = (
"479 305 OFFCURVE",
"506 246 OFFCURVE",
"601 198 CURVE",
"682 219 LINE",
"735 319 OFFCURVE",
"754 382 OFFCURVE",
"754 458 CURVE SMOOTH",
"754 534 OFFCURVE",
"725 594 OFFCURVE",
"626 655 CURVE",
"548 640 LINE",
"496 524 OFFCURVE",
"479 456 OFFCURVE",
"479 387 CURVE SMOOTH"
);
},
{
closed = 1;
nodes = (
"578 597 LINE",
"653 541 OFFCURVE",
"672 510 OFFCURVE",
"672 458 CURVE SMOOTH",
"672 401 OFFCURVE",
"659 345 OFFCURVE",
"608 246 CURVE",
"640 263 LINE",
"583 300 OFFCURVE",
"561 334 OFFCURVE",
"561 387 CURVE SMOOTH",
"561 443 OFFCURVE",
"574 494 OFFCURVE",
"614 594 CURVE"
);
},
{
closed = 1;
nodes = (
"142 344 LINE",
"281 158 OFFCURVE",
"367 -2 OFFCURVE",
"442 -203 CURVE",
"522 -172 LINE",
"434 47 OFFCURVE",
"345 213 OFFCURVE",
"195 415 CURVE",
"197 343 LINE",
"332 545 OFFCURVE",
"405 697 OFFCURVE",
"474 915 CURVE",
"391 939 LINE",
"327 729 OFFCURVE",
"255 579 OFFCURVE",
"142 415 CURVE"
);
},
{
closed = 1;
nodes = (
"295 596 OFFCURVE",
"356 493 OFFCURVE",
"356 380 CURVE SMOOTH",
"356 244 OFFCURVE",
"293 122 OFFCURVE",
"127 -100 CURVE",
"193 -149 LINE",
"353 65 OFFCURVE",
"436 205 OFFCURVE",
"436 380 CURVE SMOOTH",
"436 529 OFFCURVE",
"368 638 OFFCURVE",
"171 854 CURVE",
"110 796 LINE"
);
}
);
vertOrigin = 25;
vertWidth = 1362;
width = 844;
}
);
leftMetricsKey = u1B181;
unicode = 1B1C4;
},
{
glyphname = u1B1C5;
lastChange = "2020-04-09 13:50:00 +0000";
layers = (
{
layerId = "CFFEBDE4-599A-46B2-9328-D96E42CD9C81";
paths = (
{
closed = 1;
nodes = (
"320 11 OFFCURVE",
"343 28 OFFCURVE",
"343 67 CURVE SMOOTH",
"343 106 OFFCURVE",
"320 123 OFFCURVE",
"292 123 CURVE SMOOTH",
"263 123 OFFCURVE",
"240 106 OFFCURVE",
"240 67 CURVE SMOOTH",
"240 28 OFFCURVE",
"263 11 OFFCURVE",
"292 11 CURVE SMOOTH"
);
},
{
closed = 1;
nodes = (
"579 385 OFFCURVE",
"602 402 OFFCURVE",
"602 441 CURVE SMOOTH",
"602 480 OFFCURVE",
"579 497 OFFCURVE",
"551 497 CURVE SMOOTH",
"522 497 OFFCURVE",
"499 480 OFFCURVE",
"499 441 CURVE SMOOTH",
"499 402 OFFCURVE",
"522 385 OFFCURVE",
"551 385 CURVE SMOOTH"
);
},
{
closed = 1;
nodes = (
"557 68 LINE",
"432 328 OFFCURVE",
"322 531 OFFCURVE",
"151 780 CURVE",
"80 731 LINE",
"248 490 OFFCURVE",
"363 278 OFFCURVE",
"480 30 CURVE"
);
},
{
closed = 1;
nodes = (
"568 939 LINE",
"425 629 OFFCURVE",
"273 390 OFFCURVE",
"84 157 CURVE",
"152 105 LINE",
"335 330 OFFCURVE",
"496 578 OFFCURVE",
"647 905 CURVE"
);
},
{
closed = 1;
nodes = (
"667 372 LINE",
"564 182 OFFCURVE",
"441 3 OFFCURVE",
"305 -150 CURVE",
"372 -203 LINE",
"520 -33 OFFCURVE",
"631 128 OFFCURVE",
"743 331 CURVE"
);
}
);
vertOrigin = 25;
vertWidth = 1362;
width = 813;
}
);
leftMetricsKey = u1B180;
rightMetricsKey = u1B180;
unicode = 1B1C5;
},
{
glyphname = u1B1C6;
lastChange = "2020-04-09 13:50:28 +0000";
layers = (
{
background = {
paths = (
{
closed = 1;
nodes = (
"374 -5 OFFCURVE",
"397 12 OFFCURVE",
"397 51 CURVE SMOOTH",
"397 90 OFFCURVE",
"374 107 OFFCURVE",
"346 107 CURVE SMOOTH",
"317 107 OFFCURVE",
"294 90 OFFCURVE",
"294 51 CURVE SMOOTH",
"294 12 OFFCURVE",
"317 -5 OFFCURVE",
"346 -5 CURVE SMOOTH"
);
},
{
closed = 1;
nodes = (
"627 386 OFFCURVE",
"650 403 OFFCURVE",
"650 442 CURVE SMOOTH",
"650 481 OFFCURVE",
"627 498 OFFCURVE",
"599 498 CURVE SMOOTH",
"570 498 OFFCURVE",
"547 481 OFFCURVE",
"547 442 CURVE SMOOTH",
"547 403 OFFCURVE",
"570 386 OFFCURVE",
"599 386 CURVE SMOOTH"
);
},
{
closed = 1;
nodes = (
"615 68 LINE",
"484 323 OFFCURVE",
"360 531 OFFCURVE",
"189 780 CURVE",
"118 731 LINE",
"286 490 OFFCURVE",
"415 273 OFFCURVE",
"538 30 CURVE"
);
},
{
closed = 1;
nodes = (
"565 939 LINE",
"433 624 OFFCURVE",
"287 362 OFFCURVE",
"120 130 CURVE",
"190 80 LINE",
"352 304 OFFCURVE",
"506 576 OFFCURVE",
"645 909 CURVE"
);
},
{
closed = 1;
nodes = (
"731 383 LINE",
"628 194 OFFCURVE",
"503 1 OFFCURVE",
"384 -151 CURVE",
"452 -203 LINE",
"589 -27 OFFCURVE",
"693 138 OFFCURVE",
"807 343 CURVE"
);
}
);
};
layerId = "CFFEBDE4-599A-46B2-9328-D96E42CD9C81";
paths = (
{
closed = 1;
nodes = (
"308 17 OFFCURVE",
"331 34 OFFCURVE",
"331 73 CURVE SMOOTH",
"331 112 OFFCURVE",
"308 129 OFFCURVE",
"280 129 CURVE SMOOTH",
"251 129 OFFCURVE",
"228 112 OFFCURVE",
"228 73 CURVE SMOOTH",
"228 34 OFFCURVE",
"251 17 OFFCURVE",
"280 17 CURVE SMOOTH"
);
},
{
closed = 1;
nodes = (
"574 405 OFFCURVE",
"597 422 OFFCURVE",
"597 461 CURVE SMOOTH",
"597 500 OFFCURVE",
"574 517 OFFCURVE",
"546 517 CURVE SMOOTH",
"517 517 OFFCURVE",
"494 500 OFFCURVE",
"494 461 CURVE SMOOTH",
"494 422 OFFCURVE",
"517 405 OFFCURVE",
"546 405 CURVE SMOOTH"
);
},
{
closed = 1;
nodes = (
"261 425 LINE",
"349 283 OFFCURVE",
"420 163 OFFCURVE",
"488 15 CURVE",
"561 62 LINE",
"488 217 OFFCURVE",
"411 352 OFFCURVE",
"311 505 CURVE"
);
},
{
closed = 1;
nodes = (
"542 939 LINE",
"402 658 OFFCURVE",
"203 362 OFFCURVE",
"50 165 CURVE",
"118 113 LINE",
"269 303 OFFCURVE",
"479 625 OFFCURVE",
"621 906 CURVE"
);
},
{
closed = 1;
nodes = (
"671 373 LINE",
"564 186 OFFCURVE",
"430 -3 OFFCURVE",
"303 -147 CURVE",
"368 -203 LINE",
"514 -34 OFFCURVE",
"626 129 OFFCURVE",
"746 331 CURVE"
);
}
);
vertOrigin = 25;
vertWidth = 1362;
width = 897;
}
);
unicode = 1B1C6;
},
